# studio VFX Rank Zero / Poing du Dragon, mesh genere (meshes.py)
v -0.41000 0.00000 -0.71014
v -0.50000 0.00000 -0.86603
v -0.59000 0.00000 -1.02191
v -0.46666 0.00000 -0.67426
v -0.56910 0.00000 -0.82227
v -0.67154 0.00000 -0.97028
v -0.52020 0.00000 -0.63387
v -0.63439 0.00000 -0.77301
v -0.74858 0.00000 -0.91215
v -0.57026 0.00000 -0.58924
v -0.69544 0.00000 -0.71858
v -0.82062 0.00000 -0.84793
v -0.61651 0.00000 -0.54066
v -0.75184 0.00000 -0.65935
v -0.88717 0.00000 -0.77803
v -0.65863 0.00000 -0.48847
v -0.80321 0.00000 -0.59570
v -0.94778 0.00000 -0.70293
v -0.69635 0.00000 -0.43302
v -0.84920 0.00000 -0.52807
v -1.00206 0.00000 -0.62312
v -0.72940 0.00000 -0.37466
v -0.88952 0.00000 -0.45690
v -1.04963 0.00000 -0.53915
v -0.75758 0.00000 -0.31380
v -0.92388 0.00000 -0.38268
v -1.09018 0.00000 -0.45157
v -0.78069 0.00000 -0.25084
v -0.95206 0.00000 -0.30590
v -1.12343 0.00000 -0.36097
v -0.79858 0.00000 -0.18620
v -0.97388 0.00000 -0.22708
v -1.14917 0.00000 -0.26795
v -0.81112 0.00000 -0.12032
v -0.98918 0.00000 -0.14673
v -1.16723 0.00000 -0.17314
v -0.81824 0.00000 -0.05363
v -0.99786 0.00000 -0.06540
v -1.17747 0.00000 -0.07718
v -0.81989 0.00000 0.01342
v -0.99987 0.00000 0.01636
v -1.17984 0.00000 0.01931
v -0.81605 0.00000 0.08037
v -0.99518 0.00000 0.09802
v -1.17432 0.00000 0.11566
v -0.80675 0.00000 0.14679
v -0.98385 0.00000 0.17902
v -1.16094 0.00000 0.21124
v -0.79206 0.00000 0.21223
v -0.96593 0.00000 0.25882
v -1.13979 0.00000 0.30541
v -0.77207 0.00000 0.27625
v -0.94154 0.00000 0.33689
v -1.11102 0.00000 0.39753
v -0.74691 0.00000 0.33842
v -0.91086 0.00000 0.41271
v -1.07482 0.00000 0.48699
v -0.71675 0.00000 0.39833
v -0.87409 0.00000 0.48576
v -1.03143 0.00000 0.57320
v -0.68181 0.00000 0.45557
v -0.83147 0.00000 0.55557
v -0.98113 0.00000 0.65557
v -0.64230 0.00000 0.50976
v -0.78329 0.00000 0.62166
v -0.92428 0.00000 0.73356
v -0.59849 0.00000 0.56055
v -0.72986 0.00000 0.68359
v -0.86124 0.00000 0.80664
v -0.55068 0.00000 0.60758
v -0.67156 0.00000 0.74095
v -0.79244 0.00000 0.87432
v -0.49918 0.00000 0.65055
v -0.60876 0.00000 0.79335
v -0.71834 0.00000 0.93616
v -0.44435 0.00000 0.68917
v -0.54189 0.00000 0.84045
v -0.63943 0.00000 0.99173
v -0.38655 0.00000 0.72318
v -0.47140 0.00000 0.88192
v -0.55625 0.00000 1.04067
v -0.32615 0.00000 0.75235
v -0.39775 0.00000 0.91749
v -0.46934 0.00000 1.08264
v -0.26358 0.00000 0.77648
v -0.32144 0.00000 0.94693
v -0.37930 0.00000 1.11738
v -0.19924 0.00000 0.79543
v -0.24298 0.00000 0.97003
v -0.28672 0.00000 1.14464
v -0.13357 0.00000 0.80905
v -0.16290 0.00000 0.98664
v -0.19222 0.00000 1.16424
v -0.06701 0.00000 0.81726
v -0.08172 0.00000 0.99666
v -0.09643 0.00000 1.17605
v 0.00000 0.00000 0.82000
v 0.00000 0.00000 1.00000
v 0.00000 0.00000 1.18000
v 0.06701 0.00000 0.81726
v 0.08172 0.00000 0.99666
v 0.09643 0.00000 1.17605
v 0.13357 0.00000 0.80905
v 0.16290 0.00000 0.98664
v 0.19222 0.00000 1.16424
v 0.19924 0.00000 0.79543
v 0.24298 0.00000 0.97003
v 0.28672 0.00000 1.14464
v 0.26358 0.00000 0.77648
v 0.32144 0.00000 0.94693
v 0.37930 0.00000 1.11738
v 0.32615 0.00000 0.75235
v 0.39775 0.00000 0.91749
v 0.46934 0.00000 1.08264
v 0.38655 0.00000 0.72318
v 0.47140 0.00000 0.88192
v 0.55625 0.00000 1.04067
v 0.44435 0.00000 0.68917
v 0.54189 0.00000 0.84045
v 0.63943 0.00000 0.99173
v 0.49918 0.00000 0.65055
v 0.60876 0.00000 0.79335
v 0.71834 0.00000 0.93616
v 0.55068 0.00000 0.60758
v 0.67156 0.00000 0.74095
v 0.79244 0.00000 0.87432
v 0.59849 0.00000 0.56055
v 0.72986 0.00000 0.68359
v 0.86124 0.00000 0.80664
v 0.64230 0.00000 0.50976
v 0.78329 0.00000 0.62166
v 0.92428 0.00000 0.73356
v 0.68181 0.00000 0.45557
v 0.83147 0.00000 0.55557
v 0.98113 0.00000 0.65557
v 0.71675 0.00000 0.39833
v 0.87409 0.00000 0.48576
v 1.03143 0.00000 0.57320
v 0.74691 0.00000 0.33842
v 0.91086 0.00000 0.41271
v 1.07482 0.00000 0.48699
v 0.77207 0.00000 0.27625
v 0.94154 0.00000 0.33689
v 1.11102 0.00000 0.39753
v 0.79206 0.00000 0.21223
v 0.96593 0.00000 0.25882
v 1.13979 0.00000 0.30541
v 0.80675 0.00000 0.14679
v 0.98385 0.00000 0.17902
v 1.16094 0.00000 0.21124
v 0.81605 0.00000 0.08037
v 0.99518 0.00000 0.09802
v 1.17432 0.00000 0.11566
v 0.81989 0.00000 0.01342
v 0.99987 0.00000 0.01636
v 1.17984 0.00000 0.01931
v 0.81824 0.00000 -0.05363
v 0.99786 0.00000 -0.06540
v 1.17747 0.00000 -0.07718
v 0.81112 0.00000 -0.12032
v 0.98918 0.00000 -0.14673
v 1.16723 0.00000 -0.17314
v 0.79858 0.00000 -0.18620
v 0.97388 0.00000 -0.22708
v 1.14917 0.00000 -0.26795
v 0.78069 0.00000 -0.25084
v 0.95206 0.00000 -0.30590
v 1.12343 0.00000 -0.36097
v 0.75758 0.00000 -0.31380
v 0.92388 0.00000 -0.38268
v 1.09018 0.00000 -0.45157
v 0.72940 0.00000 -0.37466
v 0.88952 0.00000 -0.45690
v 1.04963 0.00000 -0.53915
v 0.69635 0.00000 -0.43302
v 0.84920 0.00000 -0.52807
v 1.00206 0.00000 -0.62312
v 0.65863 0.00000 -0.48847
v 0.80321 0.00000 -0.59570
v 0.94778 0.00000 -0.70293
v 0.61651 0.00000 -0.54066
v 0.75184 0.00000 -0.65935
v 0.88717 0.00000 -0.77803
v 0.57026 0.00000 -0.58924
v 0.69544 0.00000 -0.71858
v 0.82062 0.00000 -0.84793
v 0.52020 0.00000 -0.63387
v 0.63439 0.00000 -0.77301
v 0.74858 0.00000 -0.91215
v 0.46666 0.00000 -0.67426
v 0.56910 0.00000 -0.82227
v 0.67154 0.00000 -0.97028
v 0.41000 0.00000 -0.71014
v 0.50000 0.00000 -0.86603
v 0.59000 0.00000 -1.02191
vt 0.00000 0.00000
vt 0.00000 0.50000
vt 0.00000 1.00000
vt 0.01562 0.00000
vt 0.01562 0.50000
vt 0.01562 1.00000
vt 0.03125 0.00000
vt 0.03125 0.50000
vt 0.03125 1.00000
vt 0.04688 0.00000
vt 0.04688 0.50000
vt 0.04688 1.00000
vt 0.06250 0.00000
vt 0.06250 0.50000
vt 0.06250 1.00000
vt 0.07812 0.00000
vt 0.07812 0.50000
vt 0.07812 1.00000
vt 0.09375 0.00000
vt 0.09375 0.50000
vt 0.09375 1.00000
vt 0.10938 0.00000
vt 0.10938 0.50000
vt 0.10938 1.00000
vt 0.12500 0.00000
vt 0.12500 0.50000
vt 0.12500 1.00000
vt 0.14062 0.00000
vt 0.14062 0.50000
vt 0.14062 1.00000
vt 0.15625 0.00000
vt 0.15625 0.50000
vt 0.15625 1.00000
vt 0.17188 0.00000
vt 0.17188 0.50000
vt 0.17188 1.00000
vt 0.18750 0.00000
vt 0.18750 0.50000
vt 0.18750 1.00000
vt 0.20312 0.00000
vt 0.20312 0.50000
vt 0.20312 1.00000
vt 0.21875 0.00000
vt 0.21875 0.50000
vt 0.21875 1.00000
vt 0.23438 0.00000
vt 0.23438 0.50000
vt 0.23438 1.00000
vt 0.25000 0.00000
vt 0.25000 0.50000
vt 0.25000 1.00000
vt 0.26562 0.00000
vt 0.26562 0.50000
vt 0.26562 1.00000
vt 0.28125 0.00000
vt 0.28125 0.50000
vt 0.28125 1.00000
vt 0.29688 0.00000
vt 0.29688 0.50000
vt 0.29688 1.00000
vt 0.31250 0.00000
vt 0.31250 0.50000
vt 0.31250 1.00000
vt 0.32812 0.00000
vt 0.32812 0.50000
vt 0.32812 1.00000
vt 0.34375 0.00000
vt 0.34375 0.50000
vt 0.34375 1.00000
vt 0.35938 0.00000
vt 0.35938 0.50000
vt 0.35938 1.00000
vt 0.37500 0.00000
vt 0.37500 0.50000
vt 0.37500 1.00000
vt 0.39062 0.00000
vt 0.39062 0.50000
vt 0.39062 1.00000
vt 0.40625 0.00000
vt 0.40625 0.50000
vt 0.40625 1.00000
vt 0.42188 0.00000
vt 0.42188 0.50000
vt 0.42188 1.00000
vt 0.43750 0.00000
vt 0.43750 0.50000
vt 0.43750 1.00000
vt 0.45312 0.00000
vt 0.45312 0.50000
vt 0.45312 1.00000
vt 0.46875 0.00000
vt 0.46875 0.50000
vt 0.46875 1.00000
vt 0.48438 0.00000
vt 0.48438 0.50000
vt 0.48438 1.00000
vt 0.50000 0.00000
vt 0.50000 0.50000
vt 0.50000 1.00000
vt 0.51562 0.00000
vt 0.51562 0.50000
vt 0.51562 1.00000
vt 0.53125 0.00000
vt 0.53125 0.50000
vt 0.53125 1.00000
vt 0.54688 0.00000
vt 0.54688 0.50000
vt 0.54688 1.00000
vt 0.56250 0.00000
vt 0.56250 0.50000
vt 0.56250 1.00000
vt 0.57812 0.00000
vt 0.57812 0.50000
vt 0.57812 1.00000
vt 0.59375 0.00000
vt 0.59375 0.50000
vt 0.59375 1.00000
vt 0.60938 0.00000
vt 0.60938 0.50000
vt 0.60938 1.00000
vt 0.62500 0.00000
vt 0.62500 0.50000
vt 0.62500 1.00000
vt 0.64062 0.00000
vt 0.64062 0.50000
vt 0.64062 1.00000
vt 0.65625 0.00000
vt 0.65625 0.50000
vt 0.65625 1.00000
vt 0.67188 0.00000
vt 0.67188 0.50000
vt 0.67188 1.00000
vt 0.68750 0.00000
vt 0.68750 0.50000
vt 0.68750 1.00000
vt 0.70312 0.00000
vt 0.70312 0.50000
vt 0.70312 1.00000
vt 0.71875 0.00000
vt 0.71875 0.50000
vt 0.71875 1.00000
vt 0.73438 0.00000
vt 0.73438 0.50000
vt 0.73438 1.00000
vt 0.75000 0.00000
vt 0.75000 0.50000
vt 0.75000 1.00000
vt 0.76562 0.00000
vt 0.76562 0.50000
vt 0.76562 1.00000
vt 0.78125 0.00000
vt 0.78125 0.50000
vt 0.78125 1.00000
vt 0.79688 0.00000
vt 0.79688 0.50000
vt 0.79688 1.00000
vt 0.81250 0.00000
vt 0.81250 0.50000
vt 0.81250 1.00000
vt 0.82812 0.00000
vt 0.82812 0.50000
vt 0.82812 1.00000
vt 0.84375 0.00000
vt 0.84375 0.50000
vt 0.84375 1.00000
vt 0.85938 0.00000
vt 0.85938 0.50000
vt 0.85938 1.00000
vt 0.87500 0.00000
vt 0.87500 0.50000
vt 0.87500 1.00000
vt 0.89062 0.00000
vt 0.89062 0.50000
vt 0.89062 1.00000
vt 0.90625 0.00000
vt 0.90625 0.50000
vt 0.90625 1.00000
vt 0.92188 0.00000
vt 0.92188 0.50000
vt 0.92188 1.00000
vt 0.93750 0.00000
vt 0.93750 0.50000
vt 0.93750 1.00000
vt 0.95312 0.00000
vt 0.95312 0.50000
vt 0.95312 1.00000
vt 0.96875 0.00000
vt 0.96875 0.50000
vt 0.96875 1.00000
vt 0.98438 0.00000
vt 0.98438 0.50000
vt 0.98438 1.00000
vt 1.00000 0.00000
vt 1.00000 0.50000
vt 1.00000 1.00000
vn -0.00000 -1.00000 0.00000
vn -0.00000 -1.00000 0.00000
vn -0.00000 -1.00000 0.00000
vn -0.00000 -1.00000 0.00000
vn -0.00000 -1.00000 0.00000
vn -0.00000 -1.00000 0.00000
vn -0.00000 -1.00000 0.00000
vn -0.00000 -1.00000 0.00000
vn -0.00000 -1.00000 0.00000
vn -0.00000 -1.00000 0.00000
vn -0.00000 -1.00000 0.00000
vn -0.00000 -1.00000 0.00000
vn -0.00000 -1.00000 0.00000
vn -0.00000 -1.00000 0.00000
vn -0.00000 -1.00000 0.00000
vn -0.00000 -1.00000 0.00000
vn -0.00000 -1.00000 0.00000
vn -0.00000 -1.00000 0.00000
vn -0.00000 -1.00000 0.00000
vn -0.00000 -1.00000 0.00000
vn -0.00000 -1.00000 0.00000
vn -0.00000 -1.00000 0.00000
vn -0.00000 -1.00000 0.00000
vn -0.00000 -1.00000 0.00000
vn -0.00000 -1.00000 0.00000
vn -0.00000 -1.00000 0.00000
vn -0.00000 -1.00000 0.00000
vn -0.00000 -1.00000 0.00000
vn -0.00000 -1.00000 0.00000
vn -0.00000 -1.00000 0.00000
vn -0.00000 -1.00000 0.00000
vn -0.00000 -1.00000 0.00000
vn -0.00000 -1.00000 0.00000
vn -0.00000 -1.00000 0.00000
vn -0.00000 -1.00000 0.00000
vn -0.00000 -1.00000 0.00000
vn -0.00000 -1.00000 0.00000
vn -0.00000 -1.00000 0.00000
vn -0.00000 -1.00000 0.00000
vn 0.00000 -1.00000 0.00000
vn 0.00000 -1.00000 0.00000
vn 0.00000 -1.00000 0.00000
vn 0.00000 -1.00000 0.00000
vn 0.00000 -1.00000 0.00000
vn 0.00000 -1.00000 0.00000
vn 0.00000 -1.00000 0.00000
vn 0.00000 -1.00000 0.00000
vn 0.00000 -1.00000 0.00000
vn 0.00000 -1.00000 0.00000
vn 0.00000 -1.00000 0.00000
vn 0.00000 -1.00000 0.00000
vn 0.00000 -1.00000 0.00000
vn 0.00000 -1.00000 0.00000
vn 0.00000 -1.00000 0.00000
vn 0.00000 -1.00000 0.00000
vn 0.00000 -1.00000 0.00000
vn 0.00000 -1.00000 0.00000
vn 0.00000 -1.00000 0.00000
vn 0.00000 -1.00000 0.00000
vn 0.00000 -1.00000 0.00000
vn 0.00000 -1.00000 0.00000
vn 0.00000 -1.00000 0.00000
vn 0.00000 -1.00000 0.00000
vn 0.00000 -1.00000 0.00000
vn 0.00000 -1.00000 0.00000
vn 0.00000 -1.00000 0.00000
vn 0.00000 -1.00000 0.00000
vn 0.00000 -1.00000 0.00000
vn 0.00000 -1.00000 0.00000
vn 0.00000 -1.00000 0.00000
vn 0.00000 -1.00000 0.00000
vn 0.00000 -1.00000 0.00000
vn 0.00000 -1.00000 0.00000
vn 0.00000 -1.00000 0.00000
vn 0.00000 -1.00000 0.00000
vn 0.00000 -1.00000 0.00000
vn 0.00000 -1.00000 0.00000
vn 0.00000 -1.00000 0.00000
vn 0.00000 -1.00000 0.00000
vn 0.00000 -1.00000 0.00000
vn 0.00000 -1.00000 0.00000
vn 0.00000 -1.00000 0.00000
vn 0.00000 -1.00000 0.00000
vn 0.00000 -1.00000 0.00000
vn 0.00000 -1.00000 0.00000
vn 0.00000 -1.00000 0.00000
vn 0.00000 -1.00000 0.00000
vn 0.00000 -1.00000 0.00000
vn 0.00000 -1.00000 0.00000
vn 0.00000 -1.00000 0.00000
vn 0.00000 -1.00000 0.00000
vn 0.00000 -1.00000 0.00000
vn 0.00000 -1.00000 0.00000
vn 0.00000 -1.00000 0.00000
vn 0.00000 -1.00000 0.00000
vn 0.00000 -1.00000 0.00000
vn 0.00000 -1.00000 0.00000
vn 0.00000 -1.00000 0.00000
vn 0.00000 -1.00000 0.00000
vn 0.00000 -1.00000 0.00000
vn 0.00000 -1.00000 0.00000
vn 0.00000 -1.00000 0.00000
vn 0.00000 -1.00000 0.00000
vn 0.00000 -1.00000 0.00000
vn 0.00000 -1.00000 0.00000
vn 0.00000 -1.00000 0.00000
vn 0.00000 -1.00000 0.00000
vn 0.00000 -1.00000 0.00000
vn 0.00000 -1.00000 0.00000
vn 0.00000 -1.00000 0.00000
vn 0.00000 -1.00000 0.00000
vn 0.00000 -1.00000 0.00000
vn 0.00000 -1.00000 0.00000
vn 0.00000 -1.00000 0.00000
vn 0.00000 -1.00000 0.00000
vn 0.00000 -1.00000 0.00000
vn 0.00000 -1.00000 0.00000
vn 0.00000 -1.00000 0.00000
vn 0.00000 -1.00000 0.00000
vn 0.00000 -1.00000 0.00000
vn 0.00000 -1.00000 0.00000
vn 0.00000 -1.00000 0.00000
vn 0.00000 -1.00000 0.00000
vn 0.00000 -1.00000 0.00000
vn 0.00000 -1.00000 0.00000
vn 0.00000 -1.00000 0.00000
vn 0.00000 -1.00000 0.00000
vn 0.00000 -1.00000 0.00000
vn 0.00000 -1.00000 0.00000
vn 0.00000 -1.00000 0.00000
vn 0.00000 -1.00000 0.00000
vn 0.00000 -1.00000 0.00000
vn 0.00000 -1.00000 0.00000
vn 0.00000 -1.00000 0.00000
vn 0.00000 -1.00000 0.00000
vn 0.00000 -1.00000 0.00000
vn 0.00000 -1.00000 0.00000
vn 0.00000 -1.00000 0.00000
vn 0.00000 -1.00000 0.00000
vn 0.00000 -1.00000 0.00000
vn 0.00000 -1.00000 0.00000
vn 0.00000 -1.00000 0.00000
vn 0.00000 -1.00000 0.00000
vn 0.00000 -1.00000 0.00000
vn 0.00000 -1.00000 0.00000
vn 0.00000 -1.00000 0.00000
vn 0.00000 -1.00000 0.00000
vn 0.00000 -1.00000 0.00000
vn 0.00000 -1.00000 0.00000
vn 0.00000 -1.00000 0.00000
vn 0.00000 -1.00000 0.00000
vn 0.00000 -1.00000 0.00000
vn 0.00000 -1.00000 0.00000
vn 0.00000 -1.00000 0.00000
vn 0.00000 -1.00000 0.00000
vn 0.00000 -1.00000 0.00000
vn 0.00000 -1.00000 -0.00000
vn 0.00000 -1.00000 -0.00000
vn 0.00000 -1.00000 -0.00000
vn 0.00000 -1.00000 -0.00000
vn 0.00000 -1.00000 -0.00000
vn 0.00000 -1.00000 -0.00000
vn 0.00000 -1.00000 -0.00000
vn 0.00000 -1.00000 -0.00000
vn 0.00000 -1.00000 -0.00000
vn 0.00000 -1.00000 -0.00000
vn 0.00000 -1.00000 -0.00000
vn 0.00000 -1.00000 -0.00000
vn 0.00000 -1.00000 -0.00000
vn 0.00000 -1.00000 -0.00000
vn 0.00000 -1.00000 -0.00000
vn 0.00000 -1.00000 -0.00000
vn 0.00000 -1.00000 -0.00000
vn 0.00000 -1.00000 -0.00000
vn 0.00000 -1.00000 -0.00000
vn 0.00000 -1.00000 -0.00000
vn 0.00000 -1.00000 -0.00000
vn 0.00000 -1.00000 -0.00000
vn 0.00000 -1.00000 -0.00000
vn 0.00000 -1.00000 -0.00000
vn 0.00000 -1.00000 -0.00000
vn 0.00000 -1.00000 -0.00000
vn 0.00000 -1.00000 -0.00000
vn 0.00000 -1.00000 -0.00000
vn 0.00000 -1.00000 -0.00000
vn 0.00000 -1.00000 -0.00000
vn 0.00000 -1.00000 -0.00000
vn 0.00000 -1.00000 -0.00000
vn 0.00000 -1.00000 -0.00000
vn 0.00000 -1.00000 -0.00000
vn 0.00000 -1.00000 -0.00000
vn 0.00000 -1.00000 -0.00000
vn 0.00000 -1.00000 -0.00000
vn 0.00000 -1.00000 -0.00000
vn 0.00000 -1.00000 -0.00000
f 1/1/1 4/4/4 2/2/2
f 4/4/4 5/5/5 2/2/2
f 2/2/2 5/5/5 3/3/3
f 5/5/5 6/6/6 3/3/3
f 4/4/4 7/7/7 5/5/5
f 7/7/7 8/8/8 5/5/5
f 5/5/5 8/8/8 6/6/6
f 8/8/8 9/9/9 6/6/6
f 7/7/7 10/10/10 8/8/8
f 10/10/10 11/11/11 8/8/8
f 8/8/8 11/11/11 9/9/9
f 11/11/11 12/12/12 9/9/9
f 10/10/10 13/13/13 11/11/11
f 13/13/13 14/14/14 11/11/11
f 11/11/11 14/14/14 12/12/12
f 14/14/14 15/15/15 12/12/12
f 13/13/13 16/16/16 14/14/14
f 16/16/16 17/17/17 14/14/14
f 14/14/14 17/17/17 15/15/15
f 17/17/17 18/18/18 15/15/15
f 16/16/16 19/19/19 17/17/17
f 19/19/19 20/20/20 17/17/17
f 17/17/17 20/20/20 18/18/18
f 20/20/20 21/21/21 18/18/18
f 19/19/19 22/22/22 20/20/20
f 22/22/22 23/23/23 20/20/20
f 20/20/20 23/23/23 21/21/21
f 23/23/23 24/24/24 21/21/21
f 22/22/22 25/25/25 23/23/23
f 25/25/25 26/26/26 23/23/23
f 23/23/23 26/26/26 24/24/24
f 26/26/26 27/27/27 24/24/24
f 25/25/25 28/28/28 26/26/26
f 28/28/28 29/29/29 26/26/26
f 26/26/26 29/29/29 27/27/27
f 29/29/29 30/30/30 27/27/27
f 28/28/28 31/31/31 29/29/29
f 31/31/31 32/32/32 29/29/29
f 29/29/29 32/32/32 30/30/30
f 32/32/32 33/33/33 30/30/30
f 31/31/31 34/34/34 32/32/32
f 34/34/34 35/35/35 32/32/32
f 32/32/32 35/35/35 33/33/33
f 35/35/35 36/36/36 33/33/33
f 34/34/34 37/37/37 35/35/35
f 37/37/37 38/38/38 35/35/35
f 35/35/35 38/38/38 36/36/36
f 38/38/38 39/39/39 36/36/36
f 37/37/37 40/40/40 38/38/38
f 40/40/40 41/41/41 38/38/38
f 38/38/38 41/41/41 39/39/39
f 41/41/41 42/42/42 39/39/39
f 40/40/40 43/43/43 41/41/41
f 43/43/43 44/44/44 41/41/41
f 41/41/41 44/44/44 42/42/42
f 44/44/44 45/45/45 42/42/42
f 43/43/43 46/46/46 44/44/44
f 46/46/46 47/47/47 44/44/44
f 44/44/44 47/47/47 45/45/45
f 47/47/47 48/48/48 45/45/45
f 46/46/46 49/49/49 47/47/47
f 49/49/49 50/50/50 47/47/47
f 47/47/47 50/50/50 48/48/48
f 50/50/50 51/51/51 48/48/48
f 49/49/49 52/52/52 50/50/50
f 52/52/52 53/53/53 50/50/50
f 50/50/50 53/53/53 51/51/51
f 53/53/53 54/54/54 51/51/51
f 52/52/52 55/55/55 53/53/53
f 55/55/55 56/56/56 53/53/53
f 53/53/53 56/56/56 54/54/54
f 56/56/56 57/57/57 54/54/54
f 55/55/55 58/58/58 56/56/56
f 58/58/58 59/59/59 56/56/56
f 56/56/56 59/59/59 57/57/57
f 59/59/59 60/60/60 57/57/57
f 58/58/58 61/61/61 59/59/59
f 61/61/61 62/62/62 59/59/59
f 59/59/59 62/62/62 60/60/60
f 62/62/62 63/63/63 60/60/60
f 61/61/61 64/64/64 62/62/62
f 64/64/64 65/65/65 62/62/62
f 62/62/62 65/65/65 63/63/63
f 65/65/65 66/66/66 63/63/63
f 64/64/64 67/67/67 65/65/65
f 67/67/67 68/68/68 65/65/65
f 65/65/65 68/68/68 66/66/66
f 68/68/68 69/69/69 66/66/66
f 67/67/67 70/70/70 68/68/68
f 70/70/70 71/71/71 68/68/68
f 68/68/68 71/71/71 69/69/69
f 71/71/71 72/72/72 69/69/69
f 70/70/70 73/73/73 71/71/71
f 73/73/73 74/74/74 71/71/71
f 71/71/71 74/74/74 72/72/72
f 74/74/74 75/75/75 72/72/72
f 73/73/73 76/76/76 74/74/74
f 76/76/76 77/77/77 74/74/74
f 74/74/74 77/77/77 75/75/75
f 77/77/77 78/78/78 75/75/75
f 76/76/76 79/79/79 77/77/77
f 79/79/79 80/80/80 77/77/77
f 77/77/77 80/80/80 78/78/78
f 80/80/80 81/81/81 78/78/78
f 79/79/79 82/82/82 80/80/80
f 82/82/82 83/83/83 80/80/80
f 80/80/80 83/83/83 81/81/81
f 83/83/83 84/84/84 81/81/81
f 82/82/82 85/85/85 83/83/83
f 85/85/85 86/86/86 83/83/83
f 83/83/83 86/86/86 84/84/84
f 86/86/86 87/87/87 84/84/84
f 85/85/85 88/88/88 86/86/86
f 88/88/88 89/89/89 86/86/86
f 86/86/86 89/89/89 87/87/87
f 89/89/89 90/90/90 87/87/87
f 88/88/88 91/91/91 89/89/89
f 91/91/91 92/92/92 89/89/89
f 89/89/89 92/92/92 90/90/90
f 92/92/92 93/93/93 90/90/90
f 91/91/91 94/94/94 92/92/92
f 94/94/94 95/95/95 92/92/92
f 92/92/92 95/95/95 93/93/93
f 95/95/95 96/96/96 93/93/93
f 94/94/94 97/97/97 95/95/95
f 97/97/97 98/98/98 95/95/95
f 95/95/95 98/98/98 96/96/96
f 98/98/98 99/99/99 96/96/96
f 97/97/97 100/100/100 98/98/98
f 100/100/100 101/101/101 98/98/98
f 98/98/98 101/101/101 99/99/99
f 101/101/101 102/102/102 99/99/99
f 100/100/100 103/103/103 101/101/101
f 103/103/103 104/104/104 101/101/101
f 101/101/101 104/104/104 102/102/102
f 104/104/104 105/105/105 102/102/102
f 103/103/103 106/106/106 104/104/104
f 106/106/106 107/107/107 104/104/104
f 104/104/104 107/107/107 105/105/105
f 107/107/107 108/108/108 105/105/105
f 106/106/106 109/109/109 107/107/107
f 109/109/109 110/110/110 107/107/107
f 107/107/107 110/110/110 108/108/108
f 110/110/110 111/111/111 108/108/108
f 109/109/109 112/112/112 110/110/110
f 112/112/112 113/113/113 110/110/110
f 110/110/110 113/113/113 111/111/111
f 113/113/113 114/114/114 111/111/111
f 112/112/112 115/115/115 113/113/113
f 115/115/115 116/116/116 113/113/113
f 113/113/113 116/116/116 114/114/114
f 116/116/116 117/117/117 114/114/114
f 115/115/115 118/118/118 116/116/116
f 118/118/118 119/119/119 116/116/116
f 116/116/116 119/119/119 117/117/117
f 119/119/119 120/120/120 117/117/117
f 118/118/118 121/121/121 119/119/119
f 121/121/121 122/122/122 119/119/119
f 119/119/119 122/122/122 120/120/120
f 122/122/122 123/123/123 120/120/120
f 121/121/121 124/124/124 122/122/122
f 124/124/124 125/125/125 122/122/122
f 122/122/122 125/125/125 123/123/123
f 125/125/125 126/126/126 123/123/123
f 124/124/124 127/127/127 125/125/125
f 127/127/127 128/128/128 125/125/125
f 125/125/125 128/128/128 126/126/126
f 128/128/128 129/129/129 126/126/126
f 127/127/127 130/130/130 128/128/128
f 130/130/130 131/131/131 128/128/128
f 128/128/128 131/131/131 129/129/129
f 131/131/131 132/132/132 129/129/129
f 130/130/130 133/133/133 131/131/131
f 133/133/133 134/134/134 131/131/131
f 131/131/131 134/134/134 132/132/132
f 134/134/134 135/135/135 132/132/132
f 133/133/133 136/136/136 134/134/134
f 136/136/136 137/137/137 134/134/134
f 134/134/134 137/137/137 135/135/135
f 137/137/137 138/138/138 135/135/135
f 136/136/136 139/139/139 137/137/137
f 139/139/139 140/140/140 137/137/137
f 137/137/137 140/140/140 138/138/138
f 140/140/140 141/141/141 138/138/138
f 139/139/139 142/142/142 140/140/140
f 142/142/142 143/143/143 140/140/140
f 140/140/140 143/143/143 141/141/141
f 143/143/143 144/144/144 141/141/141
f 142/142/142 145/145/145 143/143/143
f 145/145/145 146/146/146 143/143/143
f 143/143/143 146/146/146 144/144/144
f 146/146/146 147/147/147 144/144/144
f 145/145/145 148/148/148 146/146/146
f 148/148/148 149/149/149 146/146/146
f 146/146/146 149/149/149 147/147/147
f 149/149/149 150/150/150 147/147/147
f 148/148/148 151/151/151 149/149/149
f 151/151/151 152/152/152 149/149/149
f 149/149/149 152/152/152 150/150/150
f 152/152/152 153/153/153 150/150/150
f 151/151/151 154/154/154 152/152/152
f 154/154/154 155/155/155 152/152/152
f 152/152/152 155/155/155 153/153/153
f 155/155/155 156/156/156 153/153/153
f 154/154/154 157/157/157 155/155/155
f 157/157/157 158/158/158 155/155/155
f 155/155/155 158/158/158 156/156/156
f 158/158/158 159/159/159 156/156/156
f 157/157/157 160/160/160 158/158/158
f 160/160/160 161/161/161 158/158/158
f 158/158/158 161/161/161 159/159/159
f 161/161/161 162/162/162 159/159/159
f 160/160/160 163/163/163 161/161/161
f 163/163/163 164/164/164 161/161/161
f 161/161/161 164/164/164 162/162/162
f 164/164/164 165/165/165 162/162/162
f 163/163/163 166/166/166 164/164/164
f 166/166/166 167/167/167 164/164/164
f 164/164/164 167/167/167 165/165/165
f 167/167/167 168/168/168 165/165/165
f 166/166/166 169/169/169 167/167/167
f 169/169/169 170/170/170 167/167/167
f 167/167/167 170/170/170 168/168/168
f 170/170/170 171/171/171 168/168/168
f 169/169/169 172/172/172 170/170/170
f 172/172/172 173/173/173 170/170/170
f 170/170/170 173/173/173 171/171/171
f 173/173/173 174/174/174 171/171/171
f 172/172/172 175/175/175 173/173/173
f 175/175/175 176/176/176 173/173/173
f 173/173/173 176/176/176 174/174/174
f 176/176/176 177/177/177 174/174/174
f 175/175/175 178/178/178 176/176/176
f 178/178/178 179/179/179 176/176/176
f 176/176/176 179/179/179 177/177/177
f 179/179/179 180/180/180 177/177/177
f 178/178/178 181/181/181 179/179/179
f 181/181/181 182/182/182 179/179/179
f 179/179/179 182/182/182 180/180/180
f 182/182/182 183/183/183 180/180/180
f 181/181/181 184/184/184 182/182/182
f 184/184/184 185/185/185 182/182/182
f 182/182/182 185/185/185 183/183/183
f 185/185/185 186/186/186 183/183/183
f 184/184/184 187/187/187 185/185/185
f 187/187/187 188/188/188 185/185/185
f 185/185/185 188/188/188 186/186/186
f 188/188/188 189/189/189 186/186/186
f 187/187/187 190/190/190 188/188/188
f 190/190/190 191/191/191 188/188/188
f 188/188/188 191/191/191 189/189/189
f 191/191/191 192/192/192 189/189/189
f 190/190/190 193/193/193 191/191/191
f 193/193/193 194/194/194 191/191/191
f 191/191/191 194/194/194 192/192/192
f 194/194/194 195/195/195 192/192/192
