# studio VFX Rank Zero / Poing du Dragon, mesh genere (meshes.py)
v -0.93969 0.00000 -0.34202
v -0.93969 0.00000 -0.34202
v -0.93969 0.00000 -0.34202
v -0.93969 0.00000 -0.34202
v -0.93969 0.00000 -0.34202
v -0.95046 0.00000 -0.24580
v -0.95930 0.00000 -0.24809
v -0.96815 0.00000 -0.25038
v -0.97699 0.00000 -0.25267
v -0.98584 0.00000 -0.25496
v -0.95634 0.00000 -0.15147
v -0.97201 0.00000 -0.15395
v -0.98769 0.00000 -0.15643
v -1.00336 0.00000 -0.15892
v -1.01904 0.00000 -0.16140
v -0.95450 0.00000 -0.05838
v -0.97632 0.00000 -0.05971
v -0.99813 0.00000 -0.06105
v -1.01995 0.00000 -0.06238
v -1.04177 0.00000 -0.06372
v -0.94471 0.00000 0.03299
v -0.97205 0.00000 0.03394
v -0.99939 0.00000 0.03490
v -1.02673 0.00000 0.03585
v -1.05407 0.00000 0.03681
v -0.92708 0.00000 0.12205
v -0.95926 0.00000 0.12629
v -0.99144 0.00000 0.13053
v -1.02363 0.00000 0.13476
v -1.05581 0.00000 0.13900
v -0.90184 0.00000 0.20821
v -0.93811 0.00000 0.21658
v -0.97437 0.00000 0.22495
v -1.01063 0.00000 0.23332
v -1.04690 0.00000 0.24169
v -0.86934 0.00000 0.29088
v -0.90883 0.00000 0.30409
v -0.94832 0.00000 0.31730
v -0.98782 0.00000 0.33052
v -1.02731 0.00000 0.34373
v -0.82994 0.00000 0.36951
v -0.87174 0.00000 0.38812
v -0.91355 0.00000 0.40674
v -0.95535 0.00000 0.42535
v -0.99715 0.00000 0.44396
v -0.78409 0.00000 0.44361
v -0.82722 0.00000 0.46802
v -0.87036 0.00000 0.49242
v -0.91349 0.00000 0.51683
v -0.95663 0.00000 0.54123
v -0.73224 0.00000 0.51272
v -0.77570 0.00000 0.54315
v -0.81915 0.00000 0.57358
v -0.86261 0.00000 0.60400
v -0.90606 0.00000 0.63443
v -0.67490 0.00000 0.57642
v -0.71765 0.00000 0.61293
v -0.76041 0.00000 0.64945
v -0.80316 0.00000 0.68596
v -0.84591 0.00000 0.72248
v -0.61257 0.00000 0.63434
v -0.65362 0.00000 0.67684
v -0.69466 0.00000 0.71934
v -0.73570 0.00000 0.76184
v -0.77674 0.00000 0.80434
v -0.54580 0.00000 0.68616
v -0.58416 0.00000 0.73439
v -0.62251 0.00000 0.78261
v -0.66087 0.00000 0.83083
v -0.69923 0.00000 0.87905
v -0.47511 0.00000 0.73161
v -0.50988 0.00000 0.78514
v -0.54464 0.00000 0.83867
v -0.57940 0.00000 0.89220
v -0.61416 0.00000 0.94573
v -0.40107 0.00000 0.77045
v -0.43141 0.00000 0.82873
v -0.46175 0.00000 0.88701
v -0.49209 0.00000 0.94529
v -0.52243 0.00000 1.00357
v -0.32423 0.00000 0.80249
v -0.34942 0.00000 0.86483
v -0.37461 0.00000 0.92718
v -0.39980 0.00000 0.98953
v -0.42499 0.00000 1.05188
v -0.24513 0.00000 0.82756
v -0.26457 0.00000 0.89319
v -0.28402 0.00000 0.95882
v -0.30346 0.00000 1.02445
v -0.32290 0.00000 1.09008
v -0.16436 0.00000 0.84555
v -0.17758 0.00000 0.91359
v -0.19081 0.00000 0.98163
v -0.20403 0.00000 1.04966
v -0.21726 0.00000 1.11770
v -0.08246 0.00000 0.85638
v -0.08915 0.00000 0.92589
v -0.09585 0.00000 0.99540
v -0.10254 0.00000 1.06490
v -0.10923 0.00000 1.13441
v 0.00000 0.00000 0.86000
v 0.00000 0.00000 0.93000
v 0.00000 0.00000 1.00000
v 0.00000 0.00000 1.07000
v 0.00000 0.00000 1.14000
v 0.08246 0.00000 0.85638
v 0.08915 0.00000 0.92589
v 0.09585 0.00000 0.99540
v 0.10254 0.00000 1.06490
v 0.10923 0.00000 1.13441
v 0.16436 0.00000 0.84555
v 0.17758 0.00000 0.91359
v 0.19081 0.00000 0.98163
v 0.20403 0.00000 1.04966
v 0.21726 0.00000 1.11770
v 0.24513 0.00000 0.82756
v 0.26457 0.00000 0.89319
v 0.28402 0.00000 0.95882
v 0.30346 0.00000 1.02445
v 0.32290 0.00000 1.09008
v 0.32423 0.00000 0.80249
v 0.34942 0.00000 0.86483
v 0.37461 0.00000 0.92718
v 0.39980 0.00000 0.98953
v 0.42499 0.00000 1.05188
v 0.40107 0.00000 0.77045
v 0.43141 0.00000 0.82873
v 0.46175 0.00000 0.88701
v 0.49209 0.00000 0.94529
v 0.52243 0.00000 1.00357
v 0.47511 0.00000 0.73161
v 0.50988 0.00000 0.78514
v 0.54464 0.00000 0.83867
v 0.57940 0.00000 0.89220
v 0.61416 0.00000 0.94573
v 0.54580 0.00000 0.68616
v 0.58416 0.00000 0.73439
v 0.62251 0.00000 0.78261
v 0.66087 0.00000 0.83083
v 0.69923 0.00000 0.87905
v 0.61257 0.00000 0.63434
v 0.65362 0.00000 0.67684
v 0.69466 0.00000 0.71934
v 0.73570 0.00000 0.76184
v 0.77674 0.00000 0.80434
v 0.67490 0.00000 0.57642
v 0.71765 0.00000 0.61293
v 0.76041 0.00000 0.64945
v 0.80316 0.00000 0.68596
v 0.84591 0.00000 0.72248
v 0.73224 0.00000 0.51272
v 0.77570 0.00000 0.54315
v 0.81915 0.00000 0.57358
v 0.86261 0.00000 0.60400
v 0.90606 0.00000 0.63443
v 0.78409 0.00000 0.44361
v 0.82722 0.00000 0.46802
v 0.87036 0.00000 0.49242
v 0.91349 0.00000 0.51683
v 0.95663 0.00000 0.54123
v 0.82994 0.00000 0.36951
v 0.87174 0.00000 0.38812
v 0.91355 0.00000 0.40674
v 0.95535 0.00000 0.42535
v 0.99715 0.00000 0.44396
v 0.86934 0.00000 0.29088
v 0.90883 0.00000 0.30409
v 0.94832 0.00000 0.31730
v 0.98782 0.00000 0.33052
v 1.02731 0.00000 0.34373
v 0.90184 0.00000 0.20821
v 0.93811 0.00000 0.21658
v 0.97437 0.00000 0.22495
v 1.01063 0.00000 0.23332
v 1.04690 0.00000 0.24169
v 0.92708 0.00000 0.12205
v 0.95926 0.00000 0.12629
v 0.99144 0.00000 0.13053
v 1.02363 0.00000 0.13476
v 1.05581 0.00000 0.13900
v 0.94471 0.00000 0.03299
v 0.97205 0.00000 0.03394
v 0.99939 0.00000 0.03490
v 1.02673 0.00000 0.03585
v 1.05407 0.00000 0.03681
v 0.95450 0.00000 -0.05838
v 0.97632 0.00000 -0.05971
v 0.99813 0.00000 -0.06105
v 1.01995 0.00000 -0.06238
v 1.04177 0.00000 -0.06372
v 0.95634 0.00000 -0.15147
v 0.97201 0.00000 -0.15395
v 0.98769 0.00000 -0.15643
v 1.00336 0.00000 -0.15892
v 1.01904 0.00000 -0.16140
v 0.95046 0.00000 -0.24580
v 0.95930 0.00000 -0.24809
v 0.96815 0.00000 -0.25038
v 0.97699 0.00000 -0.25267
v 0.98584 0.00000 -0.25496
v 0.93969 0.00000 -0.34202
v 0.93969 0.00000 -0.34202
v 0.93969 0.00000 -0.34202
v 0.93969 0.00000 -0.34202
v 0.93969 0.00000 -0.34202
vt 0.00000 0.00000
vt 0.00000 0.25000
vt 0.00000 0.50000
vt 0.00000 0.75000
vt 0.00000 1.00000
vt 0.02500 0.00000
vt 0.02500 0.25000
vt 0.02500 0.50000
vt 0.02500 0.75000
vt 0.02500 1.00000
vt 0.05000 0.00000
vt 0.05000 0.25000
vt 0.05000 0.50000
vt 0.05000 0.75000
vt 0.05000 1.00000
vt 0.07500 0.00000
vt 0.07500 0.25000
vt 0.07500 0.50000
vt 0.07500 0.75000
vt 0.07500 1.00000
vt 0.10000 0.00000
vt 0.10000 0.25000
vt 0.10000 0.50000
vt 0.10000 0.75000
vt 0.10000 1.00000
vt 0.12500 0.00000
vt 0.12500 0.25000
vt 0.12500 0.50000
vt 0.12500 0.75000
vt 0.12500 1.00000
vt 0.15000 0.00000
vt 0.15000 0.25000
vt 0.15000 0.50000
vt 0.15000 0.75000
vt 0.15000 1.00000
vt 0.17500 0.00000
vt 0.17500 0.25000
vt 0.17500 0.50000
vt 0.17500 0.75000
vt 0.17500 1.00000
vt 0.20000 0.00000
vt 0.20000 0.25000
vt 0.20000 0.50000
vt 0.20000 0.75000
vt 0.20000 1.00000
vt 0.22500 0.00000
vt 0.22500 0.25000
vt 0.22500 0.50000
vt 0.22500 0.75000
vt 0.22500 1.00000
vt 0.25000 0.00000
vt 0.25000 0.25000
vt 0.25000 0.50000
vt 0.25000 0.75000
vt 0.25000 1.00000
vt 0.27500 0.00000
vt 0.27500 0.25000
vt 0.27500 0.50000
vt 0.27500 0.75000
vt 0.27500 1.00000
vt 0.30000 0.00000
vt 0.30000 0.25000
vt 0.30000 0.50000
vt 0.30000 0.75000
vt 0.30000 1.00000
vt 0.32500 0.00000
vt 0.32500 0.25000
vt 0.32500 0.50000
vt 0.32500 0.75000
vt 0.32500 1.00000
vt 0.35000 0.00000
vt 0.35000 0.25000
vt 0.35000 0.50000
vt 0.35000 0.75000
vt 0.35000 1.00000
vt 0.37500 0.00000
vt 0.37500 0.25000
vt 0.37500 0.50000
vt 0.37500 0.75000
vt 0.37500 1.00000
vt 0.40000 0.00000
vt 0.40000 0.25000
vt 0.40000 0.50000
vt 0.40000 0.75000
vt 0.40000 1.00000
vt 0.42500 0.00000
vt 0.42500 0.25000
vt 0.42500 0.50000
vt 0.42500 0.75000
vt 0.42500 1.00000
vt 0.45000 0.00000
vt 0.45000 0.25000
vt 0.45000 0.50000
vt 0.45000 0.75000
vt 0.45000 1.00000
vt 0.47500 0.00000
vt 0.47500 0.25000
vt 0.47500 0.50000
vt 0.47500 0.75000
vt 0.47500 1.00000
vt 0.50000 0.00000
vt 0.50000 0.25000
vt 0.50000 0.50000
vt 0.50000 0.75000
vt 0.50000 1.00000
vt 0.52500 0.00000
vt 0.52500 0.25000
vt 0.52500 0.50000
vt 0.52500 0.75000
vt 0.52500 1.00000
vt 0.55000 0.00000
vt 0.55000 0.25000
vt 0.55000 0.50000
vt 0.55000 0.75000
vt 0.55000 1.00000
vt 0.57500 0.00000
vt 0.57500 0.25000
vt 0.57500 0.50000
vt 0.57500 0.75000
vt 0.57500 1.00000
vt 0.60000 0.00000
vt 0.60000 0.25000
vt 0.60000 0.50000
vt 0.60000 0.75000
vt 0.60000 1.00000
vt 0.62500 0.00000
vt 0.62500 0.25000
vt 0.62500 0.50000
vt 0.62500 0.75000
vt 0.62500 1.00000
vt 0.65000 0.00000
vt 0.65000 0.25000
vt 0.65000 0.50000
vt 0.65000 0.75000
vt 0.65000 1.00000
vt 0.67500 0.00000
vt 0.67500 0.25000
vt 0.67500 0.50000
vt 0.67500 0.75000
vt 0.67500 1.00000
vt 0.70000 0.00000
vt 0.70000 0.25000
vt 0.70000 0.50000
vt 0.70000 0.75000
vt 0.70000 1.00000
vt 0.72500 0.00000
vt 0.72500 0.25000
vt 0.72500 0.50000
vt 0.72500 0.75000
vt 0.72500 1.00000
vt 0.75000 0.00000
vt 0.75000 0.25000
vt 0.75000 0.50000
vt 0.75000 0.75000
vt 0.75000 1.00000
vt 0.77500 0.00000
vt 0.77500 0.25000
vt 0.77500 0.50000
vt 0.77500 0.75000
vt 0.77500 1.00000
vt 0.80000 0.00000
vt 0.80000 0.25000
vt 0.80000 0.50000
vt 0.80000 0.75000
vt 0.80000 1.00000
vt 0.82500 0.00000
vt 0.82500 0.25000
vt 0.82500 0.50000
vt 0.82500 0.75000
vt 0.82500 1.00000
vt 0.85000 0.00000
vt 0.85000 0.25000
vt 0.85000 0.50000
vt 0.85000 0.75000
vt 0.85000 1.00000
vt 0.87500 0.00000
vt 0.87500 0.25000
vt 0.87500 0.50000
vt 0.87500 0.75000
vt 0.87500 1.00000
vt 0.90000 0.00000
vt 0.90000 0.25000
vt 0.90000 0.50000
vt 0.90000 0.75000
vt 0.90000 1.00000
vt 0.92500 0.00000
vt 0.92500 0.25000
vt 0.92500 0.50000
vt 0.92500 0.75000
vt 0.92500 1.00000
vt 0.95000 0.00000
vt 0.95000 0.25000
vt 0.95000 0.50000
vt 0.95000 0.75000
vt 0.95000 1.00000
vt 0.97500 0.00000
vt 0.97500 0.25000
vt 0.97500 0.50000
vt 0.97500 0.75000
vt 0.97500 1.00000
vt 1.00000 0.00000
vt 1.00000 0.25000
vt 1.00000 0.50000
vt 1.00000 0.75000
vt 1.00000 1.00000
vn 0.00000 0.00000 -0.00000
vn 0.00000 0.00000 -0.00000
vn 0.00000 0.00000 -0.00000
vn 0.00000 0.00000 -0.00000
vn 0.00000 0.00000 -0.00000
vn -0.00000 -1.00000 0.00000
vn -0.00000 -1.00000 0.00000
vn -0.00000 -1.00000 0.00000
vn -0.00000 -1.00000 0.00000
vn -0.00000 -1.00000 0.00000
vn -0.00000 -1.00000 0.00000
vn -0.00000 -1.00000 0.00000
vn -0.00000 -1.00000 0.00000
vn -0.00000 -1.00000 0.00000
vn -0.00000 -1.00000 0.00000
vn -0.00000 -1.00000 0.00000
vn -0.00000 -1.00000 0.00000
vn -0.00000 -1.00000 0.00000
vn -0.00000 -1.00000 0.00000
vn -0.00000 -1.00000 0.00000
vn 0.00000 -1.00000 0.00000
vn 0.00000 -1.00000 0.00000
vn 0.00000 -1.00000 0.00000
vn 0.00000 -1.00000 0.00000
vn 0.00000 -1.00000 0.00000
vn 0.00000 -1.00000 0.00000
vn 0.00000 -1.00000 0.00000
vn 0.00000 -1.00000 0.00000
vn 0.00000 -1.00000 0.00000
vn 0.00000 -1.00000 0.00000
vn 0.00000 -1.00000 0.00000
vn 0.00000 -1.00000 0.00000
vn 0.00000 -1.00000 0.00000
vn 0.00000 -1.00000 0.00000
vn 0.00000 -1.00000 0.00000
vn 0.00000 -1.00000 0.00000
vn 0.00000 -1.00000 0.00000
vn 0.00000 -1.00000 0.00000
vn 0.00000 -1.00000 0.00000
vn 0.00000 -1.00000 0.00000
vn 0.00000 -1.00000 0.00000
vn 0.00000 -1.00000 0.00000
vn 0.00000 -1.00000 0.00000
vn 0.00000 -1.00000 0.00000
vn 0.00000 -1.00000 0.00000
vn 0.00000 -1.00000 0.00000
vn 0.00000 -1.00000 0.00000
vn 0.00000 -1.00000 0.00000
vn 0.00000 -1.00000 0.00000
vn 0.00000 -1.00000 0.00000
vn 0.00000 -1.00000 0.00000
vn 0.00000 -1.00000 0.00000
vn 0.00000 -1.00000 0.00000
vn 0.00000 -1.00000 0.00000
vn 0.00000 -1.00000 0.00000
vn 0.00000 -1.00000 0.00000
vn 0.00000 -1.00000 0.00000
vn 0.00000 -1.00000 0.00000
vn 0.00000 -1.00000 0.00000
vn 0.00000 -1.00000 0.00000
vn 0.00000 -1.00000 0.00000
vn 0.00000 -1.00000 0.00000
vn 0.00000 -1.00000 0.00000
vn 0.00000 -1.00000 0.00000
vn 0.00000 -1.00000 0.00000
vn 0.00000 -1.00000 0.00000
vn 0.00000 -1.00000 0.00000
vn 0.00000 -1.00000 0.00000
vn 0.00000 -1.00000 0.00000
vn 0.00000 -1.00000 0.00000
vn 0.00000 -1.00000 0.00000
vn 0.00000 -1.00000 0.00000
vn 0.00000 -1.00000 0.00000
vn 0.00000 -1.00000 0.00000
vn 0.00000 -1.00000 0.00000
vn 0.00000 -1.00000 0.00000
vn 0.00000 -1.00000 0.00000
vn 0.00000 -1.00000 0.00000
vn 0.00000 -1.00000 0.00000
vn 0.00000 -1.00000 0.00000
vn 0.00000 -1.00000 0.00000
vn 0.00000 -1.00000 0.00000
vn 0.00000 -1.00000 0.00000
vn 0.00000 -1.00000 0.00000
vn 0.00000 -1.00000 0.00000
vn 0.00000 -1.00000 0.00000
vn 0.00000 -1.00000 0.00000
vn 0.00000 -1.00000 0.00000
vn 0.00000 -1.00000 0.00000
vn 0.00000 -1.00000 0.00000
vn 0.00000 -1.00000 0.00000
vn 0.00000 -1.00000 0.00000
vn 0.00000 -1.00000 0.00000
vn 0.00000 -1.00000 0.00000
vn 0.00000 -1.00000 0.00000
vn 0.00000 -1.00000 0.00000
vn 0.00000 -1.00000 0.00000
vn 0.00000 -1.00000 0.00000
vn 0.00000 -1.00000 0.00000
vn 0.00000 -1.00000 0.00000
vn 0.00000 -1.00000 0.00000
vn 0.00000 -1.00000 0.00000
vn 0.00000 -1.00000 0.00000
vn 0.00000 -1.00000 0.00000
vn 0.00000 -1.00000 0.00000
vn 0.00000 -1.00000 0.00000
vn 0.00000 -1.00000 0.00000
vn 0.00000 -1.00000 0.00000
vn 0.00000 -1.00000 0.00000
vn 0.00000 -1.00000 0.00000
vn 0.00000 -1.00000 0.00000
vn 0.00000 -1.00000 0.00000
vn 0.00000 -1.00000 0.00000
vn 0.00000 -1.00000 0.00000
vn 0.00000 -1.00000 0.00000
vn 0.00000 -1.00000 0.00000
vn 0.00000 -1.00000 0.00000
vn 0.00000 -1.00000 0.00000
vn 0.00000 -1.00000 0.00000
vn 0.00000 -1.00000 0.00000
vn 0.00000 -1.00000 0.00000
vn 0.00000 -1.00000 0.00000
vn 0.00000 -1.00000 0.00000
vn 0.00000 -1.00000 0.00000
vn 0.00000 -1.00000 0.00000
vn 0.00000 -1.00000 0.00000
vn 0.00000 -1.00000 0.00000
vn 0.00000 -1.00000 0.00000
vn 0.00000 -1.00000 0.00000
vn 0.00000 -1.00000 0.00000
vn 0.00000 -1.00000 0.00000
vn 0.00000 -1.00000 0.00000
vn 0.00000 -1.00000 0.00000
vn 0.00000 -1.00000 0.00000
vn 0.00000 -1.00000 0.00000
vn 0.00000 -1.00000 0.00000
vn 0.00000 -1.00000 0.00000
vn 0.00000 -1.00000 0.00000
vn 0.00000 -1.00000 0.00000
vn 0.00000 -1.00000 0.00000
vn 0.00000 -1.00000 0.00000
vn 0.00000 -1.00000 0.00000
vn 0.00000 -1.00000 0.00000
vn 0.00000 -1.00000 0.00000
vn 0.00000 -1.00000 0.00000
vn 0.00000 -1.00000 0.00000
vn 0.00000 -1.00000 0.00000
vn 0.00000 -1.00000 0.00000
vn 0.00000 -1.00000 0.00000
vn 0.00000 -1.00000 0.00000
vn 0.00000 -1.00000 0.00000
vn 0.00000 -1.00000 0.00000
vn 0.00000 -1.00000 0.00000
vn 0.00000 -1.00000 0.00000
vn 0.00000 -1.00000 0.00000
vn 0.00000 -1.00000 0.00000
vn 0.00000 -1.00000 0.00000
vn 0.00000 -1.00000 0.00000
vn 0.00000 -1.00000 0.00000
vn 0.00000 -1.00000 0.00000
vn 0.00000 -1.00000 0.00000
vn 0.00000 -1.00000 0.00000
vn 0.00000 -1.00000 0.00000
vn 0.00000 -1.00000 0.00000
vn 0.00000 -1.00000 0.00000
vn 0.00000 -1.00000 0.00000
vn 0.00000 -1.00000 0.00000
vn 0.00000 -1.00000 0.00000
vn 0.00000 -1.00000 0.00000
vn 0.00000 -1.00000 0.00000
vn 0.00000 -1.00000 0.00000
vn 0.00000 -1.00000 0.00000
vn 0.00000 -1.00000 0.00000
vn 0.00000 -1.00000 0.00000
vn 0.00000 -1.00000 0.00000
vn 0.00000 -1.00000 0.00000
vn 0.00000 -1.00000 0.00000
vn 0.00000 -1.00000 0.00000
vn 0.00000 -1.00000 0.00000
vn 0.00000 -1.00000 0.00000
vn 0.00000 -1.00000 0.00000
vn 0.00000 -1.00000 0.00000
vn 0.00000 -1.00000 0.00000
vn 0.00000 -1.00000 -0.00000
vn 0.00000 -1.00000 -0.00000
vn 0.00000 -1.00000 0.00000
vn 0.00000 -1.00000 -0.00000
vn 0.00000 -1.00000 -0.00000
vn 0.00000 -1.00000 -0.00000
vn 0.00000 -1.00000 -0.00000
vn 0.00000 -1.00000 -0.00000
vn 0.00000 -1.00000 -0.00000
vn 0.00000 -1.00000 -0.00000
vn 0.00000 -1.00000 -0.00000
vn 0.00000 -1.00000 -0.00000
vn 0.00000 -1.00000 -0.00000
vn 0.00000 -1.00000 -0.00000
vn 0.00000 -1.00000 -0.00000
vn 0.00000 -1.00000 -0.00000
vn 0.00000 -1.00000 -0.00000
vn 0.00000 -0.00000 -0.00000
vn 0.00000 -0.00000 -0.00000
vn 0.00000 -0.00000 -0.00000
vn 0.00000 -0.00000 -0.00000
vn 0.00000 -0.00000 -0.00000
f 1/1/1 6/6/6 2/2/2
f 6/6/6 7/7/7 2/2/2
f 2/2/2 7/7/7 3/3/3
f 7/7/7 8/8/8 3/3/3
f 3/3/3 8/8/8 4/4/4
f 8/8/8 9/9/9 4/4/4
f 4/4/4 9/9/9 5/5/5
f 9/9/9 10/10/10 5/5/5
f 6/6/6 11/11/11 7/7/7
f 11/11/11 12/12/12 7/7/7
f 7/7/7 12/12/12 8/8/8
f 12/12/12 13/13/13 8/8/8
f 8/8/8 13/13/13 9/9/9
f 13/13/13 14/14/14 9/9/9
f 9/9/9 14/14/14 10/10/10
f 14/14/14 15/15/15 10/10/10
f 11/11/11 16/16/16 12/12/12
f 16/16/16 17/17/17 12/12/12
f 12/12/12 17/17/17 13/13/13
f 17/17/17 18/18/18 13/13/13
f 13/13/13 18/18/18 14/14/14
f 18/18/18 19/19/19 14/14/14
f 14/14/14 19/19/19 15/15/15
f 19/19/19 20/20/20 15/15/15
f 16/16/16 21/21/21 17/17/17
f 21/21/21 22/22/22 17/17/17
f 17/17/17 22/22/22 18/18/18
f 22/22/22 23/23/23 18/18/18
f 18/18/18 23/23/23 19/19/19
f 23/23/23 24/24/24 19/19/19
f 19/19/19 24/24/24 20/20/20
f 24/24/24 25/25/25 20/20/20
f 21/21/21 26/26/26 22/22/22
f 26/26/26 27/27/27 22/22/22
f 22/22/22 27/27/27 23/23/23
f 27/27/27 28/28/28 23/23/23
f 23/23/23 28/28/28 24/24/24
f 28/28/28 29/29/29 24/24/24
f 24/24/24 29/29/29 25/25/25
f 29/29/29 30/30/30 25/25/25
f 26/26/26 31/31/31 27/27/27
f 31/31/31 32/32/32 27/27/27
f 27/27/27 32/32/32 28/28/28
f 32/32/32 33/33/33 28/28/28
f 28/28/28 33/33/33 29/29/29
f 33/33/33 34/34/34 29/29/29
f 29/29/29 34/34/34 30/30/30
f 34/34/34 35/35/35 30/30/30
f 31/31/31 36/36/36 32/32/32
f 36/36/36 37/37/37 32/32/32
f 32/32/32 37/37/37 33/33/33
f 37/37/37 38/38/38 33/33/33
f 33/33/33 38/38/38 34/34/34
f 38/38/38 39/39/39 34/34/34
f 34/34/34 39/39/39 35/35/35
f 39/39/39 40/40/40 35/35/35
f 36/36/36 41/41/41 37/37/37
f 41/41/41 42/42/42 37/37/37
f 37/37/37 42/42/42 38/38/38
f 42/42/42 43/43/43 38/38/38
f 38/38/38 43/43/43 39/39/39
f 43/43/43 44/44/44 39/39/39
f 39/39/39 44/44/44 40/40/40
f 44/44/44 45/45/45 40/40/40
f 41/41/41 46/46/46 42/42/42
f 46/46/46 47/47/47 42/42/42
f 42/42/42 47/47/47 43/43/43
f 47/47/47 48/48/48 43/43/43
f 43/43/43 48/48/48 44/44/44
f 48/48/48 49/49/49 44/44/44
f 44/44/44 49/49/49 45/45/45
f 49/49/49 50/50/50 45/45/45
f 46/46/46 51/51/51 47/47/47
f 51/51/51 52/52/52 47/47/47
f 47/47/47 52/52/52 48/48/48
f 52/52/52 53/53/53 48/48/48
f 48/48/48 53/53/53 49/49/49
f 53/53/53 54/54/54 49/49/49
f 49/49/49 54/54/54 50/50/50
f 54/54/54 55/55/55 50/50/50
f 51/51/51 56/56/56 52/52/52
f 56/56/56 57/57/57 52/52/52
f 52/52/52 57/57/57 53/53/53
f 57/57/57 58/58/58 53/53/53
f 53/53/53 58/58/58 54/54/54
f 58/58/58 59/59/59 54/54/54
f 54/54/54 59/59/59 55/55/55
f 59/59/59 60/60/60 55/55/55
f 56/56/56 61/61/61 57/57/57
f 61/61/61 62/62/62 57/57/57
f 57/57/57 62/62/62 58/58/58
f 62/62/62 63/63/63 58/58/58
f 58/58/58 63/63/63 59/59/59
f 63/63/63 64/64/64 59/59/59
f 59/59/59 64/64/64 60/60/60
f 64/64/64 65/65/65 60/60/60
f 61/61/61 66/66/66 62/62/62
f 66/66/66 67/67/67 62/62/62
f 62/62/62 67/67/67 63/63/63
f 67/67/67 68/68/68 63/63/63
f 63/63/63 68/68/68 64/64/64
f 68/68/68 69/69/69 64/64/64
f 64/64/64 69/69/69 65/65/65
f 69/69/69 70/70/70 65/65/65
f 66/66/66 71/71/71 67/67/67
f 71/71/71 72/72/72 67/67/67
f 67/67/67 72/72/72 68/68/68
f 72/72/72 73/73/73 68/68/68
f 68/68/68 73/73/73 69/69/69
f 73/73/73 74/74/74 69/69/69
f 69/69/69 74/74/74 70/70/70
f 74/74/74 75/75/75 70/70/70
f 71/71/71 76/76/76 72/72/72
f 76/76/76 77/77/77 72/72/72
f 72/72/72 77/77/77 73/73/73
f 77/77/77 78/78/78 73/73/73
f 73/73/73 78/78/78 74/74/74
f 78/78/78 79/79/79 74/74/74
f 74/74/74 79/79/79 75/75/75
f 79/79/79 80/80/80 75/75/75
f 76/76/76 81/81/81 77/77/77
f 81/81/81 82/82/82 77/77/77
f 77/77/77 82/82/82 78/78/78
f 82/82/82 83/83/83 78/78/78
f 78/78/78 83/83/83 79/79/79
f 83/83/83 84/84/84 79/79/79
f 79/79/79 84/84/84 80/80/80
f 84/84/84 85/85/85 80/80/80
f 81/81/81 86/86/86 82/82/82
f 86/86/86 87/87/87 82/82/82
f 82/82/82 87/87/87 83/83/83
f 87/87/87 88/88/88 83/83/83
f 83/83/83 88/88/88 84/84/84
f 88/88/88 89/89/89 84/84/84
f 84/84/84 89/89/89 85/85/85
f 89/89/89 90/90/90 85/85/85
f 86/86/86 91/91/91 87/87/87
f 91/91/91 92/92/92 87/87/87
f 87/87/87 92/92/92 88/88/88
f 92/92/92 93/93/93 88/88/88
f 88/88/88 93/93/93 89/89/89
f 93/93/93 94/94/94 89/89/89
f 89/89/89 94/94/94 90/90/90
f 94/94/94 95/95/95 90/90/90
f 91/91/91 96/96/96 92/92/92
f 96/96/96 97/97/97 92/92/92
f 92/92/92 97/97/97 93/93/93
f 97/97/97 98/98/98 93/93/93
f 93/93/93 98/98/98 94/94/94
f 98/98/98 99/99/99 94/94/94
f 94/94/94 99/99/99 95/95/95
f 99/99/99 100/100/100 95/95/95
f 96/96/96 101/101/101 97/97/97
f 101/101/101 102/102/102 97/97/97
f 97/97/97 102/102/102 98/98/98
f 102/102/102 103/103/103 98/98/98
f 98/98/98 103/103/103 99/99/99
f 103/103/103 104/104/104 99/99/99
f 99/99/99 104/104/104 100/100/100
f 104/104/104 105/105/105 100/100/100
f 101/101/101 106/106/106 102/102/102
f 106/106/106 107/107/107 102/102/102
f 102/102/102 107/107/107 103/103/103
f 107/107/107 108/108/108 103/103/103
f 103/103/103 108/108/108 104/104/104
f 108/108/108 109/109/109 104/104/104
f 104/104/104 109/109/109 105/105/105
f 109/109/109 110/110/110 105/105/105
f 106/106/106 111/111/111 107/107/107
f 111/111/111 112/112/112 107/107/107
f 107/107/107 112/112/112 108/108/108
f 112/112/112 113/113/113 108/108/108
f 108/108/108 113/113/113 109/109/109
f 113/113/113 114/114/114 109/109/109
f 109/109/109 114/114/114 110/110/110
f 114/114/114 115/115/115 110/110/110
f 111/111/111 116/116/116 112/112/112
f 116/116/116 117/117/117 112/112/112
f 112/112/112 117/117/117 113/113/113
f 117/117/117 118/118/118 113/113/113
f 113/113/113 118/118/118 114/114/114
f 118/118/118 119/119/119 114/114/114
f 114/114/114 119/119/119 115/115/115
f 119/119/119 120/120/120 115/115/115
f 116/116/116 121/121/121 117/117/117
f 121/121/121 122/122/122 117/117/117
f 117/117/117 122/122/122 118/118/118
f 122/122/122 123/123/123 118/118/118
f 118/118/118 123/123/123 119/119/119
f 123/123/123 124/124/124 119/119/119
f 119/119/119 124/124/124 120/120/120
f 124/124/124 125/125/125 120/120/120
f 121/121/121 126/126/126 122/122/122
f 126/126/126 127/127/127 122/122/122
f 122/122/122 127/127/127 123/123/123
f 127/127/127 128/128/128 123/123/123
f 123/123/123 128/128/128 124/124/124
f 128/128/128 129/129/129 124/124/124
f 124/124/124 129/129/129 125/125/125
f 129/129/129 130/130/130 125/125/125
f 126/126/126 131/131/131 127/127/127
f 131/131/131 132/132/132 127/127/127
f 127/127/127 132/132/132 128/128/128
f 132/132/132 133/133/133 128/128/128
f 128/128/128 133/133/133 129/129/129
f 133/133/133 134/134/134 129/129/129
f 129/129/129 134/134/134 130/130/130
f 134/134/134 135/135/135 130/130/130
f 131/131/131 136/136/136 132/132/132
f 136/136/136 137/137/137 132/132/132
f 132/132/132 137/137/137 133/133/133
f 137/137/137 138/138/138 133/133/133
f 133/133/133 138/138/138 134/134/134
f 138/138/138 139/139/139 134/134/134
f 134/134/134 139/139/139 135/135/135
f 139/139/139 140/140/140 135/135/135
f 136/136/136 141/141/141 137/137/137
f 141/141/141 142/142/142 137/137/137
f 137/137/137 142/142/142 138/138/138
f 142/142/142 143/143/143 138/138/138
f 138/138/138 143/143/143 139/139/139
f 143/143/143 144/144/144 139/139/139
f 139/139/139 144/144/144 140/140/140
f 144/144/144 145/145/145 140/140/140
f 141/141/141 146/146/146 142/142/142
f 146/146/146 147/147/147 142/142/142
f 142/142/142 147/147/147 143/143/143
f 147/147/147 148/148/148 143/143/143
f 143/143/143 148/148/148 144/144/144
f 148/148/148 149/149/149 144/144/144
f 144/144/144 149/149/149 145/145/145
f 149/149/149 150/150/150 145/145/145
f 146/146/146 151/151/151 147/147/147
f 151/151/151 152/152/152 147/147/147
f 147/147/147 152/152/152 148/148/148
f 152/152/152 153/153/153 148/148/148
f 148/148/148 153/153/153 149/149/149
f 153/153/153 154/154/154 149/149/149
f 149/149/149 154/154/154 150/150/150
f 154/154/154 155/155/155 150/150/150
f 151/151/151 156/156/156 152/152/152
f 156/156/156 157/157/157 152/152/152
f 152/152/152 157/157/157 153/153/153
f 157/157/157 158/158/158 153/153/153
f 153/153/153 158/158/158 154/154/154
f 158/158/158 159/159/159 154/154/154
f 154/154/154 159/159/159 155/155/155
f 159/159/159 160/160/160 155/155/155
f 156/156/156 161/161/161 157/157/157
f 161/161/161 162/162/162 157/157/157
f 157/157/157 162/162/162 158/158/158
f 162/162/162 163/163/163 158/158/158
f 158/158/158 163/163/163 159/159/159
f 163/163/163 164/164/164 159/159/159
f 159/159/159 164/164/164 160/160/160
f 164/164/164 165/165/165 160/160/160
f 161/161/161 166/166/166 162/162/162
f 166/166/166 167/167/167 162/162/162
f 162/162/162 167/167/167 163/163/163
f 167/167/167 168/168/168 163/163/163
f 163/163/163 168/168/168 164/164/164
f 168/168/168 169/169/169 164/164/164
f 164/164/164 169/169/169 165/165/165
f 169/169/169 170/170/170 165/165/165
f 166/166/166 171/171/171 167/167/167
f 171/171/171 172/172/172 167/167/167
f 167/167/167 172/172/172 168/168/168
f 172/172/172 173/173/173 168/168/168
f 168/168/168 173/173/173 169/169/169
f 173/173/173 174/174/174 169/169/169
f 169/169/169 174/174/174 170/170/170
f 174/174/174 175/175/175 170/170/170
f 171/171/171 176/176/176 172/172/172
f 176/176/176 177/177/177 172/172/172
f 172/172/172 177/177/177 173/173/173
f 177/177/177 178/178/178 173/173/173
f 173/173/173 178/178/178 174/174/174
f 178/178/178 179/179/179 174/174/174
f 174/174/174 179/179/179 175/175/175
f 179/179/179 180/180/180 175/175/175
f 176/176/176 181/181/181 177/177/177
f 181/181/181 182/182/182 177/177/177
f 177/177/177 182/182/182 178/178/178
f 182/182/182 183/183/183 178/178/178
f 178/178/178 183/183/183 179/179/179
f 183/183/183 184/184/184 179/179/179
f 179/179/179 184/184/184 180/180/180
f 184/184/184 185/185/185 180/180/180
f 181/181/181 186/186/186 182/182/182
f 186/186/186 187/187/187 182/182/182
f 182/182/182 187/187/187 183/183/183
f 187/187/187 188/188/188 183/183/183
f 183/183/183 188/188/188 184/184/184
f 188/188/188 189/189/189 184/184/184
f 184/184/184 189/189/189 185/185/185
f 189/189/189 190/190/190 185/185/185
f 186/186/186 191/191/191 187/187/187
f 191/191/191 192/192/192 187/187/187
f 187/187/187 192/192/192 188/188/188
f 192/192/192 193/193/193 188/188/188
f 188/188/188 193/193/193 189/189/189
f 193/193/193 194/194/194 189/189/189
f 189/189/189 194/194/194 190/190/190
f 194/194/194 195/195/195 190/190/190
f 191/191/191 196/196/196 192/192/192
f 196/196/196 197/197/197 192/192/192
f 192/192/192 197/197/197 193/193/193
f 197/197/197 198/198/198 193/193/193
f 193/193/193 198/198/198 194/194/194
f 198/198/198 199/199/199 194/194/194
f 194/194/194 199/199/199 195/195/195
f 199/199/199 200/200/200 195/195/195
f 196/196/196 201/201/201 197/197/197
f 201/201/201 202/202/202 197/197/197
f 197/197/197 202/202/202 198/198/198
f 202/202/202 203/203/203 198/198/198
f 198/198/198 203/203/203 199/199/199
f 203/203/203 204/204/204 199/199/199
f 199/199/199 204/204/204 200/200/200
f 204/204/204 205/205/205 200/200/200
