# studio VFX Rank Zero / Poing du Dragon, mesh genere (meshes.py)
v -0.25000 0.00000 0.00000
v 0.00000 0.00000 0.00000
v 0.25000 0.00000 0.00000
v -0.25000 0.06250 0.00137
v 0.00000 0.06250 0.00137
v 0.25000 0.06250 0.00137
v -0.25000 0.12500 0.00547
v 0.00000 0.12500 0.00547
v 0.25000 0.12500 0.00547
v -0.25000 0.18750 0.01230
v 0.00000 0.18750 0.01230
v 0.25000 0.18750 0.01230
v -0.25000 0.25000 0.02187
v 0.00000 0.25000 0.02187
v 0.25000 0.25000 0.02187
v -0.25000 0.31250 0.03418
v 0.00000 0.31250 0.03418
v 0.25000 0.31250 0.03418
v -0.25000 0.37500 0.04922
v 0.00000 0.37500 0.04922
v 0.25000 0.37500 0.04922
v -0.25000 0.43750 0.06699
v 0.00000 0.43750 0.06699
v 0.25000 0.43750 0.06699
v -0.25000 0.50000 0.08750
v 0.00000 0.50000 0.08750
v 0.25000 0.50000 0.08750
v -0.25000 0.56250 0.11074
v 0.00000 0.56250 0.11074
v 0.25000 0.56250 0.11074
v -0.25000 0.62500 0.13672
v 0.00000 0.62500 0.13672
v 0.25000 0.62500 0.13672
v -0.25000 0.68750 0.16543
v 0.00000 0.68750 0.16543
v 0.25000 0.68750 0.16543
v -0.25000 0.75000 0.19687
v 0.00000 0.75000 0.19687
v 0.25000 0.75000 0.19687
v -0.25000 0.81250 0.23105
v 0.00000 0.81250 0.23105
v 0.25000 0.81250 0.23105
v -0.25000 0.87500 0.26797
v 0.00000 0.87500 0.26797
v 0.25000 0.87500 0.26797
v -0.25000 0.93750 0.30762
v 0.00000 0.93750 0.30762
v 0.25000 0.93750 0.30762
v -0.25000 1.00000 0.35000
v 0.00000 1.00000 0.35000
v 0.25000 1.00000 0.35000
v 0.00000 0.00000 -0.25000
v 0.00000 0.00000 0.00000
v 0.00000 0.00000 0.25000
v 0.00000 0.06250 -0.24863
v 0.00000 0.06250 0.00137
v 0.00000 0.06250 0.25137
v 0.00000 0.12500 -0.24453
v 0.00000 0.12500 0.00547
v 0.00000 0.12500 0.25547
v 0.00000 0.18750 -0.23770
v 0.00000 0.18750 0.01230
v 0.00000 0.18750 0.26230
v 0.00000 0.25000 -0.22812
v 0.00000 0.25000 0.02187
v 0.00000 0.25000 0.27187
v 0.00000 0.31250 -0.21582
v 0.00000 0.31250 0.03418
v 0.00000 0.31250 0.28418
v 0.00000 0.37500 -0.20078
v 0.00000 0.37500 0.04922
v 0.00000 0.37500 0.29922
v 0.00000 0.43750 -0.18301
v 0.00000 0.43750 0.06699
v 0.00000 0.43750 0.31699
v 0.00000 0.50000 -0.16250
v 0.00000 0.50000 0.08750
v 0.00000 0.50000 0.33750
v 0.00000 0.56250 -0.13926
v 0.00000 0.56250 0.11074
v 0.00000 0.56250 0.36074
v 0.00000 0.62500 -0.11328
v 0.00000 0.62500 0.13672
v 0.00000 0.62500 0.38672
v 0.00000 0.68750 -0.08457
v 0.00000 0.68750 0.16543
v 0.00000 0.68750 0.41543
v 0.00000 0.75000 -0.05313
v 0.00000 0.75000 0.19687
v 0.00000 0.75000 0.44687
v 0.00000 0.81250 -0.01895
v 0.00000 0.81250 0.23105
v 0.00000 0.81250 0.48105
v 0.00000 0.87500 0.01797
v 0.00000 0.87500 0.26797
v 0.00000 0.87500 0.51797
v 0.00000 0.93750 0.05762
v 0.00000 0.93750 0.30762
v 0.00000 0.93750 0.55762
v 0.00000 1.00000 0.10000
v 0.00000 1.00000 0.35000
v 0.00000 1.00000 0.60000
vt 0.00000 0.00000
vt 0.00000 0.50000
vt 0.00000 1.00000
vt 0.06250 0.00000
vt 0.06250 0.50000
vt 0.06250 1.00000
vt 0.12500 0.00000
vt 0.12500 0.50000
vt 0.12500 1.00000
vt 0.18750 0.00000
vt 0.18750 0.50000
vt 0.18750 1.00000
vt 0.25000 0.00000
vt 0.25000 0.50000
vt 0.25000 1.00000
vt 0.31250 0.00000
vt 0.31250 0.50000
vt 0.31250 1.00000
vt 0.37500 0.00000
vt 0.37500 0.50000
vt 0.37500 1.00000
vt 0.43750 0.00000
vt 0.43750 0.50000
vt 0.43750 1.00000
vt 0.50000 0.00000
vt 0.50000 0.50000
vt 0.50000 1.00000
vt 0.56250 0.00000
vt 0.56250 0.50000
vt 0.56250 1.00000
vt 0.62500 0.00000
vt 0.62500 0.50000
vt 0.62500 1.00000
vt 0.68750 0.00000
vt 0.68750 0.50000
vt 0.68750 1.00000
vt 0.75000 0.00000
vt 0.75000 0.50000
vt 0.75000 1.00000
vt 0.81250 0.00000
vt 0.81250 0.50000
vt 0.81250 1.00000
vt 0.87500 0.00000
vt 0.87500 0.50000
vt 0.87500 1.00000
vt 0.93750 0.00000
vt 0.93750 0.50000
vt 0.93750 1.00000
vt 1.00000 0.00000
vt 1.00000 0.50000
vt 1.00000 1.00000
vt 0.00000 0.00000
vt 0.00000 0.50000
vt 0.00000 1.00000
vt 0.06250 0.00000
vt 0.06250 0.50000
vt 0.06250 1.00000
vt 0.12500 0.00000
vt 0.12500 0.50000
vt 0.12500 1.00000
vt 0.18750 0.00000
vt 0.18750 0.50000
vt 0.18750 1.00000
vt 0.25000 0.00000
vt 0.25000 0.50000
vt 0.25000 1.00000
vt 0.31250 0.00000
vt 0.31250 0.50000
vt 0.31250 1.00000
vt 0.37500 0.00000
vt 0.37500 0.50000
vt 0.37500 1.00000
vt 0.43750 0.00000
vt 0.43750 0.50000
vt 0.43750 1.00000
vt 0.50000 0.00000
vt 0.50000 0.50000
vt 0.50000 1.00000
vt 0.56250 0.00000
vt 0.56250 0.50000
vt 0.56250 1.00000
vt 0.62500 0.00000
vt 0.62500 0.50000
vt 0.62500 1.00000
vt 0.68750 0.00000
vt 0.68750 0.50000
vt 0.68750 1.00000
vt 0.75000 0.00000
vt 0.75000 0.50000
vt 0.75000 1.00000
vt 0.81250 0.00000
vt 0.81250 0.50000
vt 0.81250 1.00000
vt 0.87500 0.00000
vt 0.87500 0.50000
vt 0.87500 1.00000
vt 0.93750 0.00000
vt 0.93750 0.50000
vt 0.93750 1.00000
vt 1.00000 0.00000
vt 1.00000 0.50000
vt 1.00000 1.00000
vn 0.00000 0.02187 -0.99976
vn 0.00000 0.02187 -0.99976
vn 0.00000 0.02187 -0.99976
vn 0.00000 0.04371 -0.99904
vn 0.00000 0.04371 -0.99904
vn 0.00000 0.04371 -0.99904
vn 0.00000 0.08717 -0.99619
vn 0.00000 0.08717 -0.99619
vn 0.00000 0.08717 -0.99619
vn 0.00000 0.13013 -0.99150
vn 0.00000 0.13013 -0.99150
vn 0.00000 0.13013 -0.99150
vn 0.00000 0.17238 -0.98503
vn 0.00000 0.17238 -0.98503
vn 0.00000 0.17238 -0.98503
vn 0.00000 0.21370 -0.97690
vn 0.00000 0.21370 -0.97690
vn 0.00000 0.21370 -0.97690
vn 0.00000 0.25390 -0.96723
vn 0.00000 0.25390 -0.96723
vn 0.00000 0.25390 -0.96723
vn 0.00000 0.29283 -0.95617
vn 0.00000 0.29283 -0.95617
vn 0.00000 0.29283 -0.95617
vn 0.00000 0.33035 -0.94386
vn 0.00000 0.33035 -0.94386
vn 0.00000 0.33035 -0.94386
vn 0.00000 0.36637 -0.93047
vn 0.00000 0.36637 -0.93047
vn 0.00000 0.36637 -0.93047
vn 0.00000 0.40082 -0.91616
vn 0.00000 0.40082 -0.91616
vn 0.00000 0.40082 -0.91616
vn 0.00000 0.43365 -0.90108
vn 0.00000 0.43365 -0.90108
vn 0.00000 0.43365 -0.90108
vn 0.00000 0.46483 -0.88540
vn 0.00000 0.46483 -0.88540
vn 0.00000 0.46483 -0.88540
vn 0.00000 0.49438 -0.86924
vn 0.00000 0.49438 -0.86924
vn 0.00000 0.49438 -0.86924
vn 0.00000 0.52231 -0.85275
vn 0.00000 0.52231 -0.85275
vn 0.00000 0.52231 -0.85275
vn 0.00000 0.54866 -0.83605
vn 0.00000 0.54866 -0.83605
vn 0.00000 0.54866 -0.83605
vn 0.00000 0.56125 -0.82765
vn 0.00000 0.56125 -0.82765
vn 0.00000 0.56125 -0.82765
vn 1.00000 0.00000 0.00000
vn 1.00000 0.00000 0.00000
vn 1.00000 0.00000 0.00000
vn 1.00000 0.00000 0.00000
vn 1.00000 0.00000 0.00000
vn 1.00000 0.00000 0.00000
vn 1.00000 0.00000 0.00000
vn 1.00000 0.00000 0.00000
vn 1.00000 0.00000 0.00000
vn 1.00000 0.00000 0.00000
vn 1.00000 0.00000 0.00000
vn 1.00000 0.00000 0.00000
vn 1.00000 0.00000 0.00000
vn 1.00000 0.00000 0.00000
vn 1.00000 0.00000 0.00000
vn 1.00000 0.00000 0.00000
vn 1.00000 0.00000 0.00000
vn 1.00000 0.00000 0.00000
vn 1.00000 0.00000 0.00000
vn 1.00000 0.00000 0.00000
vn 1.00000 0.00000 0.00000
vn 1.00000 0.00000 0.00000
vn 1.00000 0.00000 0.00000
vn 1.00000 0.00000 0.00000
vn 1.00000 0.00000 0.00000
vn 1.00000 0.00000 0.00000
vn 1.00000 0.00000 0.00000
vn 1.00000 0.00000 0.00000
vn 1.00000 0.00000 0.00000
vn 1.00000 0.00000 0.00000
vn 1.00000 0.00000 0.00000
vn 1.00000 0.00000 0.00000
vn 1.00000 0.00000 0.00000
vn 1.00000 0.00000 0.00000
vn 1.00000 0.00000 0.00000
vn 1.00000 0.00000 0.00000
vn 1.00000 0.00000 0.00000
vn 1.00000 0.00000 0.00000
vn 1.00000 0.00000 0.00000
vn 1.00000 0.00000 0.00000
vn 1.00000 0.00000 0.00000
vn 1.00000 0.00000 0.00000
vn 1.00000 0.00000 0.00000
vn 1.00000 0.00000 0.00000
vn 1.00000 0.00000 0.00000
vn 1.00000 0.00000 0.00000
vn 1.00000 0.00000 0.00000
vn 1.00000 0.00000 0.00000
vn 1.00000 0.00000 0.00000
vn 1.00000 0.00000 0.00000
vn 1.00000 0.00000 0.00000
f 1/1/1 4/4/4 2/2/2
f 4/4/4 5/5/5 2/2/2
f 2/2/2 5/5/5 3/3/3
f 5/5/5 6/6/6 3/3/3
f 4/4/4 7/7/7 5/5/5
f 7/7/7 8/8/8 5/5/5
f 5/5/5 8/8/8 6/6/6
f 8/8/8 9/9/9 6/6/6
f 7/7/7 10/10/10 8/8/8
f 10/10/10 11/11/11 8/8/8
f 8/8/8 11/11/11 9/9/9
f 11/11/11 12/12/12 9/9/9
f 10/10/10 13/13/13 11/11/11
f 13/13/13 14/14/14 11/11/11
f 11/11/11 14/14/14 12/12/12
f 14/14/14 15/15/15 12/12/12
f 13/13/13 16/16/16 14/14/14
f 16/16/16 17/17/17 14/14/14
f 14/14/14 17/17/17 15/15/15
f 17/17/17 18/18/18 15/15/15
f 16/16/16 19/19/19 17/17/17
f 19/19/19 20/20/20 17/17/17
f 17/17/17 20/20/20 18/18/18
f 20/20/20 21/21/21 18/18/18
f 19/19/19 22/22/22 20/20/20
f 22/22/22 23/23/23 20/20/20
f 20/20/20 23/23/23 21/21/21
f 23/23/23 24/24/24 21/21/21
f 22/22/22 25/25/25 23/23/23
f 25/25/25 26/26/26 23/23/23
f 23/23/23 26/26/26 24/24/24
f 26/26/26 27/27/27 24/24/24
f 25/25/25 28/28/28 26/26/26
f 28/28/28 29/29/29 26/26/26
f 26/26/26 29/29/29 27/27/27
f 29/29/29 30/30/30 27/27/27
f 28/28/28 31/31/31 29/29/29
f 31/31/31 32/32/32 29/29/29
f 29/29/29 32/32/32 30/30/30
f 32/32/32 33/33/33 30/30/30
f 31/31/31 34/34/34 32/32/32
f 34/34/34 35/35/35 32/32/32
f 32/32/32 35/35/35 33/33/33
f 35/35/35 36/36/36 33/33/33
f 34/34/34 37/37/37 35/35/35
f 37/37/37 38/38/38 35/35/35
f 35/35/35 38/38/38 36/36/36
f 38/38/38 39/39/39 36/36/36
f 37/37/37 40/40/40 38/38/38
f 40/40/40 41/41/41 38/38/38
f 38/38/38 41/41/41 39/39/39
f 41/41/41 42/42/42 39/39/39
f 40/40/40 43/43/43 41/41/41
f 43/43/43 44/44/44 41/41/41
f 41/41/41 44/44/44 42/42/42
f 44/44/44 45/45/45 42/42/42
f 43/43/43 46/46/46 44/44/44
f 46/46/46 47/47/47 44/44/44
f 44/44/44 47/47/47 45/45/45
f 47/47/47 48/48/48 45/45/45
f 46/46/46 49/49/49 47/47/47
f 49/49/49 50/50/50 47/47/47
f 47/47/47 50/50/50 48/48/48
f 50/50/50 51/51/51 48/48/48
f 52/52/52 55/55/55 53/53/53
f 55/55/55 56/56/56 53/53/53
f 53/53/53 56/56/56 54/54/54
f 56/56/56 57/57/57 54/54/54
f 55/55/55 58/58/58 56/56/56
f 58/58/58 59/59/59 56/56/56
f 56/56/56 59/59/59 57/57/57
f 59/59/59 60/60/60 57/57/57
f 58/58/58 61/61/61 59/59/59
f 61/61/61 62/62/62 59/59/59
f 59/59/59 62/62/62 60/60/60
f 62/62/62 63/63/63 60/60/60
f 61/61/61 64/64/64 62/62/62
f 64/64/64 65/65/65 62/62/62
f 62/62/62 65/65/65 63/63/63
f 65/65/65 66/66/66 63/63/63
f 64/64/64 67/67/67 65/65/65
f 67/67/67 68/68/68 65/65/65
f 65/65/65 68/68/68 66/66/66
f 68/68/68 69/69/69 66/66/66
f 67/67/67 70/70/70 68/68/68
f 70/70/70 71/71/71 68/68/68
f 68/68/68 71/71/71 69/69/69
f 71/71/71 72/72/72 69/69/69
f 70/70/70 73/73/73 71/71/71
f 73/73/73 74/74/74 71/71/71
f 71/71/71 74/74/74 72/72/72
f 74/74/74 75/75/75 72/72/72
f 73/73/73 76/76/76 74/74/74
f 76/76/76 77/77/77 74/74/74
f 74/74/74 77/77/77 75/75/75
f 77/77/77 78/78/78 75/75/75
f 76/76/76 79/79/79 77/77/77
f 79/79/79 80/80/80 77/77/77
f 77/77/77 80/80/80 78/78/78
f 80/80/80 81/81/81 78/78/78
f 79/79/79 82/82/82 80/80/80
f 82/82/82 83/83/83 80/80/80
f 80/80/80 83/83/83 81/81/81
f 83/83/83 84/84/84 81/81/81
f 82/82/82 85/85/85 83/83/83
f 85/85/85 86/86/86 83/83/83
f 83/83/83 86/86/86 84/84/84
f 86/86/86 87/87/87 84/84/84
f 85/85/85 88/88/88 86/86/86
f 88/88/88 89/89/89 86/86/86
f 86/86/86 89/89/89 87/87/87
f 89/89/89 90/90/90 87/87/87
f 88/88/88 91/91/91 89/89/89
f 91/91/91 92/92/92 89/89/89
f 89/89/89 92/92/92 90/90/90
f 92/92/92 93/93/93 90/90/90
f 91/91/91 94/94/94 92/92/92
f 94/94/94 95/95/95 92/92/92
f 92/92/92 95/95/95 93/93/93
f 95/95/95 96/96/96 93/93/93
f 94/94/94 97/97/97 95/95/95
f 97/97/97 98/98/98 95/95/95
f 95/95/95 98/98/98 96/96/96
f 98/98/98 99/99/99 96/96/96
f 97/97/97 100/100/100 98/98/98
f 100/100/100 101/101/101 98/98/98
f 98/98/98 101/101/101 99/99/99
f 101/101/101 102/102/102 99/99/99
