# studio VFX Rank Zero / Poing du Dragon, mesh genere (meshes.py)
v 0.12000 0.00000 0.00000
v 0.18387 0.08333 0.05974
v 0.21574 0.16667 0.15674
v 0.19985 0.25000 0.27507
v 0.12773 0.33333 0.39310
v 0.00000 0.41667 0.48667
v -0.17305 0.50000 0.53259
v -0.37226 0.58333 0.51238
v -0.57171 0.66667 0.41537
v -0.74182 0.75000 0.24103
v -0.85333 0.83333 0.00000
v -0.88131 0.91667 -0.28636
v -0.80902 1.00000 -0.58779
v 0.11897 0.00000 0.01566
v 0.17450 0.08333 0.08323
v 0.19343 0.16667 0.18356
v 0.16223 0.25000 0.29880
v 0.07532 0.33333 0.40641
v -0.06352 0.41667 0.48250
v -0.24109 0.50000 0.50545
v -0.43596 0.58333 0.45940
v -0.62103 0.66667 0.33719
v -0.76694 0.75000 0.14214
v -0.84603 0.83333 -0.11138
v -0.83640 0.91667 -0.39894
v -0.72537 1.00000 -0.68835
v 0.11591 0.00000 0.03106
v 0.16214 0.08333 0.10530
v 0.16782 0.16667 0.20724
v 0.12185 0.25000 0.31742
v 0.02163 0.33333 0.41277
v -0.12596 0.41667 0.47008
v -0.30500 0.50000 0.46966
v -0.49219 0.58333 0.39857
v -0.65973 0.66667 0.25325
v -0.77893 0.75000 0.04082
v -0.82426 0.83333 -0.22086
v -0.77717 0.91667 -0.50470
v -0.62932 1.00000 -0.77715
v 0.11087 0.00000 0.04592
v 0.14701 0.08333 0.12556
v 0.13933 0.16667 0.22737
v 0.07937 0.25000 0.33061
v -0.03243 0.33333 0.41206
v -0.18624 0.41667 0.44962
v -0.36369 0.50000 0.42583
v -0.54001 0.58333 0.33092
v -0.68714 0.66667 0.16497
v -0.77760 0.75000 -0.06120
v -0.78838 0.83333 -0.32656
v -0.70464 0.91667 -0.60182
v -0.52250 1.00000 -0.85264
v 0.10392 0.00000 0.06000
v 0.12937 0.08333 0.14367
v 0.10846 0.16667 0.24361
v 0.03554 0.25000 0.33814
v -0.08594 0.33333 0.40430
v -0.24333 0.41667 0.42147
v -0.41616 0.50000 0.37471
v -0.57858 0.58333 0.25760
v -0.70280 0.66667 0.07387
v -0.76296 0.75000 -0.16217
v -0.73901 0.83333 -0.42667
v -0.62006 0.91667 -0.68865
v -0.40674 1.00000 -0.91355
v 0.09520 0.00000 0.07305
v 0.10951 0.08333 0.15933
v 0.07574 0.16667 0.25569
v -0.00890 0.25000 0.33988
v -0.13797 0.33333 0.38963
v -0.29626 0.41667 0.38610
v -0.46151 0.50000 0.31719
v -0.60725 0.58333 0.17988
v -0.70642 0.66667 -0.01850
v -0.73526 0.75000 -0.26037
v -0.67699 0.83333 -0.51948
v -0.52487 0.91667 -0.76369
v -0.28402 1.00000 -0.95882
v 0.08485 0.00000 0.08485
v 0.08777 0.08333 0.17226
v 0.04172 0.16667 0.26338
v -0.05319 0.25000 0.33581
v -0.18765 0.33333 0.36828
v -0.34413 0.41667 0.34413
v -0.49896 0.50000 0.25423
v -0.62554 0.58333 0.09908
v -0.69797 0.66667 -0.11055
v -0.69499 0.75000 -0.35411
v -0.60340 0.83333 -0.60340
v -0.42070 0.91667 -0.82567
v -0.15643 1.00000 -0.98769
v 0.07305 0.00000 0.09520
v 0.06454 0.08333 0.18224
v 0.00698 0.16667 0.26658
v -0.09657 0.25000 0.32600
v -0.23411 0.33333 0.34064
v -0.38610 0.41667 0.29626
v -0.52788 0.50000 0.18693
v -0.63312 0.58333 0.01658
v -0.67757 0.66667 -0.20070
v -0.64282 0.75000 -0.44180
v -0.51948 0.83333 -0.67699
v -0.30933 0.91667 -0.87351
v -0.02618 1.00000 -0.99966
v 0.06000 0.00000 0.10392
v 0.04020 0.08333 0.18911
v -0.02787 0.16667 0.26521
v -0.13829 0.25000 0.31061
v -0.27657 0.33333 0.30717
v -0.42147 0.41667 0.24333
v -0.54776 0.50000 0.11643
v -0.62986 0.58333 -0.06620
v -0.64557 0.66667 -0.28743
v -0.57965 0.75000 -0.52192
v -0.42667 0.83333 -0.73901
v -0.19266 0.91667 -0.90642
v 0.10453 1.00000 -0.99452
v 0.04592 0.00000 0.11087
v 0.01517 0.08333 0.19274
v -0.06225 0.16667 0.25930
v -0.17765 0.25000 0.28990
v -0.31430 0.33333 0.26844
v -0.44962 0.41667 0.18624
v -0.55827 0.50000 0.04394
v -0.61583 0.58333 -0.14785
v -0.60253 0.66667 -0.36923
v -0.50657 0.75000 -0.59312
v -0.32656 0.83333 -0.78838
v -0.07271 0.91667 -0.92381
v 0.23345 1.00000 -0.97237
v 0.03106 0.00000 0.11591
v -0.01012 0.08333 0.19307
v -0.09556 0.16667 0.24895
v -0.21397 0.25000 0.26423
v -0.34665 0.33333 0.22512
v -0.47008 0.41667 0.12596
v -0.55923 0.50000 -0.02931
v -0.59127 0.58333 -0.22697
v -0.54918 0.66667 -0.44472
v -0.42482 0.75000 -0.65416
v -0.22086 0.83333 -0.82426
v 0.04850 0.91667 -0.92540
v 0.35837 1.00000 -0.93358
v 0.01566 0.00000 0.11897
v -0.03523 0.08333 0.19010
v -0.12724 0.16667 0.23435
v -0.24663 0.25000 0.23404
v -0.37307 0.33333 0.17794
v -0.48250 0.41667 0.06352
v -0.55062 0.50000 -0.10205
v -0.55658 0.58333 -0.30220
v -0.48644 0.66667 -0.51260
v -0.33580 0.75000 -0.70402
v -0.11138 0.83333 -0.84603
v 0.16887 0.91667 -0.91115
v 0.47716 1.00000 -0.87882
v 0.00000 0.00000 0.12000
v -0.05974 0.08333 0.18387
v -0.15674 0.16667 0.21574
v -0.27507 0.25000 0.19985
v -0.39310 0.33333 0.12773
v -0.48667 0.41667 0.00000
v -0.53259 0.50000 -0.17305
v -0.51238 0.58333 -0.37226
v -0.41537 0.66667 -0.57171
v -0.24103 0.75000 -0.74182
v -0.00000 0.83333 -0.85333
v 0.28636 0.91667 -0.88131
v 0.58779 1.00000 -0.80902
v -0.01566 0.00000 0.11897
v -0.08323 0.08333 0.17450
v -0.18356 0.16667 0.19343
v -0.29880 0.25000 0.16223
v -0.40641 0.33333 0.07532
v -0.48250 0.41667 -0.06352
v -0.50545 0.50000 -0.24109
v -0.45940 0.58333 -0.43596
v -0.33719 0.66667 -0.62103
v -0.14214 0.75000 -0.76694
v 0.11138 0.83333 -0.84603
v 0.39894 0.91667 -0.83640
v 0.68835 1.00000 -0.72537
v -0.03106 0.00000 0.11591
v -0.10530 0.08333 0.16214
v -0.20724 0.16667 0.16782
v -0.31742 0.25000 0.12185
v -0.41277 0.33333 0.02163
v -0.47008 0.41667 -0.12596
v -0.46966 0.50000 -0.30500
v -0.39857 0.58333 -0.49219
v -0.25325 0.66667 -0.65973
v -0.04082 0.75000 -0.77893
v 0.22086 0.83333 -0.82426
v 0.50470 0.91667 -0.77717
v 0.77715 1.00000 -0.62932
v -0.04592 0.00000 0.11087
v -0.12556 0.08333 0.14701
v -0.22737 0.16667 0.13933
v -0.33061 0.25000 0.07937
v -0.41206 0.33333 -0.03243
v -0.44962 0.41667 -0.18624
v -0.42583 0.50000 -0.36369
v -0.33092 0.58333 -0.54001
v -0.16497 0.66667 -0.68714
v 0.06120 0.75000 -0.77760
v 0.32656 0.83333 -0.78838
v 0.60182 0.91667 -0.70464
v 0.85264 1.00000 -0.52250
v -0.06000 0.00000 0.10392
v -0.14367 0.08333 0.12937
v -0.24361 0.16667 0.10846
v -0.33814 0.25000 0.03554
v -0.40430 0.33333 -0.08594
v -0.42147 0.41667 -0.24333
v -0.37471 0.50000 -0.41616
v -0.25760 0.58333 -0.57858
v -0.07387 0.66667 -0.70280
v 0.16217 0.75000 -0.76296
v 0.42667 0.83333 -0.73901
v 0.68865 0.91667 -0.62006
v 0.91355 1.00000 -0.40674
v -0.07305 0.00000 0.09520
v -0.15933 0.08333 0.10951
v -0.25569 0.16667 0.07574
v -0.33988 0.25000 -0.00890
v -0.38963 0.33333 -0.13797
v -0.38610 0.41667 -0.29626
v -0.31719 0.50000 -0.46151
v -0.17988 0.58333 -0.60725
v 0.01850 0.66667 -0.70642
v 0.26037 0.75000 -0.73526
v 0.51948 0.83333 -0.67699
v 0.76369 0.91667 -0.52487
v 0.95882 1.00000 -0.28402
v -0.08485 0.00000 0.08485
v -0.17226 0.08333 0.08777
v -0.26338 0.16667 0.04172
v -0.33581 0.25000 -0.05319
v -0.36828 0.33333 -0.18765
v -0.34413 0.41667 -0.34413
v -0.25423 0.50000 -0.49896
v -0.09908 0.58333 -0.62554
v 0.11055 0.66667 -0.69797
v 0.35411 0.75000 -0.69499
v 0.60340 0.83333 -0.60340
v 0.82567 0.91667 -0.42070
v 0.98769 1.00000 -0.15643
v -0.09520 0.00000 0.07305
v -0.18224 0.08333 0.06454
v -0.26658 0.16667 0.00698
v -0.32600 0.25000 -0.09657
v -0.34064 0.33333 -0.23411
v -0.29626 0.41667 -0.38610
v -0.18693 0.50000 -0.52788
v -0.01658 0.58333 -0.63312
v 0.20070 0.66667 -0.67757
v 0.44180 0.75000 -0.64282
v 0.67699 0.83333 -0.51948
v 0.87351 0.91667 -0.30933
v 0.99966 1.00000 -0.02618
v -0.10392 0.00000 0.06000
v -0.18911 0.08333 0.04020
v -0.26521 0.16667 -0.02787
v -0.31061 0.25000 -0.13829
v -0.30717 0.33333 -0.27657
v -0.24333 0.41667 -0.42147
v -0.11643 0.50000 -0.54776
v 0.06620 0.58333 -0.62986
v 0.28743 0.66667 -0.64557
v 0.52192 0.75000 -0.57965
v 0.73901 0.83333 -0.42667
v 0.90642 0.91667 -0.19266
v 0.99452 1.00000 0.10453
v -0.11087 0.00000 0.04592
v -0.19274 0.08333 0.01517
v -0.25930 0.16667 -0.06225
v -0.28990 0.25000 -0.17765
v -0.26844 0.33333 -0.31430
v -0.18624 0.41667 -0.44962
v -0.04394 0.50000 -0.55827
v 0.14785 0.58333 -0.61583
v 0.36923 0.66667 -0.60253
v 0.59312 0.75000 -0.50657
v 0.78838 0.83333 -0.32656
v 0.92381 0.91667 -0.07271
v 0.97237 1.00000 0.23345
v -0.11591 0.00000 0.03106
v -0.19307 0.08333 -0.01012
v -0.24895 0.16667 -0.09556
v -0.26423 0.25000 -0.21397
v -0.22512 0.33333 -0.34665
v -0.12596 0.41667 -0.47008
v 0.02931 0.50000 -0.55923
v 0.22697 0.58333 -0.59127
v 0.44472 0.66667 -0.54918
v 0.65416 0.75000 -0.42482
v 0.82426 0.83333 -0.22086
v 0.92540 0.91667 0.04850
v 0.93358 1.00000 0.35837
v -0.11897 0.00000 0.01566
v -0.19010 0.08333 -0.03523
v -0.23435 0.16667 -0.12724
v -0.23404 0.25000 -0.24663
v -0.17794 0.33333 -0.37307
v -0.06352 0.41667 -0.48250
v 0.10205 0.50000 -0.55062
v 0.30220 0.58333 -0.55658
v 0.51260 0.66667 -0.48644
v 0.70402 0.75000 -0.33580
v 0.84603 0.83333 -0.11138
v 0.91115 0.91667 0.16887
v 0.87882 1.00000 0.47716
v -0.12000 0.00000 0.00000
v -0.18387 0.08333 -0.05974
v -0.21574 0.16667 -0.15674
v -0.19985 0.25000 -0.27507
v -0.12773 0.33333 -0.39310
v -0.00000 0.41667 -0.48667
v 0.17305 0.50000 -0.53259
v 0.37226 0.58333 -0.51238
v 0.57171 0.66667 -0.41537
v 0.74182 0.75000 -0.24103
v 0.85333 0.83333 -0.00000
v 0.88131 0.91667 0.28636
v 0.80902 1.00000 0.58779
v -0.11897 0.00000 -0.01566
v -0.17450 0.08333 -0.08323
v -0.19343 0.16667 -0.18356
v -0.16223 0.25000 -0.29880
v -0.07532 0.33333 -0.40641
v 0.06352 0.41667 -0.48250
v 0.24109 0.50000 -0.50545
v 0.43596 0.58333 -0.45940
v 0.62103 0.66667 -0.33719
v 0.76694 0.75000 -0.14214
v 0.84603 0.83333 0.11138
v 0.83640 0.91667 0.39894
v 0.72537 1.00000 0.68835
v -0.11591 0.00000 -0.03106
v -0.16214 0.08333 -0.10530
v -0.16782 0.16667 -0.20724
v -0.12185 0.25000 -0.31742
v -0.02163 0.33333 -0.41277
v 0.12596 0.41667 -0.47008
v 0.30500 0.50000 -0.46966
v 0.49219 0.58333 -0.39857
v 0.65973 0.66667 -0.25325
v 0.77893 0.75000 -0.04082
v 0.82426 0.83333 0.22086
v 0.77717 0.91667 0.50470
v 0.62932 1.00000 0.77715
v -0.11087 0.00000 -0.04592
v -0.14701 0.08333 -0.12556
v -0.13933 0.16667 -0.22737
v -0.07937 0.25000 -0.33061
v 0.03243 0.33333 -0.41206
v 0.18624 0.41667 -0.44962
v 0.36369 0.50000 -0.42583
v 0.54001 0.58333 -0.33092
v 0.68714 0.66667 -0.16497
v 0.77760 0.75000 0.06120
v 0.78838 0.83333 0.32656
v 0.70464 0.91667 0.60182
v 0.52250 1.00000 0.85264
v -0.10392 0.00000 -0.06000
v -0.12937 0.08333 -0.14367
v -0.10846 0.16667 -0.24361
v -0.03554 0.25000 -0.33814
v 0.08594 0.33333 -0.40430
v 0.24333 0.41667 -0.42147
v 0.41616 0.50000 -0.37471
v 0.57858 0.58333 -0.25760
v 0.70280 0.66667 -0.07387
v 0.76296 0.75000 0.16217
v 0.73901 0.83333 0.42667
v 0.62006 0.91667 0.68865
v 0.40674 1.00000 0.91355
v -0.09520 0.00000 -0.07305
v -0.10951 0.08333 -0.15933
v -0.07574 0.16667 -0.25569
v 0.00890 0.25000 -0.33988
v 0.13797 0.33333 -0.38963
v 0.29626 0.41667 -0.38610
v 0.46151 0.50000 -0.31719
v 0.60725 0.58333 -0.17988
v 0.70642 0.66667 0.01850
v 0.73526 0.75000 0.26037
v 0.67699 0.83333 0.51948
v 0.52487 0.91667 0.76369
v 0.28402 1.00000 0.95882
v -0.08485 0.00000 -0.08485
v -0.08777 0.08333 -0.17226
v -0.04172 0.16667 -0.26338
v 0.05319 0.25000 -0.33581
v 0.18765 0.33333 -0.36828
v 0.34413 0.41667 -0.34413
v 0.49896 0.50000 -0.25423
v 0.62554 0.58333 -0.09908
v 0.69797 0.66667 0.11055
v 0.69499 0.75000 0.35411
v 0.60340 0.83333 0.60340
v 0.42070 0.91667 0.82567
v 0.15643 1.00000 0.98769
v -0.07305 0.00000 -0.09520
v -0.06454 0.08333 -0.18224
v -0.00698 0.16667 -0.26658
v 0.09657 0.25000 -0.32600
v 0.23411 0.33333 -0.34064
v 0.38610 0.41667 -0.29626
v 0.52788 0.50000 -0.18693
v 0.63312 0.58333 -0.01658
v 0.67757 0.66667 0.20070
v 0.64282 0.75000 0.44180
v 0.51948 0.83333 0.67699
v 0.30933 0.91667 0.87351
v 0.02618 1.00000 0.99966
v -0.06000 0.00000 -0.10392
v -0.04020 0.08333 -0.18911
v 0.02787 0.16667 -0.26521
v 0.13829 0.25000 -0.31061
v 0.27657 0.33333 -0.30717
v 0.42147 0.41667 -0.24333
v 0.54776 0.50000 -0.11643
v 0.62986 0.58333 0.06620
v 0.64557 0.66667 0.28743
v 0.57965 0.75000 0.52192
v 0.42667 0.83333 0.73901
v 0.19266 0.91667 0.90642
v -0.10453 1.00000 0.99452
v -0.04592 0.00000 -0.11087
v -0.01517 0.08333 -0.19274
v 0.06225 0.16667 -0.25930
v 0.17765 0.25000 -0.28990
v 0.31430 0.33333 -0.26844
v 0.44962 0.41667 -0.18624
v 0.55827 0.50000 -0.04394
v 0.61583 0.58333 0.14785
v 0.60253 0.66667 0.36923
v 0.50657 0.75000 0.59312
v 0.32656 0.83333 0.78838
v 0.07271 0.91667 0.92381
v -0.23345 1.00000 0.97237
v -0.03106 0.00000 -0.11591
v 0.01012 0.08333 -0.19307
v 0.09556 0.16667 -0.24895
v 0.21397 0.25000 -0.26423
v 0.34665 0.33333 -0.22512
v 0.47008 0.41667 -0.12596
v 0.55923 0.50000 0.02931
v 0.59127 0.58333 0.22697
v 0.54918 0.66667 0.44472
v 0.42482 0.75000 0.65416
v 0.22086 0.83333 0.82426
v -0.04850 0.91667 0.92540
v -0.35837 1.00000 0.93358
v -0.01566 0.00000 -0.11897
v 0.03523 0.08333 -0.19010
v 0.12724 0.16667 -0.23435
v 0.24663 0.25000 -0.23404
v 0.37307 0.33333 -0.17794
v 0.48250 0.41667 -0.06352
v 0.55062 0.50000 0.10205
v 0.55658 0.58333 0.30220
v 0.48644 0.66667 0.51260
v 0.33580 0.75000 0.70402
v 0.11138 0.83333 0.84603
v -0.16887 0.91667 0.91115
v -0.47716 1.00000 0.87882
v -0.00000 0.00000 -0.12000
v 0.05974 0.08333 -0.18387
v 0.15674 0.16667 -0.21574
v 0.27507 0.25000 -0.19985
v 0.39310 0.33333 -0.12773
v 0.48667 0.41667 -0.00000
v 0.53259 0.50000 0.17305
v 0.51238 0.58333 0.37226
v 0.41537 0.66667 0.57171
v 0.24103 0.75000 0.74182
v 0.00000 0.83333 0.85333
v -0.28636 0.91667 0.88131
v -0.58779 1.00000 0.80902
v 0.01566 0.00000 -0.11897
v 0.08323 0.08333 -0.17450
v 0.18356 0.16667 -0.19343
v 0.29880 0.25000 -0.16223
v 0.40641 0.33333 -0.07532
v 0.48250 0.41667 0.06352
v 0.50545 0.50000 0.24109
v 0.45940 0.58333 0.43596
v 0.33719 0.66667 0.62103
v 0.14214 0.75000 0.76694
v -0.11138 0.83333 0.84603
v -0.39894 0.91667 0.83640
v -0.68835 1.00000 0.72537
v 0.03106 0.00000 -0.11591
v 0.10530 0.08333 -0.16214
v 0.20724 0.16667 -0.16782
v 0.31742 0.25000 -0.12185
v 0.41277 0.33333 -0.02163
v 0.47008 0.41667 0.12596
v 0.46966 0.50000 0.30500
v 0.39857 0.58333 0.49219
v 0.25325 0.66667 0.65973
v 0.04082 0.75000 0.77893
v -0.22086 0.83333 0.82426
v -0.50470 0.91667 0.77717
v -0.77715 1.00000 0.62932
v 0.04592 0.00000 -0.11087
v 0.12556 0.08333 -0.14701
v 0.22737 0.16667 -0.13933
v 0.33061 0.25000 -0.07937
v 0.41206 0.33333 0.03243
v 0.44962 0.41667 0.18624
v 0.42583 0.50000 0.36369
v 0.33092 0.58333 0.54001
v 0.16497 0.66667 0.68714
v -0.06120 0.75000 0.77760
v -0.32656 0.83333 0.78838
v -0.60182 0.91667 0.70464
v -0.85264 1.00000 0.52250
v 0.06000 0.00000 -0.10392
v 0.14367 0.08333 -0.12937
v 0.24361 0.16667 -0.10846
v 0.33814 0.25000 -0.03554
v 0.40430 0.33333 0.08594
v 0.42147 0.41667 0.24333
v 0.37471 0.50000 0.41616
v 0.25760 0.58333 0.57858
v 0.07387 0.66667 0.70280
v -0.16217 0.75000 0.76296
v -0.42667 0.83333 0.73901
v -0.68865 0.91667 0.62006
v -0.91355 1.00000 0.40674
v 0.07305 0.00000 -0.09520
v 0.15933 0.08333 -0.10951
v 0.25569 0.16667 -0.07574
v 0.33988 0.25000 0.00890
v 0.38963 0.33333 0.13797
v 0.38610 0.41667 0.29626
v 0.31719 0.50000 0.46151
v 0.17988 0.58333 0.60725
v -0.01850 0.66667 0.70642
v -0.26037 0.75000 0.73526
v -0.51948 0.83333 0.67699
v -0.76369 0.91667 0.52487
v -0.95882 1.00000 0.28402
v 0.08485 0.00000 -0.08485
v 0.17226 0.08333 -0.08777
v 0.26338 0.16667 -0.04172
v 0.33581 0.25000 0.05319
v 0.36828 0.33333 0.18765
v 0.34413 0.41667 0.34413
v 0.25423 0.50000 0.49896
v 0.09908 0.58333 0.62554
v -0.11055 0.66667 0.69797
v -0.35411 0.75000 0.69499
v -0.60340 0.83333 0.60340
v -0.82567 0.91667 0.42070
v -0.98769 1.00000 0.15643
v 0.09520 0.00000 -0.07305
v 0.18224 0.08333 -0.06454
v 0.26658 0.16667 -0.00698
v 0.32600 0.25000 0.09657
v 0.34064 0.33333 0.23411
v 0.29626 0.41667 0.38610
v 0.18693 0.50000 0.52788
v 0.01658 0.58333 0.63312
v -0.20070 0.66667 0.67757
v -0.44180 0.75000 0.64282
v -0.67699 0.83333 0.51948
v -0.87351 0.91667 0.30933
v -0.99966 1.00000 0.02618
v 0.10392 0.00000 -0.06000
v 0.18911 0.08333 -0.04020
v 0.26521 0.16667 0.02787
v 0.31061 0.25000 0.13829
v 0.30717 0.33333 0.27657
v 0.24333 0.41667 0.42147
v 0.11643 0.50000 0.54776
v -0.06620 0.58333 0.62986
v -0.28743 0.66667 0.64557
v -0.52192 0.75000 0.57965
v -0.73901 0.83333 0.42667
v -0.90642 0.91667 0.19266
v -0.99452 1.00000 -0.10453
v 0.11087 0.00000 -0.04592
v 0.19274 0.08333 -0.01517
v 0.25930 0.16667 0.06225
v 0.28990 0.25000 0.17765
v 0.26844 0.33333 0.31430
v 0.18624 0.41667 0.44962
v 0.04394 0.50000 0.55827
v -0.14785 0.58333 0.61583
v -0.36923 0.66667 0.60253
v -0.59312 0.75000 0.50657
v -0.78838 0.83333 0.32656
v -0.92381 0.91667 0.07271
v -0.97237 1.00000 -0.23345
v 0.11591 0.00000 -0.03106
v 0.19307 0.08333 0.01012
v 0.24895 0.16667 0.09556
v 0.26423 0.25000 0.21397
v 0.22512 0.33333 0.34665
v 0.12596 0.41667 0.47008
v -0.02931 0.50000 0.55923
v -0.22697 0.58333 0.59127
v -0.44472 0.66667 0.54918
v -0.65416 0.75000 0.42482
v -0.82426 0.83333 0.22086
v -0.92540 0.91667 -0.04850
v -0.93358 1.00000 -0.35837
v 0.11897 0.00000 -0.01566
v 0.19010 0.08333 0.03523
v 0.23435 0.16667 0.12724
v 0.23404 0.25000 0.24663
v 0.17794 0.33333 0.37307
v 0.06352 0.41667 0.48250
v -0.10205 0.50000 0.55062
v -0.30220 0.58333 0.55658
v -0.51260 0.66667 0.48644
v -0.70402 0.75000 0.33580
v -0.84603 0.83333 0.11138
v -0.91115 0.91667 -0.16887
v -0.87882 1.00000 -0.47716
v 0.12000 0.00000 -0.00000
v 0.18387 0.08333 0.05974
v 0.21574 0.16667 0.15674
v 0.19985 0.25000 0.27507
v 0.12773 0.33333 0.39310
v 0.00000 0.41667 0.48667
v -0.17305 0.50000 0.53259
v -0.37226 0.58333 0.51238
v -0.57171 0.66667 0.41537
v -0.74182 0.75000 0.24103
v -0.85333 0.83333 0.00000
v -0.88131 0.91667 -0.28636
v -0.80902 1.00000 -0.58779
vt 0.00000 0.00000
vt 0.00000 0.08333
vt 0.00000 0.16667
vt 0.00000 0.25000
vt 0.00000 0.33333
vt 0.00000 0.41667
vt 0.00000 0.50000
vt 0.00000 0.58333
vt 0.00000 0.66667
vt 0.00000 0.75000
vt 0.00000 0.83333
vt 0.00000 0.91667
vt 0.00000 1.00000
vt 0.02083 0.00000
vt 0.02083 0.08333
vt 0.02083 0.16667
vt 0.02083 0.25000
vt 0.02083 0.33333
vt 0.02083 0.41667
vt 0.02083 0.50000
vt 0.02083 0.58333
vt 0.02083 0.66667
vt 0.02083 0.75000
vt 0.02083 0.83333
vt 0.02083 0.91667
vt 0.02083 1.00000
vt 0.04167 0.00000
vt 0.04167 0.08333
vt 0.04167 0.16667
vt 0.04167 0.25000
vt 0.04167 0.33333
vt 0.04167 0.41667
vt 0.04167 0.50000
vt 0.04167 0.58333
vt 0.04167 0.66667
vt 0.04167 0.75000
vt 0.04167 0.83333
vt 0.04167 0.91667
vt 0.04167 1.00000
vt 0.06250 0.00000
vt 0.06250 0.08333
vt 0.06250 0.16667
vt 0.06250 0.25000
vt 0.06250 0.33333
vt 0.06250 0.41667
vt 0.06250 0.50000
vt 0.06250 0.58333
vt 0.06250 0.66667
vt 0.06250 0.75000
vt 0.06250 0.83333
vt 0.06250 0.91667
vt 0.06250 1.00000
vt 0.08333 0.00000
vt 0.08333 0.08333
vt 0.08333 0.16667
vt 0.08333 0.25000
vt 0.08333 0.33333
vt 0.08333 0.41667
vt 0.08333 0.50000
vt 0.08333 0.58333
vt 0.08333 0.66667
vt 0.08333 0.75000
vt 0.08333 0.83333
vt 0.08333 0.91667
vt 0.08333 1.00000
vt 0.10417 0.00000
vt 0.10417 0.08333
vt 0.10417 0.16667
vt 0.10417 0.25000
vt 0.10417 0.33333
vt 0.10417 0.41667
vt 0.10417 0.50000
vt 0.10417 0.58333
vt 0.10417 0.66667
vt 0.10417 0.75000
vt 0.10417 0.83333
vt 0.10417 0.91667
vt 0.10417 1.00000
vt 0.12500 0.00000
vt 0.12500 0.08333
vt 0.12500 0.16667
vt 0.12500 0.25000
vt 0.12500 0.33333
vt 0.12500 0.41667
vt 0.12500 0.50000
vt 0.12500 0.58333
vt 0.12500 0.66667
vt 0.12500 0.75000
vt 0.12500 0.83333
vt 0.12500 0.91667
vt 0.12500 1.00000
vt 0.14583 0.00000
vt 0.14583 0.08333
vt 0.14583 0.16667
vt 0.14583 0.25000
vt 0.14583 0.33333
vt 0.14583 0.41667
vt 0.14583 0.50000
vt 0.14583 0.58333
vt 0.14583 0.66667
vt 0.14583 0.75000
vt 0.14583 0.83333
vt 0.14583 0.91667
vt 0.14583 1.00000
vt 0.16667 0.00000
vt 0.16667 0.08333
vt 0.16667 0.16667
vt 0.16667 0.25000
vt 0.16667 0.33333
vt 0.16667 0.41667
vt 0.16667 0.50000
vt 0.16667 0.58333
vt 0.16667 0.66667
vt 0.16667 0.75000
vt 0.16667 0.83333
vt 0.16667 0.91667
vt 0.16667 1.00000
vt 0.18750 0.00000
vt 0.18750 0.08333
vt 0.18750 0.16667
vt 0.18750 0.25000
vt 0.18750 0.33333
vt 0.18750 0.41667
vt 0.18750 0.50000
vt 0.18750 0.58333
vt 0.18750 0.66667
vt 0.18750 0.75000
vt 0.18750 0.83333
vt 0.18750 0.91667
vt 0.18750 1.00000
vt 0.20833 0.00000
vt 0.20833 0.08333
vt 0.20833 0.16667
vt 0.20833 0.25000
vt 0.20833 0.33333
vt 0.20833 0.41667
vt 0.20833 0.50000
vt 0.20833 0.58333
vt 0.20833 0.66667
vt 0.20833 0.75000
vt 0.20833 0.83333
vt 0.20833 0.91667
vt 0.20833 1.00000
vt 0.22917 0.00000
vt 0.22917 0.08333
vt 0.22917 0.16667
vt 0.22917 0.25000
vt 0.22917 0.33333
vt 0.22917 0.41667
vt 0.22917 0.50000
vt 0.22917 0.58333
vt 0.22917 0.66667
vt 0.22917 0.75000
vt 0.22917 0.83333
vt 0.22917 0.91667
vt 0.22917 1.00000
vt 0.25000 0.00000
vt 0.25000 0.08333
vt 0.25000 0.16667
vt 0.25000 0.25000
vt 0.25000 0.33333
vt 0.25000 0.41667
vt 0.25000 0.50000
vt 0.25000 0.58333
vt 0.25000 0.66667
vt 0.25000 0.75000
vt 0.25000 0.83333
vt 0.25000 0.91667
vt 0.25000 1.00000
vt 0.27083 0.00000
vt 0.27083 0.08333
vt 0.27083 0.16667
vt 0.27083 0.25000
vt 0.27083 0.33333
vt 0.27083 0.41667
vt 0.27083 0.50000
vt 0.27083 0.58333
vt 0.27083 0.66667
vt 0.27083 0.75000
vt 0.27083 0.83333
vt 0.27083 0.91667
vt 0.27083 1.00000
vt 0.29167 0.00000
vt 0.29167 0.08333
vt 0.29167 0.16667
vt 0.29167 0.25000
vt 0.29167 0.33333
vt 0.29167 0.41667
vt 0.29167 0.50000
vt 0.29167 0.58333
vt 0.29167 0.66667
vt 0.29167 0.75000
vt 0.29167 0.83333
vt 0.29167 0.91667
vt 0.29167 1.00000
vt 0.31250 0.00000
vt 0.31250 0.08333
vt 0.31250 0.16667
vt 0.31250 0.25000
vt 0.31250 0.33333
vt 0.31250 0.41667
vt 0.31250 0.50000
vt 0.31250 0.58333
vt 0.31250 0.66667
vt 0.31250 0.75000
vt 0.31250 0.83333
vt 0.31250 0.91667
vt 0.31250 1.00000
vt 0.33333 0.00000
vt 0.33333 0.08333
vt 0.33333 0.16667
vt 0.33333 0.25000
vt 0.33333 0.33333
vt 0.33333 0.41667
vt 0.33333 0.50000
vt 0.33333 0.58333
vt 0.33333 0.66667
vt 0.33333 0.75000
vt 0.33333 0.83333
vt 0.33333 0.91667
vt 0.33333 1.00000
vt 0.35417 0.00000
vt 0.35417 0.08333
vt 0.35417 0.16667
vt 0.35417 0.25000
vt 0.35417 0.33333
vt 0.35417 0.41667
vt 0.35417 0.50000
vt 0.35417 0.58333
vt 0.35417 0.66667
vt 0.35417 0.75000
vt 0.35417 0.83333
vt 0.35417 0.91667
vt 0.35417 1.00000
vt 0.37500 0.00000
vt 0.37500 0.08333
vt 0.37500 0.16667
vt 0.37500 0.25000
vt 0.37500 0.33333
vt 0.37500 0.41667
vt 0.37500 0.50000
vt 0.37500 0.58333
vt 0.37500 0.66667
vt 0.37500 0.75000
vt 0.37500 0.83333
vt 0.37500 0.91667
vt 0.37500 1.00000
vt 0.39583 0.00000
vt 0.39583 0.08333
vt 0.39583 0.16667
vt 0.39583 0.25000
vt 0.39583 0.33333
vt 0.39583 0.41667
vt 0.39583 0.50000
vt 0.39583 0.58333
vt 0.39583 0.66667
vt 0.39583 0.75000
vt 0.39583 0.83333
vt 0.39583 0.91667
vt 0.39583 1.00000
vt 0.41667 0.00000
vt 0.41667 0.08333
vt 0.41667 0.16667
vt 0.41667 0.25000
vt 0.41667 0.33333
vt 0.41667 0.41667
vt 0.41667 0.50000
vt 0.41667 0.58333
vt 0.41667 0.66667
vt 0.41667 0.75000
vt 0.41667 0.83333
vt 0.41667 0.91667
vt 0.41667 1.00000
vt 0.43750 0.00000
vt 0.43750 0.08333
vt 0.43750 0.16667
vt 0.43750 0.25000
vt 0.43750 0.33333
vt 0.43750 0.41667
vt 0.43750 0.50000
vt 0.43750 0.58333
vt 0.43750 0.66667
vt 0.43750 0.75000
vt 0.43750 0.83333
vt 0.43750 0.91667
vt 0.43750 1.00000
vt 0.45833 0.00000
vt 0.45833 0.08333
vt 0.45833 0.16667
vt 0.45833 0.25000
vt 0.45833 0.33333
vt 0.45833 0.41667
vt 0.45833 0.50000
vt 0.45833 0.58333
vt 0.45833 0.66667
vt 0.45833 0.75000
vt 0.45833 0.83333
vt 0.45833 0.91667
vt 0.45833 1.00000
vt 0.47917 0.00000
vt 0.47917 0.08333
vt 0.47917 0.16667
vt 0.47917 0.25000
vt 0.47917 0.33333
vt 0.47917 0.41667
vt 0.47917 0.50000
vt 0.47917 0.58333
vt 0.47917 0.66667
vt 0.47917 0.75000
vt 0.47917 0.83333
vt 0.47917 0.91667
vt 0.47917 1.00000
vt 0.50000 0.00000
vt 0.50000 0.08333
vt 0.50000 0.16667
vt 0.50000 0.25000
vt 0.50000 0.33333
vt 0.50000 0.41667
vt 0.50000 0.50000
vt 0.50000 0.58333
vt 0.50000 0.66667
vt 0.50000 0.75000
vt 0.50000 0.83333
vt 0.50000 0.91667
vt 0.50000 1.00000
vt 0.52083 0.00000
vt 0.52083 0.08333
vt 0.52083 0.16667
vt 0.52083 0.25000
vt 0.52083 0.33333
vt 0.52083 0.41667
vt 0.52083 0.50000
vt 0.52083 0.58333
vt 0.52083 0.66667
vt 0.52083 0.75000
vt 0.52083 0.83333
vt 0.52083 0.91667
vt 0.52083 1.00000
vt 0.54167 0.00000
vt 0.54167 0.08333
vt 0.54167 0.16667
vt 0.54167 0.25000
vt 0.54167 0.33333
vt 0.54167 0.41667
vt 0.54167 0.50000
vt 0.54167 0.58333
vt 0.54167 0.66667
vt 0.54167 0.75000
vt 0.54167 0.83333
vt 0.54167 0.91667
vt 0.54167 1.00000
vt 0.56250 0.00000
vt 0.56250 0.08333
vt 0.56250 0.16667
vt 0.56250 0.25000
vt 0.56250 0.33333
vt 0.56250 0.41667
vt 0.56250 0.50000
vt 0.56250 0.58333
vt 0.56250 0.66667
vt 0.56250 0.75000
vt 0.56250 0.83333
vt 0.56250 0.91667
vt 0.56250 1.00000
vt 0.58333 0.00000
vt 0.58333 0.08333
vt 0.58333 0.16667
vt 0.58333 0.25000
vt 0.58333 0.33333
vt 0.58333 0.41667
vt 0.58333 0.50000
vt 0.58333 0.58333
vt 0.58333 0.66667
vt 0.58333 0.75000
vt 0.58333 0.83333
vt 0.58333 0.91667
vt 0.58333 1.00000
vt 0.60417 0.00000
vt 0.60417 0.08333
vt 0.60417 0.16667
vt 0.60417 0.25000
vt 0.60417 0.33333
vt 0.60417 0.41667
vt 0.60417 0.50000
vt 0.60417 0.58333
vt 0.60417 0.66667
vt 0.60417 0.75000
vt 0.60417 0.83333
vt 0.60417 0.91667
vt 0.60417 1.00000
vt 0.62500 0.00000
vt 0.62500 0.08333
vt 0.62500 0.16667
vt 0.62500 0.25000
vt 0.62500 0.33333
vt 0.62500 0.41667
vt 0.62500 0.50000
vt 0.62500 0.58333
vt 0.62500 0.66667
vt 0.62500 0.75000
vt 0.62500 0.83333
vt 0.62500 0.91667
vt 0.62500 1.00000
vt 0.64583 0.00000
vt 0.64583 0.08333
vt 0.64583 0.16667
vt 0.64583 0.25000
vt 0.64583 0.33333
vt 0.64583 0.41667
vt 0.64583 0.50000
vt 0.64583 0.58333
vt 0.64583 0.66667
vt 0.64583 0.75000
vt 0.64583 0.83333
vt 0.64583 0.91667
vt 0.64583 1.00000
vt 0.66667 0.00000
vt 0.66667 0.08333
vt 0.66667 0.16667
vt 0.66667 0.25000
vt 0.66667 0.33333
vt 0.66667 0.41667
vt 0.66667 0.50000
vt 0.66667 0.58333
vt 0.66667 0.66667
vt 0.66667 0.75000
vt 0.66667 0.83333
vt 0.66667 0.91667
vt 0.66667 1.00000
vt 0.68750 0.00000
vt 0.68750 0.08333
vt 0.68750 0.16667
vt 0.68750 0.25000
vt 0.68750 0.33333
vt 0.68750 0.41667
vt 0.68750 0.50000
vt 0.68750 0.58333
vt 0.68750 0.66667
vt 0.68750 0.75000
vt 0.68750 0.83333
vt 0.68750 0.91667
vt 0.68750 1.00000
vt 0.70833 0.00000
vt 0.70833 0.08333
vt 0.70833 0.16667
vt 0.70833 0.25000
vt 0.70833 0.33333
vt 0.70833 0.41667
vt 0.70833 0.50000
vt 0.70833 0.58333
vt 0.70833 0.66667
vt 0.70833 0.75000
vt 0.70833 0.83333
vt 0.70833 0.91667
vt 0.70833 1.00000
vt 0.72917 0.00000
vt 0.72917 0.08333
vt 0.72917 0.16667
vt 0.72917 0.25000
vt 0.72917 0.33333
vt 0.72917 0.41667
vt 0.72917 0.50000
vt 0.72917 0.58333
vt 0.72917 0.66667
vt 0.72917 0.75000
vt 0.72917 0.83333
vt 0.72917 0.91667
vt 0.72917 1.00000
vt 0.75000 0.00000
vt 0.75000 0.08333
vt 0.75000 0.16667
vt 0.75000 0.25000
vt 0.75000 0.33333
vt 0.75000 0.41667
vt 0.75000 0.50000
vt 0.75000 0.58333
vt 0.75000 0.66667
vt 0.75000 0.75000
vt 0.75000 0.83333
vt 0.75000 0.91667
vt 0.75000 1.00000
vt 0.77083 0.00000
vt 0.77083 0.08333
vt 0.77083 0.16667
vt 0.77083 0.25000
vt 0.77083 0.33333
vt 0.77083 0.41667
vt 0.77083 0.50000
vt 0.77083 0.58333
vt 0.77083 0.66667
vt 0.77083 0.75000
vt 0.77083 0.83333
vt 0.77083 0.91667
vt 0.77083 1.00000
vt 0.79167 0.00000
vt 0.79167 0.08333
vt 0.79167 0.16667
vt 0.79167 0.25000
vt 0.79167 0.33333
vt 0.79167 0.41667
vt 0.79167 0.50000
vt 0.79167 0.58333
vt 0.79167 0.66667
vt 0.79167 0.75000
vt 0.79167 0.83333
vt 0.79167 0.91667
vt 0.79167 1.00000
vt 0.81250 0.00000
vt 0.81250 0.08333
vt 0.81250 0.16667
vt 0.81250 0.25000
vt 0.81250 0.33333
vt 0.81250 0.41667
vt 0.81250 0.50000
vt 0.81250 0.58333
vt 0.81250 0.66667
vt 0.81250 0.75000
vt 0.81250 0.83333
vt 0.81250 0.91667
vt 0.81250 1.00000
vt 0.83333 0.00000
vt 0.83333 0.08333
vt 0.83333 0.16667
vt 0.83333 0.25000
vt 0.83333 0.33333
vt 0.83333 0.41667
vt 0.83333 0.50000
vt 0.83333 0.58333
vt 0.83333 0.66667
vt 0.83333 0.75000
vt 0.83333 0.83333
vt 0.83333 0.91667
vt 0.83333 1.00000
vt 0.85417 0.00000
vt 0.85417 0.08333
vt 0.85417 0.16667
vt 0.85417 0.25000
vt 0.85417 0.33333
vt 0.85417 0.41667
vt 0.85417 0.50000
vt 0.85417 0.58333
vt 0.85417 0.66667
vt 0.85417 0.75000
vt 0.85417 0.83333
vt 0.85417 0.91667
vt 0.85417 1.00000
vt 0.87500 0.00000
vt 0.87500 0.08333
vt 0.87500 0.16667
vt 0.87500 0.25000
vt 0.87500 0.33333
vt 0.87500 0.41667
vt 0.87500 0.50000
vt 0.87500 0.58333
vt 0.87500 0.66667
vt 0.87500 0.75000
vt 0.87500 0.83333
vt 0.87500 0.91667
vt 0.87500 1.00000
vt 0.89583 0.00000
vt 0.89583 0.08333
vt 0.89583 0.16667
vt 0.89583 0.25000
vt 0.89583 0.33333
vt 0.89583 0.41667
vt 0.89583 0.50000
vt 0.89583 0.58333
vt 0.89583 0.66667
vt 0.89583 0.75000
vt 0.89583 0.83333
vt 0.89583 0.91667
vt 0.89583 1.00000
vt 0.91667 0.00000
vt 0.91667 0.08333
vt 0.91667 0.16667
vt 0.91667 0.25000
vt 0.91667 0.33333
vt 0.91667 0.41667
vt 0.91667 0.50000
vt 0.91667 0.58333
vt 0.91667 0.66667
vt 0.91667 0.75000
vt 0.91667 0.83333
vt 0.91667 0.91667
vt 0.91667 1.00000
vt 0.93750 0.00000
vt 0.93750 0.08333
vt 0.93750 0.16667
vt 0.93750 0.25000
vt 0.93750 0.33333
vt 0.93750 0.41667
vt 0.93750 0.50000
vt 0.93750 0.58333
vt 0.93750 0.66667
vt 0.93750 0.75000
vt 0.93750 0.83333
vt 0.93750 0.91667
vt 0.93750 1.00000
vt 0.95833 0.00000
vt 0.95833 0.08333
vt 0.95833 0.16667
vt 0.95833 0.25000
vt 0.95833 0.33333
vt 0.95833 0.41667
vt 0.95833 0.50000
vt 0.95833 0.58333
vt 0.95833 0.66667
vt 0.95833 0.75000
vt 0.95833 0.83333
vt 0.95833 0.91667
vt 0.95833 1.00000
vt 0.97917 0.00000
vt 0.97917 0.08333
vt 0.97917 0.16667
vt 0.97917 0.25000
vt 0.97917 0.33333
vt 0.97917 0.41667
vt 0.97917 0.50000
vt 0.97917 0.58333
vt 0.97917 0.66667
vt 0.97917 0.75000
vt 0.97917 0.83333
vt 0.97917 0.91667
vt 0.97917 1.00000
vt 1.00000 0.00000
vt 1.00000 0.08333
vt 1.00000 0.16667
vt 1.00000 0.25000
vt 1.00000 0.33333
vt 1.00000 0.41667
vt 1.00000 0.50000
vt 1.00000 0.58333
vt 1.00000 0.66667
vt 1.00000 0.75000
vt 1.00000 0.83333
vt 1.00000 0.91667
vt 1.00000 1.00000
vn -0.77476 0.63022 -0.05078
vn -0.69657 0.66148 -0.27790
vn -0.57153 0.66889 -0.47534
vn -0.39317 0.67610 -0.62314
vn -0.17977 0.68312 -0.70784
vn 0.04734 0.68995 -0.72230
vn 0.26586 0.69661 -0.66637
vn 0.45470 0.70309 -0.54672
vn 0.59607 0.70940 -0.37609
vn 0.67707 0.71555 -0.17195
vn 0.69090 0.72153 0.04528
vn 0.63741 0.72736 0.25430
vn 0.39921 0.85463 0.33202
vn -0.78690 0.60832 -0.10360
vn -0.69216 0.64181 -0.33014
vn -0.55626 0.64181 -0.52787
vn -0.36592 0.64181 -0.67393
vn -0.13975 0.64181 -0.75402
vn 0.10010 0.64181 -0.76030
vn 0.33014 0.64181 -0.69216
vn 0.52787 0.64181 -0.55626
vn 0.67393 0.64181 -0.36592
vn 0.75402 0.64181 -0.13975
vn 0.76030 0.64181 0.10010
vn 0.69216 0.64181 0.33014
vn 0.41682 0.81841 0.39555
vn -0.76664 0.60832 -0.20542
vn -0.64315 0.64181 -0.41766
vn -0.48260 0.64181 -0.59596
vn -0.27482 0.64181 -0.71593
vn -0.04013 0.64181 -0.76581
vn 0.19848 0.64181 -0.74073
vn 0.41766 0.64181 -0.64315
vn 0.59596 0.64181 -0.48260
vn 0.71593 0.64181 -0.27482
vn 0.76581 0.64181 -0.04013
vn 0.74073 0.64181 0.19848
vn 0.64315 0.64181 0.41766
vn 0.36163 0.81841 0.44657
vn -0.73327 0.60832 -0.30373
vn -0.58313 0.64181 -0.49804
vn -0.40068 0.64181 -0.65386
vn -0.17902 0.64181 -0.74567
vn 0.06017 0.64181 -0.76450
vn 0.29347 0.64181 -0.70849
vn 0.49804 0.64181 -0.58313
vn 0.65386 0.64181 -0.40068
vn 0.74567 0.64181 -0.17902
vn 0.76450 0.64181 0.06017
vn 0.70849 0.64181 0.29347
vn 0.58313 0.64181 0.49804
vn 0.30024 0.81841 0.48995
vn -0.68735 0.60832 -0.39684
vn -0.51313 0.64181 -0.56989
vn -0.31191 0.64181 -0.70056
vn -0.08016 0.64181 -0.76266
vn 0.15944 0.64181 -0.75011
vn 0.38343 0.64181 -0.66412
vn 0.56989 0.64181 -0.51313
vn 0.70056 0.64181 -0.31191
vn 0.76266 0.64181 -0.08016
vn 0.75011 0.64181 0.15944
vn 0.66412 0.64181 0.38343
vn 0.51313 0.64181 0.56989
vn 0.23372 0.81841 0.52495
vn -0.62968 0.60832 -0.48317
vn -0.43436 0.64181 -0.63199
vn -0.21780 0.64181 -0.73528
vn 0.02007 0.64181 -0.76660
vn 0.25598 0.64181 -0.72288
vn 0.46684 0.64181 -0.60839
vn 0.63199 0.64181 -0.43436
vn 0.73528 0.64181 -0.21780
vn 0.76660 0.64181 0.02007
vn 0.72288 0.64181 0.25598
vn 0.60839 0.64181 0.46684
vn 0.43436 0.64181 0.63199
vn 0.16320 0.81841 0.55096
vn -0.56122 0.60832 -0.56122
vn -0.34815 0.64181 -0.68328
vn -0.11996 0.64181 -0.75742
vn 0.11996 0.64181 -0.75742
vn 0.34815 0.64181 -0.68328
vn 0.54225 0.64181 -0.54225
vn 0.68328 0.64181 -0.34815
vn 0.75742 0.64181 -0.11996
vn 0.75742 0.64181 0.11996
vn 0.68328 0.64181 0.34815
vn 0.54225 0.64181 0.54225
vn 0.34815 0.64181 0.68328
vn 0.08989 0.81841 0.56755
vn -0.48317 0.60832 -0.62968
vn -0.25598 0.64181 -0.72288
vn -0.02007 0.64181 -0.76660
vn 0.21780 0.64181 -0.73528
vn 0.43436 0.64181 -0.63199
vn 0.60839 0.64181 -0.46684
vn 0.72288 0.64181 -0.25598
vn 0.76660 0.64181 -0.02007
vn 0.73528 0.64181 0.21780
vn 0.63199 0.64181 0.43436
vn 0.46684 0.64181 0.60839
vn 0.25598 0.64181 0.72288
vn 0.01504 0.81841 0.57443
vn -0.39684 0.60832 -0.68735
vn -0.15944 0.64181 -0.75011
vn 0.08016 0.64181 -0.76266
vn 0.31191 0.64181 -0.70056
vn 0.51313 0.64181 -0.56989
vn 0.66412 0.64181 -0.38343
vn 0.75011 0.64181 -0.15944
vn 0.76266 0.64181 0.08016
vn 0.70056 0.64181 0.31191
vn 0.56989 0.64181 0.51313
vn 0.38343 0.64181 0.66412
vn 0.15944 0.64181 0.75011
vn -0.06006 0.81841 0.57148
vn -0.30373 0.60832 -0.73327
vn -0.06017 0.64181 -0.76450
vn 0.17902 0.64181 -0.74567
vn 0.40068 0.64181 -0.65386
vn 0.58313 0.64181 -0.49804
vn 0.70849 0.64181 -0.29347
vn 0.76450 0.64181 -0.06017
vn 0.74567 0.64181 0.17902
vn 0.65386 0.64181 0.40068
vn 0.49804 0.64181 0.58313
vn 0.29347 0.64181 0.70849
vn 0.06017 0.64181 0.76450
vn -0.13414 0.81841 0.55875
vn -0.20542 0.60832 -0.76664
vn 0.04013 0.64181 -0.76581
vn 0.27482 0.64181 -0.71593
vn 0.48260 0.64181 -0.59596
vn 0.64315 0.64181 -0.41766
vn 0.74073 0.64181 -0.19848
vn 0.76581 0.64181 0.04013
vn 0.71593 0.64181 0.27482
vn 0.59596 0.64181 0.48260
vn 0.41766 0.64181 0.64315
vn 0.19848 0.64181 0.74073
vn -0.04013 0.64181 0.76581
vn -0.20593 0.81841 0.53646
vn -0.10360 0.60832 -0.78690
vn 0.13975 0.64181 -0.75402
vn 0.36592 0.64181 -0.67393
vn 0.55626 0.64181 -0.52787
vn 0.69216 0.64181 -0.33014
vn 0.76030 0.64181 -0.10010
vn 0.75402 0.64181 0.13975
vn 0.67393 0.64181 0.36592
vn 0.52787 0.64181 0.55626
vn 0.33014 0.64181 0.69216
vn 0.10010 0.64181 0.76030
vn -0.13975 0.64181 0.75402
vn -0.27419 0.81841 0.50499
vn -0.00000 0.60832 -0.79369
vn 0.23697 0.64181 -0.72933
vn 0.45075 0.64181 -0.62041
vn 0.62041 0.64181 -0.45075
vn 0.72933 0.64181 -0.23697
vn 0.76686 0.64181 -0.00000
vn 0.72933 0.64181 0.23697
vn 0.62041 0.64181 0.45075
vn 0.45075 0.64181 0.62041
vn 0.23697 0.64181 0.72933
vn 0.00000 0.64181 0.76686
vn -0.23697 0.64181 0.72933
vn -0.33776 0.81841 0.46488
vn 0.10360 0.60832 -0.78690
vn 0.33014 0.64181 -0.69216
vn 0.52787 0.64181 -0.55626
vn 0.67393 0.64181 -0.36592
vn 0.75402 0.64181 -0.13975
vn 0.76030 0.64181 0.10010
vn 0.69216 0.64181 0.33014
vn 0.55626 0.64181 0.52787
vn 0.36592 0.64181 0.67393
vn 0.13975 0.64181 0.75402
vn -0.10010 0.64181 0.76030
vn -0.33014 0.64181 0.69216
vn -0.39555 0.81841 0.41682
vn 0.20542 0.60832 -0.76664
vn 0.41766 0.64181 -0.64315
vn 0.59596 0.64181 -0.48260
vn 0.71593 0.64181 -0.27482
vn 0.76581 0.64181 -0.04013
vn 0.74073 0.64181 0.19848
vn 0.64315 0.64181 0.41766
vn 0.48260 0.64181 0.59596
vn 0.27482 0.64181 0.71593
vn 0.04013 0.64181 0.76581
vn -0.19848 0.64181 0.74073
vn -0.41766 0.64181 0.64315
vn -0.44657 0.81841 0.36163
vn 0.30373 0.60832 -0.73327
vn 0.49804 0.64181 -0.58313
vn 0.65386 0.64181 -0.40068
vn 0.74567 0.64181 -0.17902
vn 0.76450 0.64181 0.06017
vn 0.70849 0.64181 0.29347
vn 0.58313 0.64181 0.49804
vn 0.40068 0.64181 0.65386
vn 0.17902 0.64181 0.74567
vn -0.06017 0.64181 0.76450
vn -0.29347 0.64181 0.70849
vn -0.49804 0.64181 0.58313
vn -0.48995 0.81841 0.30024
vn 0.39684 0.60832 -0.68735
vn 0.56989 0.64181 -0.51313
vn 0.70056 0.64181 -0.31191
vn 0.76266 0.64181 -0.08016
vn 0.75011 0.64181 0.15944
vn 0.66412 0.64181 0.38343
vn 0.51313 0.64181 0.56989
vn 0.31191 0.64181 0.70056
vn 0.08016 0.64181 0.76266
vn -0.15944 0.64181 0.75011
vn -0.38343 0.64181 0.66412
vn -0.56989 0.64181 0.51313
vn -0.52495 0.81841 0.23372
vn 0.48317 0.60832 -0.62968
vn 0.63199 0.64181 -0.43436
vn 0.73528 0.64181 -0.21780
vn 0.76660 0.64181 0.02007
vn 0.72288 0.64181 0.25598
vn 0.60839 0.64181 0.46684
vn 0.43436 0.64181 0.63199
vn 0.21780 0.64181 0.73528
vn -0.02007 0.64181 0.76660
vn -0.25598 0.64181 0.72288
vn -0.46684 0.64181 0.60839
vn -0.63199 0.64181 0.43436
vn -0.55096 0.81841 0.16320
vn 0.56122 0.60832 -0.56122
vn 0.68328 0.64181 -0.34815
vn 0.75742 0.64181 -0.11996
vn 0.75742 0.64181 0.11996
vn 0.68328 0.64181 0.34815
vn 0.54225 0.64181 0.54225
vn 0.34815 0.64181 0.68328
vn 0.11996 0.64181 0.75742
vn -0.11996 0.64181 0.75742
vn -0.34815 0.64181 0.68328
vn -0.54225 0.64181 0.54225
vn -0.68328 0.64181 0.34815
vn -0.56755 0.81841 0.08989
vn 0.62968 0.60832 -0.48317
vn 0.72288 0.64181 -0.25598
vn 0.76660 0.64181 -0.02007
vn 0.73528 0.64181 0.21780
vn 0.63199 0.64181 0.43436
vn 0.46684 0.64181 0.60839
vn 0.25598 0.64181 0.72288
vn 0.02007 0.64181 0.76660
vn -0.21780 0.64181 0.73528
vn -0.43436 0.64181 0.63199
vn -0.60839 0.64181 0.46684
vn -0.72288 0.64181 0.25598
vn -0.57443 0.81841 0.01504
vn 0.68735 0.60832 -0.39684
vn 0.75011 0.64181 -0.15944
vn 0.76266 0.64181 0.08016
vn 0.70056 0.64181 0.31191
vn 0.56989 0.64181 0.51313
vn 0.38343 0.64181 0.66412
vn 0.15944 0.64181 0.75011
vn -0.08016 0.64181 0.76266
vn -0.31191 0.64181 0.70056
vn -0.51313 0.64181 0.56989
vn -0.66412 0.64181 0.38343
vn -0.75011 0.64181 0.15944
vn -0.57148 0.81841 -0.06006
vn 0.73327 0.60832 -0.30373
vn 0.76450 0.64181 -0.06017
vn 0.74567 0.64181 0.17902
vn 0.65386 0.64181 0.40068
vn 0.49804 0.64181 0.58313
vn 0.29347 0.64181 0.70849
vn 0.06017 0.64181 0.76450
vn -0.17902 0.64181 0.74567
vn -0.40068 0.64181 0.65386
vn -0.58313 0.64181 0.49804
vn -0.70849 0.64181 0.29347
vn -0.76450 0.64181 0.06017
vn -0.55875 0.81841 -0.13414
vn 0.76664 0.60832 -0.20542
vn 0.76581 0.64181 0.04013
vn 0.71593 0.64181 0.27482
vn 0.59596 0.64181 0.48260
vn 0.41766 0.64181 0.64315
vn 0.19848 0.64181 0.74073
vn -0.04013 0.64181 0.76581
vn -0.27482 0.64181 0.71593
vn -0.48260 0.64181 0.59596
vn -0.64315 0.64181 0.41766
vn -0.74073 0.64181 0.19848
vn -0.76581 0.64181 -0.04013
vn -0.53646 0.81841 -0.20593
vn 0.78690 0.60832 -0.10360
vn 0.75402 0.64181 0.13975
vn 0.67393 0.64181 0.36592
vn 0.52787 0.64181 0.55626
vn 0.33014 0.64181 0.69216
vn 0.10010 0.64181 0.76030
vn -0.13975 0.64181 0.75402
vn -0.36592 0.64181 0.67393
vn -0.55626 0.64181 0.52787
vn -0.69216 0.64181 0.33014
vn -0.76030 0.64181 0.10010
vn -0.75402 0.64181 -0.13975
vn -0.50499 0.81841 -0.27419
vn 0.79369 0.60832 0.00000
vn 0.72933 0.64181 0.23697
vn 0.62041 0.64181 0.45075
vn 0.45075 0.64181 0.62041
vn 0.23697 0.64181 0.72933
vn 0.00000 0.64181 0.76686
vn -0.23697 0.64181 0.72933
vn -0.45075 0.64181 0.62041
vn -0.62041 0.64181 0.45075
vn -0.72933 0.64181 0.23697
vn -0.76686 0.64181 0.00000
vn -0.72933 0.64181 -0.23697
vn -0.46488 0.81841 -0.33776
vn 0.78690 0.60832 0.10360
vn 0.69216 0.64181 0.33014
vn 0.55626 0.64181 0.52787
vn 0.36592 0.64181 0.67393
vn 0.13975 0.64181 0.75402
vn -0.10010 0.64181 0.76030
vn -0.33014 0.64181 0.69216
vn -0.52787 0.64181 0.55626
vn -0.67393 0.64181 0.36592
vn -0.75402 0.64181 0.13975
vn -0.76030 0.64181 -0.10010
vn -0.69216 0.64181 -0.33014
vn -0.41682 0.81841 -0.39555
vn 0.76664 0.60832 0.20542
vn 0.64315 0.64181 0.41766
vn 0.48260 0.64181 0.59596
vn 0.27482 0.64181 0.71593
vn 0.04013 0.64181 0.76581
vn -0.19848 0.64181 0.74073
vn -0.41766 0.64181 0.64315
vn -0.59596 0.64181 0.48260
vn -0.71593 0.64181 0.27482
vn -0.76581 0.64181 0.04013
vn -0.74073 0.64181 -0.19848
vn -0.64315 0.64181 -0.41766
vn -0.36163 0.81841 -0.44657
vn 0.73327 0.60832 0.30373
vn 0.58313 0.64181 0.49804
vn 0.40068 0.64181 0.65386
vn 0.17902 0.64181 0.74567
vn -0.06017 0.64181 0.76450
vn -0.29347 0.64181 0.70849
vn -0.49804 0.64181 0.58313
vn -0.65386 0.64181 0.40068
vn -0.74567 0.64181 0.17902
vn -0.76450 0.64181 -0.06017
vn -0.70849 0.64181 -0.29347
vn -0.58313 0.64181 -0.49804
vn -0.30024 0.81841 -0.48995
vn 0.68735 0.60832 0.39684
vn 0.51313 0.64181 0.56989
vn 0.31191 0.64181 0.70056
vn 0.08016 0.64181 0.76266
vn -0.15944 0.64181 0.75011
vn -0.38343 0.64181 0.66412
vn -0.56989 0.64181 0.51313
vn -0.70056 0.64181 0.31191
vn -0.76266 0.64181 0.08016
vn -0.75011 0.64181 -0.15944
vn -0.66412 0.64181 -0.38343
vn -0.51313 0.64181 -0.56989
vn -0.23372 0.81841 -0.52495
vn 0.62968 0.60832 0.48317
vn 0.43436 0.64181 0.63199
vn 0.21780 0.64181 0.73528
vn -0.02007 0.64181 0.76660
vn -0.25598 0.64181 0.72288
vn -0.46684 0.64181 0.60839
vn -0.63199 0.64181 0.43436
vn -0.73528 0.64181 0.21780
vn -0.76660 0.64181 -0.02007
vn -0.72288 0.64181 -0.25598
vn -0.60839 0.64181 -0.46684
vn -0.43436 0.64181 -0.63199
vn -0.16320 0.81841 -0.55096
vn 0.56122 0.60832 0.56122
vn 0.34815 0.64181 0.68328
vn 0.11996 0.64181 0.75742
vn -0.11996 0.64181 0.75742
vn -0.34815 0.64181 0.68328
vn -0.54225 0.64181 0.54225
vn -0.68328 0.64181 0.34815
vn -0.75742 0.64181 0.11996
vn -0.75742 0.64181 -0.11996
vn -0.68328 0.64181 -0.34815
vn -0.54225 0.64181 -0.54225
vn -0.34815 0.64181 -0.68328
vn -0.08989 0.81841 -0.56755
vn 0.48317 0.60832 0.62968
vn 0.25598 0.64181 0.72288
vn 0.02007 0.64181 0.76660
vn -0.21780 0.64181 0.73528
vn -0.43436 0.64181 0.63199
vn -0.60839 0.64181 0.46684
vn -0.72288 0.64181 0.25598
vn -0.76660 0.64181 0.02007
vn -0.73528 0.64181 -0.21780
vn -0.63199 0.64181 -0.43436
vn -0.46684 0.64181 -0.60839
vn -0.25598 0.64181 -0.72288
vn -0.01504 0.81841 -0.57443
vn 0.39684 0.60832 0.68735
vn 0.15944 0.64181 0.75011
vn -0.08016 0.64181 0.76266
vn -0.31191 0.64181 0.70056
vn -0.51313 0.64181 0.56989
vn -0.66412 0.64181 0.38343
vn -0.75011 0.64181 0.15944
vn -0.76266 0.64181 -0.08016
vn -0.70056 0.64181 -0.31191
vn -0.56989 0.64181 -0.51313
vn -0.38343 0.64181 -0.66412
vn -0.15944 0.64181 -0.75011
vn 0.06006 0.81841 -0.57148
vn 0.30373 0.60832 0.73327
vn 0.06017 0.64181 0.76450
vn -0.17902 0.64181 0.74567
vn -0.40068 0.64181 0.65386
vn -0.58313 0.64181 0.49804
vn -0.70849 0.64181 0.29347
vn -0.76450 0.64181 0.06017
vn -0.74567 0.64181 -0.17902
vn -0.65386 0.64181 -0.40068
vn -0.49804 0.64181 -0.58313
vn -0.29347 0.64181 -0.70849
vn -0.06017 0.64181 -0.76450
vn 0.13414 0.81841 -0.55875
vn 0.20542 0.60832 0.76664
vn -0.04013 0.64181 0.76581
vn -0.27482 0.64181 0.71593
vn -0.48260 0.64181 0.59596
vn -0.64315 0.64181 0.41766
vn -0.74073 0.64181 0.19848
vn -0.76581 0.64181 -0.04013
vn -0.71593 0.64181 -0.27482
vn -0.59596 0.64181 -0.48260
vn -0.41766 0.64181 -0.64315
vn -0.19848 0.64181 -0.74073
vn 0.04013 0.64181 -0.76581
vn 0.20593 0.81841 -0.53646
vn 0.10360 0.60832 0.78690
vn -0.13975 0.64181 0.75402
vn -0.36592 0.64181 0.67393
vn -0.55626 0.64181 0.52787
vn -0.69216 0.64181 0.33014
vn -0.76030 0.64181 0.10010
vn -0.75402 0.64181 -0.13975
vn -0.67393 0.64181 -0.36592
vn -0.52787 0.64181 -0.55626
vn -0.33014 0.64181 -0.69216
vn -0.10010 0.64181 -0.76030
vn 0.13975 0.64181 -0.75402
vn 0.27419 0.81841 -0.50499
vn 0.00000 0.60832 0.79369
vn -0.23697 0.64181 0.72933
vn -0.45075 0.64181 0.62041
vn -0.62041 0.64181 0.45075
vn -0.72933 0.64181 0.23697
vn -0.76686 0.64181 0.00000
vn -0.72933 0.64181 -0.23697
vn -0.62041 0.64181 -0.45075
vn -0.45075 0.64181 -0.62041
vn -0.23697 0.64181 -0.72933
vn -0.00000 0.64181 -0.76686
vn 0.23697 0.64181 -0.72933
vn 0.33776 0.81841 -0.46488
vn -0.10360 0.60832 0.78690
vn -0.33014 0.64181 0.69216
vn -0.52787 0.64181 0.55626
vn -0.67393 0.64181 0.36592
vn -0.75402 0.64181 0.13975
vn -0.76030 0.64181 -0.10010
vn -0.69216 0.64181 -0.33014
vn -0.55626 0.64181 -0.52787
vn -0.36592 0.64181 -0.67393
vn -0.13975 0.64181 -0.75402
vn 0.10010 0.64181 -0.76030
vn 0.33014 0.64181 -0.69216
vn 0.39555 0.81841 -0.41682
vn -0.20542 0.60832 0.76664
vn -0.41766 0.64181 0.64315
vn -0.59596 0.64181 0.48260
vn -0.71593 0.64181 0.27482
vn -0.76581 0.64181 0.04013
vn -0.74073 0.64181 -0.19848
vn -0.64315 0.64181 -0.41766
vn -0.48260 0.64181 -0.59596
vn -0.27482 0.64181 -0.71593
vn -0.04013 0.64181 -0.76581
vn 0.19848 0.64181 -0.74073
vn 0.41766 0.64181 -0.64315
vn 0.44657 0.81841 -0.36163
vn -0.30373 0.60832 0.73327
vn -0.49804 0.64181 0.58313
vn -0.65386 0.64181 0.40068
vn -0.74567 0.64181 0.17902
vn -0.76450 0.64181 -0.06017
vn -0.70849 0.64181 -0.29347
vn -0.58313 0.64181 -0.49804
vn -0.40068 0.64181 -0.65386
vn -0.17902 0.64181 -0.74567
vn 0.06017 0.64181 -0.76450
vn 0.29347 0.64181 -0.70849
vn 0.49804 0.64181 -0.58313
vn 0.48995 0.81841 -0.30024
vn -0.39684 0.60832 0.68735
vn -0.56989 0.64181 0.51313
vn -0.70056 0.64181 0.31191
vn -0.76266 0.64181 0.08016
vn -0.75011 0.64181 -0.15944
vn -0.66412 0.64181 -0.38343
vn -0.51313 0.64181 -0.56989
vn -0.31191 0.64181 -0.70056
vn -0.08016 0.64181 -0.76266
vn 0.15944 0.64181 -0.75011
vn 0.38343 0.64181 -0.66412
vn 0.56989 0.64181 -0.51313
vn 0.52495 0.81841 -0.23372
vn -0.48317 0.60832 0.62968
vn -0.63199 0.64181 0.43436
vn -0.73528 0.64181 0.21780
vn -0.76660 0.64181 -0.02007
vn -0.72288 0.64181 -0.25598
vn -0.60839 0.64181 -0.46684
vn -0.43436 0.64181 -0.63199
vn -0.21780 0.64181 -0.73528
vn 0.02007 0.64181 -0.76660
vn 0.25598 0.64181 -0.72288
vn 0.46684 0.64181 -0.60839
vn 0.63199 0.64181 -0.43436
vn 0.55096 0.81841 -0.16320
vn -0.56122 0.60832 0.56122
vn -0.68328 0.64181 0.34815
vn -0.75742 0.64181 0.11996
vn -0.75742 0.64181 -0.11996
vn -0.68328 0.64181 -0.34815
vn -0.54225 0.64181 -0.54225
vn -0.34815 0.64181 -0.68328
vn -0.11996 0.64181 -0.75742
vn 0.11996 0.64181 -0.75742
vn 0.34815 0.64181 -0.68328
vn 0.54225 0.64181 -0.54225
vn 0.68328 0.64181 -0.34815
vn 0.56755 0.81841 -0.08989
vn -0.62968 0.60832 0.48317
vn -0.72288 0.64181 0.25598
vn -0.76660 0.64181 0.02007
vn -0.73528 0.64181 -0.21780
vn -0.63199 0.64181 -0.43436
vn -0.46684 0.64181 -0.60839
vn -0.25598 0.64181 -0.72288
vn -0.02007 0.64181 -0.76660
vn 0.21780 0.64181 -0.73528
vn 0.43436 0.64181 -0.63199
vn 0.60839 0.64181 -0.46684
vn 0.72288 0.64181 -0.25598
vn 0.57443 0.81841 -0.01504
vn -0.68735 0.60832 0.39684
vn -0.75011 0.64181 0.15944
vn -0.76266 0.64181 -0.08016
vn -0.70056 0.64181 -0.31191
vn -0.56989 0.64181 -0.51313
vn -0.38343 0.64181 -0.66412
vn -0.15944 0.64181 -0.75011
vn 0.08016 0.64181 -0.76266
vn 0.31191 0.64181 -0.70056
vn 0.51313 0.64181 -0.56989
vn 0.66412 0.64181 -0.38343
vn 0.75011 0.64181 -0.15944
vn 0.57148 0.81841 0.06006
vn -0.73327 0.60832 0.30373
vn -0.76450 0.64181 0.06017
vn -0.74567 0.64181 -0.17902
vn -0.65386 0.64181 -0.40068
vn -0.49804 0.64181 -0.58313
vn -0.29347 0.64181 -0.70849
vn -0.06017 0.64181 -0.76450
vn 0.17902 0.64181 -0.74567
vn 0.40068 0.64181 -0.65386
vn 0.58313 0.64181 -0.49804
vn 0.70849 0.64181 -0.29347
vn 0.76450 0.64181 -0.06017
vn 0.55875 0.81841 0.13414
vn -0.76664 0.60832 0.20542
vn -0.76581 0.64181 -0.04013
vn -0.71593 0.64181 -0.27482
vn -0.59596 0.64181 -0.48260
vn -0.41766 0.64181 -0.64315
vn -0.19848 0.64181 -0.74073
vn 0.04013 0.64181 -0.76581
vn 0.27482 0.64181 -0.71593
vn 0.48260 0.64181 -0.59596
vn 0.64315 0.64181 -0.41766
vn 0.74073 0.64181 -0.19848
vn 0.76581 0.64181 0.04013
vn 0.53646 0.81841 0.20593
vn -0.78690 0.60832 0.10360
vn -0.75402 0.64181 -0.13975
vn -0.67393 0.64181 -0.36592
vn -0.52787 0.64181 -0.55626
vn -0.33014 0.64181 -0.69216
vn -0.10010 0.64181 -0.76030
vn 0.13975 0.64181 -0.75402
vn 0.36592 0.64181 -0.67393
vn 0.55626 0.64181 -0.52787
vn 0.69216 0.64181 -0.33014
vn 0.76030 0.64181 -0.10010
vn 0.75402 0.64181 0.13975
vn 0.50499 0.81841 0.27419
vn -0.81060 0.58319 0.05313
vn -0.76119 0.61905 -0.19332
vn -0.66994 0.61032 -0.42270
vn -0.51089 0.60137 -0.61428
vn -0.29860 0.59218 -0.74844
vn -0.05315 0.58276 -0.81091
vn 0.20172 0.57309 -0.79428
vn 0.44094 0.56318 -0.69886
vn 0.64058 0.55302 -0.53276
vn 0.78019 0.54260 -0.31126
vn 0.84497 0.53193 -0.05538
vn 0.82729 0.52100 0.21011
vn 0.54237 0.76729 0.34221
f 1/1/1 14/14/14 2/2/2
f 14/14/14 15/15/15 2/2/2
f 2/2/2 15/15/15 3/3/3
f 15/15/15 16/16/16 3/3/3
f 3/3/3 16/16/16 4/4/4
f 16/16/16 17/17/17 4/4/4
f 4/4/4 17/17/17 5/5/5
f 17/17/17 18/18/18 5/5/5
f 5/5/5 18/18/18 6/6/6
f 18/18/18 19/19/19 6/6/6
f 6/6/6 19/19/19 7/7/7
f 19/19/19 20/20/20 7/7/7
f 7/7/7 20/20/20 8/8/8
f 20/20/20 21/21/21 8/8/8
f 8/8/8 21/21/21 9/9/9
f 21/21/21 22/22/22 9/9/9
f 9/9/9 22/22/22 10/10/10
f 22/22/22 23/23/23 10/10/10
f 10/10/10 23/23/23 11/11/11
f 23/23/23 24/24/24 11/11/11
f 11/11/11 24/24/24 12/12/12
f 24/24/24 25/25/25 12/12/12
f 12/12/12 25/25/25 13/13/13
f 25/25/25 26/26/26 13/13/13
f 14/14/14 27/27/27 15/15/15
f 27/27/27 28/28/28 15/15/15
f 15/15/15 28/28/28 16/16/16
f 28/28/28 29/29/29 16/16/16
f 16/16/16 29/29/29 17/17/17
f 29/29/29 30/30/30 17/17/17
f 17/17/17 30/30/30 18/18/18
f 30/30/30 31/31/31 18/18/18
f 18/18/18 31/31/31 19/19/19
f 31/31/31 32/32/32 19/19/19
f 19/19/19 32/32/32 20/20/20
f 32/32/32 33/33/33 20/20/20
f 20/20/20 33/33/33 21/21/21
f 33/33/33 34/34/34 21/21/21
f 21/21/21 34/34/34 22/22/22
f 34/34/34 35/35/35 22/22/22
f 22/22/22 35/35/35 23/23/23
f 35/35/35 36/36/36 23/23/23
f 23/23/23 36/36/36 24/24/24
f 36/36/36 37/37/37 24/24/24
f 24/24/24 37/37/37 25/25/25
f 37/37/37 38/38/38 25/25/25
f 25/25/25 38/38/38 26/26/26
f 38/38/38 39/39/39 26/26/26
f 27/27/27 40/40/40 28/28/28
f 40/40/40 41/41/41 28/28/28
f 28/28/28 41/41/41 29/29/29
f 41/41/41 42/42/42 29/29/29
f 29/29/29 42/42/42 30/30/30
f 42/42/42 43/43/43 30/30/30
f 30/30/30 43/43/43 31/31/31
f 43/43/43 44/44/44 31/31/31
f 31/31/31 44/44/44 32/32/32
f 44/44/44 45/45/45 32/32/32
f 32/32/32 45/45/45 33/33/33
f 45/45/45 46/46/46 33/33/33
f 33/33/33 46/46/46 34/34/34
f 46/46/46 47/47/47 34/34/34
f 34/34/34 47/47/47 35/35/35
f 47/47/47 48/48/48 35/35/35
f 35/35/35 48/48/48 36/36/36
f 48/48/48 49/49/49 36/36/36
f 36/36/36 49/49/49 37/37/37
f 49/49/49 50/50/50 37/37/37
f 37/37/37 50/50/50 38/38/38
f 50/50/50 51/51/51 38/38/38
f 38/38/38 51/51/51 39/39/39
f 51/51/51 52/52/52 39/39/39
f 40/40/40 53/53/53 41/41/41
f 53/53/53 54/54/54 41/41/41
f 41/41/41 54/54/54 42/42/42
f 54/54/54 55/55/55 42/42/42
f 42/42/42 55/55/55 43/43/43
f 55/55/55 56/56/56 43/43/43
f 43/43/43 56/56/56 44/44/44
f 56/56/56 57/57/57 44/44/44
f 44/44/44 57/57/57 45/45/45
f 57/57/57 58/58/58 45/45/45
f 45/45/45 58/58/58 46/46/46
f 58/58/58 59/59/59 46/46/46
f 46/46/46 59/59/59 47/47/47
f 59/59/59 60/60/60 47/47/47
f 47/47/47 60/60/60 48/48/48
f 60/60/60 61/61/61 48/48/48
f 48/48/48 61/61/61 49/49/49
f 61/61/61 62/62/62 49/49/49
f 49/49/49 62/62/62 50/50/50
f 62/62/62 63/63/63 50/50/50
f 50/50/50 63/63/63 51/51/51
f 63/63/63 64/64/64 51/51/51
f 51/51/51 64/64/64 52/52/52
f 64/64/64 65/65/65 52/52/52
f 53/53/53 66/66/66 54/54/54
f 66/66/66 67/67/67 54/54/54
f 54/54/54 67/67/67 55/55/55
f 67/67/67 68/68/68 55/55/55
f 55/55/55 68/68/68 56/56/56
f 68/68/68 69/69/69 56/56/56
f 56/56/56 69/69/69 57/57/57
f 69/69/69 70/70/70 57/57/57
f 57/57/57 70/70/70 58/58/58
f 70/70/70 71/71/71 58/58/58
f 58/58/58 71/71/71 59/59/59
f 71/71/71 72/72/72 59/59/59
f 59/59/59 72/72/72 60/60/60
f 72/72/72 73/73/73 60/60/60
f 60/60/60 73/73/73 61/61/61
f 73/73/73 74/74/74 61/61/61
f 61/61/61 74/74/74 62/62/62
f 74/74/74 75/75/75 62/62/62
f 62/62/62 75/75/75 63/63/63
f 75/75/75 76/76/76 63/63/63
f 63/63/63 76/76/76 64/64/64
f 76/76/76 77/77/77 64/64/64
f 64/64/64 77/77/77 65/65/65
f 77/77/77 78/78/78 65/65/65
f 66/66/66 79/79/79 67/67/67
f 79/79/79 80/80/80 67/67/67
f 67/67/67 80/80/80 68/68/68
f 80/80/80 81/81/81 68/68/68
f 68/68/68 81/81/81 69/69/69
f 81/81/81 82/82/82 69/69/69
f 69/69/69 82/82/82 70/70/70
f 82/82/82 83/83/83 70/70/70
f 70/70/70 83/83/83 71/71/71
f 83/83/83 84/84/84 71/71/71
f 71/71/71 84/84/84 72/72/72
f 84/84/84 85/85/85 72/72/72
f 72/72/72 85/85/85 73/73/73
f 85/85/85 86/86/86 73/73/73
f 73/73/73 86/86/86 74/74/74
f 86/86/86 87/87/87 74/74/74
f 74/74/74 87/87/87 75/75/75
f 87/87/87 88/88/88 75/75/75
f 75/75/75 88/88/88 76/76/76
f 88/88/88 89/89/89 76/76/76
f 76/76/76 89/89/89 77/77/77
f 89/89/89 90/90/90 77/77/77
f 77/77/77 90/90/90 78/78/78
f 90/90/90 91/91/91 78/78/78
f 79/79/79 92/92/92 80/80/80
f 92/92/92 93/93/93 80/80/80
f 80/80/80 93/93/93 81/81/81
f 93/93/93 94/94/94 81/81/81
f 81/81/81 94/94/94 82/82/82
f 94/94/94 95/95/95 82/82/82
f 82/82/82 95/95/95 83/83/83
f 95/95/95 96/96/96 83/83/83
f 83/83/83 96/96/96 84/84/84
f 96/96/96 97/97/97 84/84/84
f 84/84/84 97/97/97 85/85/85
f 97/97/97 98/98/98 85/85/85
f 85/85/85 98/98/98 86/86/86
f 98/98/98 99/99/99 86/86/86
f 86/86/86 99/99/99 87/87/87
f 99/99/99 100/100/100 87/87/87
f 87/87/87 100/100/100 88/88/88
f 100/100/100 101/101/101 88/88/88
f 88/88/88 101/101/101 89/89/89
f 101/101/101 102/102/102 89/89/89
f 89/89/89 102/102/102 90/90/90
f 102/102/102 103/103/103 90/90/90
f 90/90/90 103/103/103 91/91/91
f 103/103/103 104/104/104 91/91/91
f 92/92/92 105/105/105 93/93/93
f 105/105/105 106/106/106 93/93/93
f 93/93/93 106/106/106 94/94/94
f 106/106/106 107/107/107 94/94/94
f 94/94/94 107/107/107 95/95/95
f 107/107/107 108/108/108 95/95/95
f 95/95/95 108/108/108 96/96/96
f 108/108/108 109/109/109 96/96/96
f 96/96/96 109/109/109 97/97/97
f 109/109/109 110/110/110 97/97/97
f 97/97/97 110/110/110 98/98/98
f 110/110/110 111/111/111 98/98/98
f 98/98/98 111/111/111 99/99/99
f 111/111/111 112/112/112 99/99/99
f 99/99/99 112/112/112 100/100/100
f 112/112/112 113/113/113 100/100/100
f 100/100/100 113/113/113 101/101/101
f 113/113/113 114/114/114 101/101/101
f 101/101/101 114/114/114 102/102/102
f 114/114/114 115/115/115 102/102/102
f 102/102/102 115/115/115 103/103/103
f 115/115/115 116/116/116 103/103/103
f 103/103/103 116/116/116 104/104/104
f 116/116/116 117/117/117 104/104/104
f 105/105/105 118/118/118 106/106/106
f 118/118/118 119/119/119 106/106/106
f 106/106/106 119/119/119 107/107/107
f 119/119/119 120/120/120 107/107/107
f 107/107/107 120/120/120 108/108/108
f 120/120/120 121/121/121 108/108/108
f 108/108/108 121/121/121 109/109/109
f 121/121/121 122/122/122 109/109/109
f 109/109/109 122/122/122 110/110/110
f 122/122/122 123/123/123 110/110/110
f 110/110/110 123/123/123 111/111/111
f 123/123/123 124/124/124 111/111/111
f 111/111/111 124/124/124 112/112/112
f 124/124/124 125/125/125 112/112/112
f 112/112/112 125/125/125 113/113/113
f 125/125/125 126/126/126 113/113/113
f 113/113/113 126/126/126 114/114/114
f 126/126/126 127/127/127 114/114/114
f 114/114/114 127/127/127 115/115/115
f 127/127/127 128/128/128 115/115/115
f 115/115/115 128/128/128 116/116/116
f 128/128/128 129/129/129 116/116/116
f 116/116/116 129/129/129 117/117/117
f 129/129/129 130/130/130 117/117/117
f 118/118/118 131/131/131 119/119/119
f 131/131/131 132/132/132 119/119/119
f 119/119/119 132/132/132 120/120/120
f 132/132/132 133/133/133 120/120/120
f 120/120/120 133/133/133 121/121/121
f 133/133/133 134/134/134 121/121/121
f 121/121/121 134/134/134 122/122/122
f 134/134/134 135/135/135 122/122/122
f 122/122/122 135/135/135 123/123/123
f 135/135/135 136/136/136 123/123/123
f 123/123/123 136/136/136 124/124/124
f 136/136/136 137/137/137 124/124/124
f 124/124/124 137/137/137 125/125/125
f 137/137/137 138/138/138 125/125/125
f 125/125/125 138/138/138 126/126/126
f 138/138/138 139/139/139 126/126/126
f 126/126/126 139/139/139 127/127/127
f 139/139/139 140/140/140 127/127/127
f 127/127/127 140/140/140 128/128/128
f 140/140/140 141/141/141 128/128/128
f 128/128/128 141/141/141 129/129/129
f 141/141/141 142/142/142 129/129/129
f 129/129/129 142/142/142 130/130/130
f 142/142/142 143/143/143 130/130/130
f 131/131/131 144/144/144 132/132/132
f 144/144/144 145/145/145 132/132/132
f 132/132/132 145/145/145 133/133/133
f 145/145/145 146/146/146 133/133/133
f 133/133/133 146/146/146 134/134/134
f 146/146/146 147/147/147 134/134/134
f 134/134/134 147/147/147 135/135/135
f 147/147/147 148/148/148 135/135/135
f 135/135/135 148/148/148 136/136/136
f 148/148/148 149/149/149 136/136/136
f 136/136/136 149/149/149 137/137/137
f 149/149/149 150/150/150 137/137/137
f 137/137/137 150/150/150 138/138/138
f 150/150/150 151/151/151 138/138/138
f 138/138/138 151/151/151 139/139/139
f 151/151/151 152/152/152 139/139/139
f 139/139/139 152/152/152 140/140/140
f 152/152/152 153/153/153 140/140/140
f 140/140/140 153/153/153 141/141/141
f 153/153/153 154/154/154 141/141/141
f 141/141/141 154/154/154 142/142/142
f 154/154/154 155/155/155 142/142/142
f 142/142/142 155/155/155 143/143/143
f 155/155/155 156/156/156 143/143/143
f 144/144/144 157/157/157 145/145/145
f 157/157/157 158/158/158 145/145/145
f 145/145/145 158/158/158 146/146/146
f 158/158/158 159/159/159 146/146/146
f 146/146/146 159/159/159 147/147/147
f 159/159/159 160/160/160 147/147/147
f 147/147/147 160/160/160 148/148/148
f 160/160/160 161/161/161 148/148/148
f 148/148/148 161/161/161 149/149/149
f 161/161/161 162/162/162 149/149/149
f 149/149/149 162/162/162 150/150/150
f 162/162/162 163/163/163 150/150/150
f 150/150/150 163/163/163 151/151/151
f 163/163/163 164/164/164 151/151/151
f 151/151/151 164/164/164 152/152/152
f 164/164/164 165/165/165 152/152/152
f 152/152/152 165/165/165 153/153/153
f 165/165/165 166/166/166 153/153/153
f 153/153/153 166/166/166 154/154/154
f 166/166/166 167/167/167 154/154/154
f 154/154/154 167/167/167 155/155/155
f 167/167/167 168/168/168 155/155/155
f 155/155/155 168/168/168 156/156/156
f 168/168/168 169/169/169 156/156/156
f 157/157/157 170/170/170 158/158/158
f 170/170/170 171/171/171 158/158/158
f 158/158/158 171/171/171 159/159/159
f 171/171/171 172/172/172 159/159/159
f 159/159/159 172/172/172 160/160/160
f 172/172/172 173/173/173 160/160/160
f 160/160/160 173/173/173 161/161/161
f 173/173/173 174/174/174 161/161/161
f 161/161/161 174/174/174 162/162/162
f 174/174/174 175/175/175 162/162/162
f 162/162/162 175/175/175 163/163/163
f 175/175/175 176/176/176 163/163/163
f 163/163/163 176/176/176 164/164/164
f 176/176/176 177/177/177 164/164/164
f 164/164/164 177/177/177 165/165/165
f 177/177/177 178/178/178 165/165/165
f 165/165/165 178/178/178 166/166/166
f 178/178/178 179/179/179 166/166/166
f 166/166/166 179/179/179 167/167/167
f 179/179/179 180/180/180 167/167/167
f 167/167/167 180/180/180 168/168/168
f 180/180/180 181/181/181 168/168/168
f 168/168/168 181/181/181 169/169/169
f 181/181/181 182/182/182 169/169/169
f 170/170/170 183/183/183 171/171/171
f 183/183/183 184/184/184 171/171/171
f 171/171/171 184/184/184 172/172/172
f 184/184/184 185/185/185 172/172/172
f 172/172/172 185/185/185 173/173/173
f 185/185/185 186/186/186 173/173/173
f 173/173/173 186/186/186 174/174/174
f 186/186/186 187/187/187 174/174/174
f 174/174/174 187/187/187 175/175/175
f 187/187/187 188/188/188 175/175/175
f 175/175/175 188/188/188 176/176/176
f 188/188/188 189/189/189 176/176/176
f 176/176/176 189/189/189 177/177/177
f 189/189/189 190/190/190 177/177/177
f 177/177/177 190/190/190 178/178/178
f 190/190/190 191/191/191 178/178/178
f 178/178/178 191/191/191 179/179/179
f 191/191/191 192/192/192 179/179/179
f 179/179/179 192/192/192 180/180/180
f 192/192/192 193/193/193 180/180/180
f 180/180/180 193/193/193 181/181/181
f 193/193/193 194/194/194 181/181/181
f 181/181/181 194/194/194 182/182/182
f 194/194/194 195/195/195 182/182/182
f 183/183/183 196/196/196 184/184/184
f 196/196/196 197/197/197 184/184/184
f 184/184/184 197/197/197 185/185/185
f 197/197/197 198/198/198 185/185/185
f 185/185/185 198/198/198 186/186/186
f 198/198/198 199/199/199 186/186/186
f 186/186/186 199/199/199 187/187/187
f 199/199/199 200/200/200 187/187/187
f 187/187/187 200/200/200 188/188/188
f 200/200/200 201/201/201 188/188/188
f 188/188/188 201/201/201 189/189/189
f 201/201/201 202/202/202 189/189/189
f 189/189/189 202/202/202 190/190/190
f 202/202/202 203/203/203 190/190/190
f 190/190/190 203/203/203 191/191/191
f 203/203/203 204/204/204 191/191/191
f 191/191/191 204/204/204 192/192/192
f 204/204/204 205/205/205 192/192/192
f 192/192/192 205/205/205 193/193/193
f 205/205/205 206/206/206 193/193/193
f 193/193/193 206/206/206 194/194/194
f 206/206/206 207/207/207 194/194/194
f 194/194/194 207/207/207 195/195/195
f 207/207/207 208/208/208 195/195/195
f 196/196/196 209/209/209 197/197/197
f 209/209/209 210/210/210 197/197/197
f 197/197/197 210/210/210 198/198/198
f 210/210/210 211/211/211 198/198/198
f 198/198/198 211/211/211 199/199/199
f 211/211/211 212/212/212 199/199/199
f 199/199/199 212/212/212 200/200/200
f 212/212/212 213/213/213 200/200/200
f 200/200/200 213/213/213 201/201/201
f 213/213/213 214/214/214 201/201/201
f 201/201/201 214/214/214 202/202/202
f 214/214/214 215/215/215 202/202/202
f 202/202/202 215/215/215 203/203/203
f 215/215/215 216/216/216 203/203/203
f 203/203/203 216/216/216 204/204/204
f 216/216/216 217/217/217 204/204/204
f 204/204/204 217/217/217 205/205/205
f 217/217/217 218/218/218 205/205/205
f 205/205/205 218/218/218 206/206/206
f 218/218/218 219/219/219 206/206/206
f 206/206/206 219/219/219 207/207/207
f 219/219/219 220/220/220 207/207/207
f 207/207/207 220/220/220 208/208/208
f 220/220/220 221/221/221 208/208/208
f 209/209/209 222/222/222 210/210/210
f 222/222/222 223/223/223 210/210/210
f 210/210/210 223/223/223 211/211/211
f 223/223/223 224/224/224 211/211/211
f 211/211/211 224/224/224 212/212/212
f 224/224/224 225/225/225 212/212/212
f 212/212/212 225/225/225 213/213/213
f 225/225/225 226/226/226 213/213/213
f 213/213/213 226/226/226 214/214/214
f 226/226/226 227/227/227 214/214/214
f 214/214/214 227/227/227 215/215/215
f 227/227/227 228/228/228 215/215/215
f 215/215/215 228/228/228 216/216/216
f 228/228/228 229/229/229 216/216/216
f 216/216/216 229/229/229 217/217/217
f 229/229/229 230/230/230 217/217/217
f 217/217/217 230/230/230 218/218/218
f 230/230/230 231/231/231 218/218/218
f 218/218/218 231/231/231 219/219/219
f 231/231/231 232/232/232 219/219/219
f 219/219/219 232/232/232 220/220/220
f 232/232/232 233/233/233 220/220/220
f 220/220/220 233/233/233 221/221/221
f 233/233/233 234/234/234 221/221/221
f 222/222/222 235/235/235 223/223/223
f 235/235/235 236/236/236 223/223/223
f 223/223/223 236/236/236 224/224/224
f 236/236/236 237/237/237 224/224/224
f 224/224/224 237/237/237 225/225/225
f 237/237/237 238/238/238 225/225/225
f 225/225/225 238/238/238 226/226/226
f 238/238/238 239/239/239 226/226/226
f 226/226/226 239/239/239 227/227/227
f 239/239/239 240/240/240 227/227/227
f 227/227/227 240/240/240 228/228/228
f 240/240/240 241/241/241 228/228/228
f 228/228/228 241/241/241 229/229/229
f 241/241/241 242/242/242 229/229/229
f 229/229/229 242/242/242 230/230/230
f 242/242/242 243/243/243 230/230/230
f 230/230/230 243/243/243 231/231/231
f 243/243/243 244/244/244 231/231/231
f 231/231/231 244/244/244 232/232/232
f 244/244/244 245/245/245 232/232/232
f 232/232/232 245/245/245 233/233/233
f 245/245/245 246/246/246 233/233/233
f 233/233/233 246/246/246 234/234/234
f 246/246/246 247/247/247 234/234/234
f 235/235/235 248/248/248 236/236/236
f 248/248/248 249/249/249 236/236/236
f 236/236/236 249/249/249 237/237/237
f 249/249/249 250/250/250 237/237/237
f 237/237/237 250/250/250 238/238/238
f 250/250/250 251/251/251 238/238/238
f 238/238/238 251/251/251 239/239/239
f 251/251/251 252/252/252 239/239/239
f 239/239/239 252/252/252 240/240/240
f 252/252/252 253/253/253 240/240/240
f 240/240/240 253/253/253 241/241/241
f 253/253/253 254/254/254 241/241/241
f 241/241/241 254/254/254 242/242/242
f 254/254/254 255/255/255 242/242/242
f 242/242/242 255/255/255 243/243/243
f 255/255/255 256/256/256 243/243/243
f 243/243/243 256/256/256 244/244/244
f 256/256/256 257/257/257 244/244/244
f 244/244/244 257/257/257 245/245/245
f 257/257/257 258/258/258 245/245/245
f 245/245/245 258/258/258 246/246/246
f 258/258/258 259/259/259 246/246/246
f 246/246/246 259/259/259 247/247/247
f 259/259/259 260/260/260 247/247/247
f 248/248/248 261/261/261 249/249/249
f 261/261/261 262/262/262 249/249/249
f 249/249/249 262/262/262 250/250/250
f 262/262/262 263/263/263 250/250/250
f 250/250/250 263/263/263 251/251/251
f 263/263/263 264/264/264 251/251/251
f 251/251/251 264/264/264 252/252/252
f 264/264/264 265/265/265 252/252/252
f 252/252/252 265/265/265 253/253/253
f 265/265/265 266/266/266 253/253/253
f 253/253/253 266/266/266 254/254/254
f 266/266/266 267/267/267 254/254/254
f 254/254/254 267/267/267 255/255/255
f 267/267/267 268/268/268 255/255/255
f 255/255/255 268/268/268 256/256/256
f 268/268/268 269/269/269 256/256/256
f 256/256/256 269/269/269 257/257/257
f 269/269/269 270/270/270 257/257/257
f 257/257/257 270/270/270 258/258/258
f 270/270/270 271/271/271 258/258/258
f 258/258/258 271/271/271 259/259/259
f 271/271/271 272/272/272 259/259/259
f 259/259/259 272/272/272 260/260/260
f 272/272/272 273/273/273 260/260/260
f 261/261/261 274/274/274 262/262/262
f 274/274/274 275/275/275 262/262/262
f 262/262/262 275/275/275 263/263/263
f 275/275/275 276/276/276 263/263/263
f 263/263/263 276/276/276 264/264/264
f 276/276/276 277/277/277 264/264/264
f 264/264/264 277/277/277 265/265/265
f 277/277/277 278/278/278 265/265/265
f 265/265/265 278/278/278 266/266/266
f 278/278/278 279/279/279 266/266/266
f 266/266/266 279/279/279 267/267/267
f 279/279/279 280/280/280 267/267/267
f 267/267/267 280/280/280 268/268/268
f 280/280/280 281/281/281 268/268/268
f 268/268/268 281/281/281 269/269/269
f 281/281/281 282/282/282 269/269/269
f 269/269/269 282/282/282 270/270/270
f 282/282/282 283/283/283 270/270/270
f 270/270/270 283/283/283 271/271/271
f 283/283/283 284/284/284 271/271/271
f 271/271/271 284/284/284 272/272/272
f 284/284/284 285/285/285 272/272/272
f 272/272/272 285/285/285 273/273/273
f 285/285/285 286/286/286 273/273/273
f 274/274/274 287/287/287 275/275/275
f 287/287/287 288/288/288 275/275/275
f 275/275/275 288/288/288 276/276/276
f 288/288/288 289/289/289 276/276/276
f 276/276/276 289/289/289 277/277/277
f 289/289/289 290/290/290 277/277/277
f 277/277/277 290/290/290 278/278/278
f 290/290/290 291/291/291 278/278/278
f 278/278/278 291/291/291 279/279/279
f 291/291/291 292/292/292 279/279/279
f 279/279/279 292/292/292 280/280/280
f 292/292/292 293/293/293 280/280/280
f 280/280/280 293/293/293 281/281/281
f 293/293/293 294/294/294 281/281/281
f 281/281/281 294/294/294 282/282/282
f 294/294/294 295/295/295 282/282/282
f 282/282/282 295/295/295 283/283/283
f 295/295/295 296/296/296 283/283/283
f 283/283/283 296/296/296 284/284/284
f 296/296/296 297/297/297 284/284/284
f 284/284/284 297/297/297 285/285/285
f 297/297/297 298/298/298 285/285/285
f 285/285/285 298/298/298 286/286/286
f 298/298/298 299/299/299 286/286/286
f 287/287/287 300/300/300 288/288/288
f 300/300/300 301/301/301 288/288/288
f 288/288/288 301/301/301 289/289/289
f 301/301/301 302/302/302 289/289/289
f 289/289/289 302/302/302 290/290/290
f 302/302/302 303/303/303 290/290/290
f 290/290/290 303/303/303 291/291/291
f 303/303/303 304/304/304 291/291/291
f 291/291/291 304/304/304 292/292/292
f 304/304/304 305/305/305 292/292/292
f 292/292/292 305/305/305 293/293/293
f 305/305/305 306/306/306 293/293/293
f 293/293/293 306/306/306 294/294/294
f 306/306/306 307/307/307 294/294/294
f 294/294/294 307/307/307 295/295/295
f 307/307/307 308/308/308 295/295/295
f 295/295/295 308/308/308 296/296/296
f 308/308/308 309/309/309 296/296/296
f 296/296/296 309/309/309 297/297/297
f 309/309/309 310/310/310 297/297/297
f 297/297/297 310/310/310 298/298/298
f 310/310/310 311/311/311 298/298/298
f 298/298/298 311/311/311 299/299/299
f 311/311/311 312/312/312 299/299/299
f 300/300/300 313/313/313 301/301/301
f 313/313/313 314/314/314 301/301/301
f 301/301/301 314/314/314 302/302/302
f 314/314/314 315/315/315 302/302/302
f 302/302/302 315/315/315 303/303/303
f 315/315/315 316/316/316 303/303/303
f 303/303/303 316/316/316 304/304/304
f 316/316/316 317/317/317 304/304/304
f 304/304/304 317/317/317 305/305/305
f 317/317/317 318/318/318 305/305/305
f 305/305/305 318/318/318 306/306/306
f 318/318/318 319/319/319 306/306/306
f 306/306/306 319/319/319 307/307/307
f 319/319/319 320/320/320 307/307/307
f 307/307/307 320/320/320 308/308/308
f 320/320/320 321/321/321 308/308/308
f 308/308/308 321/321/321 309/309/309
f 321/321/321 322/322/322 309/309/309
f 309/309/309 322/322/322 310/310/310
f 322/322/322 323/323/323 310/310/310
f 310/310/310 323/323/323 311/311/311
f 323/323/323 324/324/324 311/311/311
f 311/311/311 324/324/324 312/312/312
f 324/324/324 325/325/325 312/312/312
f 313/313/313 326/326/326 314/314/314
f 326/326/326 327/327/327 314/314/314
f 314/314/314 327/327/327 315/315/315
f 327/327/327 328/328/328 315/315/315
f 315/315/315 328/328/328 316/316/316
f 328/328/328 329/329/329 316/316/316
f 316/316/316 329/329/329 317/317/317
f 329/329/329 330/330/330 317/317/317
f 317/317/317 330/330/330 318/318/318
f 330/330/330 331/331/331 318/318/318
f 318/318/318 331/331/331 319/319/319
f 331/331/331 332/332/332 319/319/319
f 319/319/319 332/332/332 320/320/320
f 332/332/332 333/333/333 320/320/320
f 320/320/320 333/333/333 321/321/321
f 333/333/333 334/334/334 321/321/321
f 321/321/321 334/334/334 322/322/322
f 334/334/334 335/335/335 322/322/322
f 322/322/322 335/335/335 323/323/323
f 335/335/335 336/336/336 323/323/323
f 323/323/323 336/336/336 324/324/324
f 336/336/336 337/337/337 324/324/324
f 324/324/324 337/337/337 325/325/325
f 337/337/337 338/338/338 325/325/325
f 326/326/326 339/339/339 327/327/327
f 339/339/339 340/340/340 327/327/327
f 327/327/327 340/340/340 328/328/328
f 340/340/340 341/341/341 328/328/328
f 328/328/328 341/341/341 329/329/329
f 341/341/341 342/342/342 329/329/329
f 329/329/329 342/342/342 330/330/330
f 342/342/342 343/343/343 330/330/330
f 330/330/330 343/343/343 331/331/331
f 343/343/343 344/344/344 331/331/331
f 331/331/331 344/344/344 332/332/332
f 344/344/344 345/345/345 332/332/332
f 332/332/332 345/345/345 333/333/333
f 345/345/345 346/346/346 333/333/333
f 333/333/333 346/346/346 334/334/334
f 346/346/346 347/347/347 334/334/334
f 334/334/334 347/347/347 335/335/335
f 347/347/347 348/348/348 335/335/335
f 335/335/335 348/348/348 336/336/336
f 348/348/348 349/349/349 336/336/336
f 336/336/336 349/349/349 337/337/337
f 349/349/349 350/350/350 337/337/337
f 337/337/337 350/350/350 338/338/338
f 350/350/350 351/351/351 338/338/338
f 339/339/339 352/352/352 340/340/340
f 352/352/352 353/353/353 340/340/340
f 340/340/340 353/353/353 341/341/341
f 353/353/353 354/354/354 341/341/341
f 341/341/341 354/354/354 342/342/342
f 354/354/354 355/355/355 342/342/342
f 342/342/342 355/355/355 343/343/343
f 355/355/355 356/356/356 343/343/343
f 343/343/343 356/356/356 344/344/344
f 356/356/356 357/357/357 344/344/344
f 344/344/344 357/357/357 345/345/345
f 357/357/357 358/358/358 345/345/345
f 345/345/345 358/358/358 346/346/346
f 358/358/358 359/359/359 346/346/346
f 346/346/346 359/359/359 347/347/347
f 359/359/359 360/360/360 347/347/347
f 347/347/347 360/360/360 348/348/348
f 360/360/360 361/361/361 348/348/348
f 348/348/348 361/361/361 349/349/349
f 361/361/361 362/362/362 349/349/349
f 349/349/349 362/362/362 350/350/350
f 362/362/362 363/363/363 350/350/350
f 350/350/350 363/363/363 351/351/351
f 363/363/363 364/364/364 351/351/351
f 352/352/352 365/365/365 353/353/353
f 365/365/365 366/366/366 353/353/353
f 353/353/353 366/366/366 354/354/354
f 366/366/366 367/367/367 354/354/354
f 354/354/354 367/367/367 355/355/355
f 367/367/367 368/368/368 355/355/355
f 355/355/355 368/368/368 356/356/356
f 368/368/368 369/369/369 356/356/356
f 356/356/356 369/369/369 357/357/357
f 369/369/369 370/370/370 357/357/357
f 357/357/357 370/370/370 358/358/358
f 370/370/370 371/371/371 358/358/358
f 358/358/358 371/371/371 359/359/359
f 371/371/371 372/372/372 359/359/359
f 359/359/359 372/372/372 360/360/360
f 372/372/372 373/373/373 360/360/360
f 360/360/360 373/373/373 361/361/361
f 373/373/373 374/374/374 361/361/361
f 361/361/361 374/374/374 362/362/362
f 374/374/374 375/375/375 362/362/362
f 362/362/362 375/375/375 363/363/363
f 375/375/375 376/376/376 363/363/363
f 363/363/363 376/376/376 364/364/364
f 376/376/376 377/377/377 364/364/364
f 365/365/365 378/378/378 366/366/366
f 378/378/378 379/379/379 366/366/366
f 366/366/366 379/379/379 367/367/367
f 379/379/379 380/380/380 367/367/367
f 367/367/367 380/380/380 368/368/368
f 380/380/380 381/381/381 368/368/368
f 368/368/368 381/381/381 369/369/369
f 381/381/381 382/382/382 369/369/369
f 369/369/369 382/382/382 370/370/370
f 382/382/382 383/383/383 370/370/370
f 370/370/370 383/383/383 371/371/371
f 383/383/383 384/384/384 371/371/371
f 371/371/371 384/384/384 372/372/372
f 384/384/384 385/385/385 372/372/372
f 372/372/372 385/385/385 373/373/373
f 385/385/385 386/386/386 373/373/373
f 373/373/373 386/386/386 374/374/374
f 386/386/386 387/387/387 374/374/374
f 374/374/374 387/387/387 375/375/375
f 387/387/387 388/388/388 375/375/375
f 375/375/375 388/388/388 376/376/376
f 388/388/388 389/389/389 376/376/376
f 376/376/376 389/389/389 377/377/377
f 389/389/389 390/390/390 377/377/377
f 378/378/378 391/391/391 379/379/379
f 391/391/391 392/392/392 379/379/379
f 379/379/379 392/392/392 380/380/380
f 392/392/392 393/393/393 380/380/380
f 380/380/380 393/393/393 381/381/381
f 393/393/393 394/394/394 381/381/381
f 381/381/381 394/394/394 382/382/382
f 394/394/394 395/395/395 382/382/382
f 382/382/382 395/395/395 383/383/383
f 395/395/395 396/396/396 383/383/383
f 383/383/383 396/396/396 384/384/384
f 396/396/396 397/397/397 384/384/384
f 384/384/384 397/397/397 385/385/385
f 397/397/397 398/398/398 385/385/385
f 385/385/385 398/398/398 386/386/386
f 398/398/398 399/399/399 386/386/386
f 386/386/386 399/399/399 387/387/387
f 399/399/399 400/400/400 387/387/387
f 387/387/387 400/400/400 388/388/388
f 400/400/400 401/401/401 388/388/388
f 388/388/388 401/401/401 389/389/389
f 401/401/401 402/402/402 389/389/389
f 389/389/389 402/402/402 390/390/390
f 402/402/402 403/403/403 390/390/390
f 391/391/391 404/404/404 392/392/392
f 404/404/404 405/405/405 392/392/392
f 392/392/392 405/405/405 393/393/393
f 405/405/405 406/406/406 393/393/393
f 393/393/393 406/406/406 394/394/394
f 406/406/406 407/407/407 394/394/394
f 394/394/394 407/407/407 395/395/395
f 407/407/407 408/408/408 395/395/395
f 395/395/395 408/408/408 396/396/396
f 408/408/408 409/409/409 396/396/396
f 396/396/396 409/409/409 397/397/397
f 409/409/409 410/410/410 397/397/397
f 397/397/397 410/410/410 398/398/398
f 410/410/410 411/411/411 398/398/398
f 398/398/398 411/411/411 399/399/399
f 411/411/411 412/412/412 399/399/399
f 399/399/399 412/412/412 400/400/400
f 412/412/412 413/413/413 400/400/400
f 400/400/400 413/413/413 401/401/401
f 413/413/413 414/414/414 401/401/401
f 401/401/401 414/414/414 402/402/402
f 414/414/414 415/415/415 402/402/402
f 402/402/402 415/415/415 403/403/403
f 415/415/415 416/416/416 403/403/403
f 404/404/404 417/417/417 405/405/405
f 417/417/417 418/418/418 405/405/405
f 405/405/405 418/418/418 406/406/406
f 418/418/418 419/419/419 406/406/406
f 406/406/406 419/419/419 407/407/407
f 419/419/419 420/420/420 407/407/407
f 407/407/407 420/420/420 408/408/408
f 420/420/420 421/421/421 408/408/408
f 408/408/408 421/421/421 409/409/409
f 421/421/421 422/422/422 409/409/409
f 409/409/409 422/422/422 410/410/410
f 422/422/422 423/423/423 410/410/410
f 410/410/410 423/423/423 411/411/411
f 423/423/423 424/424/424 411/411/411
f 411/411/411 424/424/424 412/412/412
f 424/424/424 425/425/425 412/412/412
f 412/412/412 425/425/425 413/413/413
f 425/425/425 426/426/426 413/413/413
f 413/413/413 426/426/426 414/414/414
f 426/426/426 427/427/427 414/414/414
f 414/414/414 427/427/427 415/415/415
f 427/427/427 428/428/428 415/415/415
f 415/415/415 428/428/428 416/416/416
f 428/428/428 429/429/429 416/416/416
f 417/417/417 430/430/430 418/418/418
f 430/430/430 431/431/431 418/418/418
f 418/418/418 431/431/431 419/419/419
f 431/431/431 432/432/432 419/419/419
f 419/419/419 432/432/432 420/420/420
f 432/432/432 433/433/433 420/420/420
f 420/420/420 433/433/433 421/421/421
f 433/433/433 434/434/434 421/421/421
f 421/421/421 434/434/434 422/422/422
f 434/434/434 435/435/435 422/422/422
f 422/422/422 435/435/435 423/423/423
f 435/435/435 436/436/436 423/423/423
f 423/423/423 436/436/436 424/424/424
f 436/436/436 437/437/437 424/424/424
f 424/424/424 437/437/437 425/425/425
f 437/437/437 438/438/438 425/425/425
f 425/425/425 438/438/438 426/426/426
f 438/438/438 439/439/439 426/426/426
f 426/426/426 439/439/439 427/427/427
f 439/439/439 440/440/440 427/427/427
f 427/427/427 440/440/440 428/428/428
f 440/440/440 441/441/441 428/428/428
f 428/428/428 441/441/441 429/429/429
f 441/441/441 442/442/442 429/429/429
f 430/430/430 443/443/443 431/431/431
f 443/443/443 444/444/444 431/431/431
f 431/431/431 444/444/444 432/432/432
f 444/444/444 445/445/445 432/432/432
f 432/432/432 445/445/445 433/433/433
f 445/445/445 446/446/446 433/433/433
f 433/433/433 446/446/446 434/434/434
f 446/446/446 447/447/447 434/434/434
f 434/434/434 447/447/447 435/435/435
f 447/447/447 448/448/448 435/435/435
f 435/435/435 448/448/448 436/436/436
f 448/448/448 449/449/449 436/436/436
f 436/436/436 449/449/449 437/437/437
f 449/449/449 450/450/450 437/437/437
f 437/437/437 450/450/450 438/438/438
f 450/450/450 451/451/451 438/438/438
f 438/438/438 451/451/451 439/439/439
f 451/451/451 452/452/452 439/439/439
f 439/439/439 452/452/452 440/440/440
f 452/452/452 453/453/453 440/440/440
f 440/440/440 453/453/453 441/441/441
f 453/453/453 454/454/454 441/441/441
f 441/441/441 454/454/454 442/442/442
f 454/454/454 455/455/455 442/442/442
f 443/443/443 456/456/456 444/444/444
f 456/456/456 457/457/457 444/444/444
f 444/444/444 457/457/457 445/445/445
f 457/457/457 458/458/458 445/445/445
f 445/445/445 458/458/458 446/446/446
f 458/458/458 459/459/459 446/446/446
f 446/446/446 459/459/459 447/447/447
f 459/459/459 460/460/460 447/447/447
f 447/447/447 460/460/460 448/448/448
f 460/460/460 461/461/461 448/448/448
f 448/448/448 461/461/461 449/449/449
f 461/461/461 462/462/462 449/449/449
f 449/449/449 462/462/462 450/450/450
f 462/462/462 463/463/463 450/450/450
f 450/450/450 463/463/463 451/451/451
f 463/463/463 464/464/464 451/451/451
f 451/451/451 464/464/464 452/452/452
f 464/464/464 465/465/465 452/452/452
f 452/452/452 465/465/465 453/453/453
f 465/465/465 466/466/466 453/453/453
f 453/453/453 466/466/466 454/454/454
f 466/466/466 467/467/467 454/454/454
f 454/454/454 467/467/467 455/455/455
f 467/467/467 468/468/468 455/455/455
f 456/456/456 469/469/469 457/457/457
f 469/469/469 470/470/470 457/457/457
f 457/457/457 470/470/470 458/458/458
f 470/470/470 471/471/471 458/458/458
f 458/458/458 471/471/471 459/459/459
f 471/471/471 472/472/472 459/459/459
f 459/459/459 472/472/472 460/460/460
f 472/472/472 473/473/473 460/460/460
f 460/460/460 473/473/473 461/461/461
f 473/473/473 474/474/474 461/461/461
f 461/461/461 474/474/474 462/462/462
f 474/474/474 475/475/475 462/462/462
f 462/462/462 475/475/475 463/463/463
f 475/475/475 476/476/476 463/463/463
f 463/463/463 476/476/476 464/464/464
f 476/476/476 477/477/477 464/464/464
f 464/464/464 477/477/477 465/465/465
f 477/477/477 478/478/478 465/465/465
f 465/465/465 478/478/478 466/466/466
f 478/478/478 479/479/479 466/466/466
f 466/466/466 479/479/479 467/467/467
f 479/479/479 480/480/480 467/467/467
f 467/467/467 480/480/480 468/468/468
f 480/480/480 481/481/481 468/468/468
f 469/469/469 482/482/482 470/470/470
f 482/482/482 483/483/483 470/470/470
f 470/470/470 483/483/483 471/471/471
f 483/483/483 484/484/484 471/471/471
f 471/471/471 484/484/484 472/472/472
f 484/484/484 485/485/485 472/472/472
f 472/472/472 485/485/485 473/473/473
f 485/485/485 486/486/486 473/473/473
f 473/473/473 486/486/486 474/474/474
f 486/486/486 487/487/487 474/474/474
f 474/474/474 487/487/487 475/475/475
f 487/487/487 488/488/488 475/475/475
f 475/475/475 488/488/488 476/476/476
f 488/488/488 489/489/489 476/476/476
f 476/476/476 489/489/489 477/477/477
f 489/489/489 490/490/490 477/477/477
f 477/477/477 490/490/490 478/478/478
f 490/490/490 491/491/491 478/478/478
f 478/478/478 491/491/491 479/479/479
f 491/491/491 492/492/492 479/479/479
f 479/479/479 492/492/492 480/480/480
f 492/492/492 493/493/493 480/480/480
f 480/480/480 493/493/493 481/481/481
f 493/493/493 494/494/494 481/481/481
f 482/482/482 495/495/495 483/483/483
f 495/495/495 496/496/496 483/483/483
f 483/483/483 496/496/496 484/484/484
f 496/496/496 497/497/497 484/484/484
f 484/484/484 497/497/497 485/485/485
f 497/497/497 498/498/498 485/485/485
f 485/485/485 498/498/498 486/486/486
f 498/498/498 499/499/499 486/486/486
f 486/486/486 499/499/499 487/487/487
f 499/499/499 500/500/500 487/487/487
f 487/487/487 500/500/500 488/488/488
f 500/500/500 501/501/501 488/488/488
f 488/488/488 501/501/501 489/489/489
f 501/501/501 502/502/502 489/489/489
f 489/489/489 502/502/502 490/490/490
f 502/502/502 503/503/503 490/490/490
f 490/490/490 503/503/503 491/491/491
f 503/503/503 504/504/504 491/491/491
f 491/491/491 504/504/504 492/492/492
f 504/504/504 505/505/505 492/492/492
f 492/492/492 505/505/505 493/493/493
f 505/505/505 506/506/506 493/493/493
f 493/493/493 506/506/506 494/494/494
f 506/506/506 507/507/507 494/494/494
f 495/495/495 508/508/508 496/496/496
f 508/508/508 509/509/509 496/496/496
f 496/496/496 509/509/509 497/497/497
f 509/509/509 510/510/510 497/497/497
f 497/497/497 510/510/510 498/498/498
f 510/510/510 511/511/511 498/498/498
f 498/498/498 511/511/511 499/499/499
f 511/511/511 512/512/512 499/499/499
f 499/499/499 512/512/512 500/500/500
f 512/512/512 513/513/513 500/500/500
f 500/500/500 513/513/513 501/501/501
f 513/513/513 514/514/514 501/501/501
f 501/501/501 514/514/514 502/502/502
f 514/514/514 515/515/515 502/502/502
f 502/502/502 515/515/515 503/503/503
f 515/515/515 516/516/516 503/503/503
f 503/503/503 516/516/516 504/504/504
f 516/516/516 517/517/517 504/504/504
f 504/504/504 517/517/517 505/505/505
f 517/517/517 518/518/518 505/505/505
f 505/505/505 518/518/518 506/506/506
f 518/518/518 519/519/519 506/506/506
f 506/506/506 519/519/519 507/507/507
f 519/519/519 520/520/520 507/507/507
f 508/508/508 521/521/521 509/509/509
f 521/521/521 522/522/522 509/509/509
f 509/509/509 522/522/522 510/510/510
f 522/522/522 523/523/523 510/510/510
f 510/510/510 523/523/523 511/511/511
f 523/523/523 524/524/524 511/511/511
f 511/511/511 524/524/524 512/512/512
f 524/524/524 525/525/525 512/512/512
f 512/512/512 525/525/525 513/513/513
f 525/525/525 526/526/526 513/513/513
f 513/513/513 526/526/526 514/514/514
f 526/526/526 527/527/527 514/514/514
f 514/514/514 527/527/527 515/515/515
f 527/527/527 528/528/528 515/515/515
f 515/515/515 528/528/528 516/516/516
f 528/528/528 529/529/529 516/516/516
f 516/516/516 529/529/529 517/517/517
f 529/529/529 530/530/530 517/517/517
f 517/517/517 530/530/530 518/518/518
f 530/530/530 531/531/531 518/518/518
f 518/518/518 531/531/531 519/519/519
f 531/531/531 532/532/532 519/519/519
f 519/519/519 532/532/532 520/520/520
f 532/532/532 533/533/533 520/520/520
f 521/521/521 534/534/534 522/522/522
f 534/534/534 535/535/535 522/522/522
f 522/522/522 535/535/535 523/523/523
f 535/535/535 536/536/536 523/523/523
f 523/523/523 536/536/536 524/524/524
f 536/536/536 537/537/537 524/524/524
f 524/524/524 537/537/537 525/525/525
f 537/537/537 538/538/538 525/525/525
f 525/525/525 538/538/538 526/526/526
f 538/538/538 539/539/539 526/526/526
f 526/526/526 539/539/539 527/527/527
f 539/539/539 540/540/540 527/527/527
f 527/527/527 540/540/540 528/528/528
f 540/540/540 541/541/541 528/528/528
f 528/528/528 541/541/541 529/529/529
f 541/541/541 542/542/542 529/529/529
f 529/529/529 542/542/542 530/530/530
f 542/542/542 543/543/543 530/530/530
f 530/530/530 543/543/543 531/531/531
f 543/543/543 544/544/544 531/531/531
f 531/531/531 544/544/544 532/532/532
f 544/544/544 545/545/545 532/532/532
f 532/532/532 545/545/545 533/533/533
f 545/545/545 546/546/546 533/533/533
f 534/534/534 547/547/547 535/535/535
f 547/547/547 548/548/548 535/535/535
f 535/535/535 548/548/548 536/536/536
f 548/548/548 549/549/549 536/536/536
f 536/536/536 549/549/549 537/537/537
f 549/549/549 550/550/550 537/537/537
f 537/537/537 550/550/550 538/538/538
f 550/550/550 551/551/551 538/538/538
f 538/538/538 551/551/551 539/539/539
f 551/551/551 552/552/552 539/539/539
f 539/539/539 552/552/552 540/540/540
f 552/552/552 553/553/553 540/540/540
f 540/540/540 553/553/553 541/541/541
f 553/553/553 554/554/554 541/541/541
f 541/541/541 554/554/554 542/542/542
f 554/554/554 555/555/555 542/542/542
f 542/542/542 555/555/555 543/543/543
f 555/555/555 556/556/556 543/543/543
f 543/543/543 556/556/556 544/544/544
f 556/556/556 557/557/557 544/544/544
f 544/544/544 557/557/557 545/545/545
f 557/557/557 558/558/558 545/545/545
f 545/545/545 558/558/558 546/546/546
f 558/558/558 559/559/559 546/546/546
f 547/547/547 560/560/560 548/548/548
f 560/560/560 561/561/561 548/548/548
f 548/548/548 561/561/561 549/549/549
f 561/561/561 562/562/562 549/549/549
f 549/549/549 562/562/562 550/550/550
f 562/562/562 563/563/563 550/550/550
f 550/550/550 563/563/563 551/551/551
f 563/563/563 564/564/564 551/551/551
f 551/551/551 564/564/564 552/552/552
f 564/564/564 565/565/565 552/552/552
f 552/552/552 565/565/565 553/553/553
f 565/565/565 566/566/566 553/553/553
f 553/553/553 566/566/566 554/554/554
f 566/566/566 567/567/567 554/554/554
f 554/554/554 567/567/567 555/555/555
f 567/567/567 568/568/568 555/555/555
f 555/555/555 568/568/568 556/556/556
f 568/568/568 569/569/569 556/556/556
f 556/556/556 569/569/569 557/557/557
f 569/569/569 570/570/570 557/557/557
f 557/557/557 570/570/570 558/558/558
f 570/570/570 571/571/571 558/558/558
f 558/558/558 571/571/571 559/559/559
f 571/571/571 572/572/572 559/559/559
f 560/560/560 573/573/573 561/561/561
f 573/573/573 574/574/574 561/561/561
f 561/561/561 574/574/574 562/562/562
f 574/574/574 575/575/575 562/562/562
f 562/562/562 575/575/575 563/563/563
f 575/575/575 576/576/576 563/563/563
f 563/563/563 576/576/576 564/564/564
f 576/576/576 577/577/577 564/564/564
f 564/564/564 577/577/577 565/565/565
f 577/577/577 578/578/578 565/565/565
f 565/565/565 578/578/578 566/566/566
f 578/578/578 579/579/579 566/566/566
f 566/566/566 579/579/579 567/567/567
f 579/579/579 580/580/580 567/567/567
f 567/567/567 580/580/580 568/568/568
f 580/580/580 581/581/581 568/568/568
f 568/568/568 581/581/581 569/569/569
f 581/581/581 582/582/582 569/569/569
f 569/569/569 582/582/582 570/570/570
f 582/582/582 583/583/583 570/570/570
f 570/570/570 583/583/583 571/571/571
f 583/583/583 584/584/584 571/571/571
f 571/571/571 584/584/584 572/572/572
f 584/584/584 585/585/585 572/572/572
f 573/573/573 586/586/586 574/574/574
f 586/586/586 587/587/587 574/574/574
f 574/574/574 587/587/587 575/575/575
f 587/587/587 588/588/588 575/575/575
f 575/575/575 588/588/588 576/576/576
f 588/588/588 589/589/589 576/576/576
f 576/576/576 589/589/589 577/577/577
f 589/589/589 590/590/590 577/577/577
f 577/577/577 590/590/590 578/578/578
f 590/590/590 591/591/591 578/578/578
f 578/578/578 591/591/591 579/579/579
f 591/591/591 592/592/592 579/579/579
f 579/579/579 592/592/592 580/580/580
f 592/592/592 593/593/593 580/580/580
f 580/580/580 593/593/593 581/581/581
f 593/593/593 594/594/594 581/581/581
f 581/581/581 594/594/594 582/582/582
f 594/594/594 595/595/595 582/582/582
f 582/582/582 595/595/595 583/583/583
f 595/595/595 596/596/596 583/583/583
f 583/583/583 596/596/596 584/584/584
f 596/596/596 597/597/597 584/584/584
f 584/584/584 597/597/597 585/585/585
f 597/597/597 598/598/598 585/585/585
f 586/586/586 599/599/599 587/587/587
f 599/599/599 600/600/600 587/587/587
f 587/587/587 600/600/600 588/588/588
f 600/600/600 601/601/601 588/588/588
f 588/588/588 601/601/601 589/589/589
f 601/601/601 602/602/602 589/589/589
f 589/589/589 602/602/602 590/590/590
f 602/602/602 603/603/603 590/590/590
f 590/590/590 603/603/603 591/591/591
f 603/603/603 604/604/604 591/591/591
f 591/591/591 604/604/604 592/592/592
f 604/604/604 605/605/605 592/592/592
f 592/592/592 605/605/605 593/593/593
f 605/605/605 606/606/606 593/593/593
f 593/593/593 606/606/606 594/594/594
f 606/606/606 607/607/607 594/594/594
f 594/594/594 607/607/607 595/595/595
f 607/607/607 608/608/608 595/595/595
f 595/595/595 608/608/608 596/596/596
f 608/608/608 609/609/609 596/596/596
f 596/596/596 609/609/609 597/597/597
f 609/609/609 610/610/610 597/597/597
f 597/597/597 610/610/610 598/598/598
f 610/610/610 611/611/611 598/598/598
f 599/599/599 612/612/612 600/600/600
f 612/612/612 613/613/613 600/600/600
f 600/600/600 613/613/613 601/601/601
f 613/613/613 614/614/614 601/601/601
f 601/601/601 614/614/614 602/602/602
f 614/614/614 615/615/615 602/602/602
f 602/602/602 615/615/615 603/603/603
f 615/615/615 616/616/616 603/603/603
f 603/603/603 616/616/616 604/604/604
f 616/616/616 617/617/617 604/604/604
f 604/604/604 617/617/617 605/605/605
f 617/617/617 618/618/618 605/605/605
f 605/605/605 618/618/618 606/606/606
f 618/618/618 619/619/619 606/606/606
f 606/606/606 619/619/619 607/607/607
f 619/619/619 620/620/620 607/607/607
f 607/607/607 620/620/620 608/608/608
f 620/620/620 621/621/621 608/608/608
f 608/608/608 621/621/621 609/609/609
f 621/621/621 622/622/622 609/609/609
f 609/609/609 622/622/622 610/610/610
f 622/622/622 623/623/623 610/610/610
f 610/610/610 623/623/623 611/611/611
f 623/623/623 624/624/624 611/611/611
f 612/612/612 625/625/625 613/613/613
f 625/625/625 626/626/626 613/613/613
f 613/613/613 626/626/626 614/614/614
f 626/626/626 627/627/627 614/614/614
f 614/614/614 627/627/627 615/615/615
f 627/627/627 628/628/628 615/615/615
f 615/615/615 628/628/628 616/616/616
f 628/628/628 629/629/629 616/616/616
f 616/616/616 629/629/629 617/617/617
f 629/629/629 630/630/630 617/617/617
f 617/617/617 630/630/630 618/618/618
f 630/630/630 631/631/631 618/618/618
f 618/618/618 631/631/631 619/619/619
f 631/631/631 632/632/632 619/619/619
f 619/619/619 632/632/632 620/620/620
f 632/632/632 633/633/633 620/620/620
f 620/620/620 633/633/633 621/621/621
f 633/633/633 634/634/634 621/621/621
f 621/621/621 634/634/634 622/622/622
f 634/634/634 635/635/635 622/622/622
f 622/622/622 635/635/635 623/623/623
f 635/635/635 636/636/636 623/623/623
f 623/623/623 636/636/636 624/624/624
f 636/636/636 637/637/637 624/624/624
