# studio VFX Rank Zero / Poing du Dragon, mesh genere (meshes.py)
v 1.00000 0.00000 0.00000
v 1.00000 0.15000 0.00000
v 1.00000 0.30000 0.00000
v 1.00000 0.45000 0.00000
v 0.99786 0.00000 0.06540
v 0.99786 0.18144 0.06540
v 0.99786 0.36288 0.06540
v 0.99786 0.54431 0.06540
v 0.99144 0.00000 0.13053
v 0.99144 0.29457 0.13053
v 0.99144 0.58915 0.13053
v 0.99144 0.88372 0.13053
v 0.98079 0.00000 0.19509
v 0.98079 0.32297 0.19509
v 0.98079 0.64593 0.19509
v 0.98079 0.96890 0.19509
v 0.96593 0.00000 0.25882
v 0.96593 0.21482 0.25882
v 0.96593 0.42964 0.25882
v 0.96593 0.64445 0.25882
v 0.94693 0.00000 0.32144
v 0.94693 0.15136 0.32144
v 0.94693 0.30272 0.32144
v 0.94693 0.45408 0.32144
v 0.92388 0.00000 0.38268
v 0.92388 0.16027 0.38268
v 0.92388 0.32055 0.38268
v 0.92388 0.48082 0.38268
v 0.89687 0.00000 0.44229
v 0.89687 0.25539 0.44229
v 0.89687 0.51077 0.44229
v 0.89687 0.76616 0.44229
v 0.86603 0.00000 0.50000
v 0.86603 0.33333 0.50000
v 0.86603 0.66667 0.50000
v 0.86603 1.00000 0.50000
v 0.83147 0.00000 0.55557
v 0.83147 0.25539 0.55557
v 0.83147 0.51077 0.55557
v 0.83147 0.76616 0.55557
v 0.79335 0.00000 0.60876
v 0.79335 0.16027 0.60876
v 0.79335 0.32055 0.60876
v 0.79335 0.48082 0.60876
v 0.75184 0.00000 0.65935
v 0.75184 0.15136 0.65935
v 0.75184 0.30272 0.65935
v 0.75184 0.45408 0.65935
v 0.70711 0.00000 0.70711
v 0.70711 0.21482 0.70711
v 0.70711 0.42964 0.70711
v 0.70711 0.64445 0.70711
v 0.65935 0.00000 0.75184
v 0.65935 0.32297 0.75184
v 0.65935 0.64593 0.75184
v 0.65935 0.96890 0.75184
v 0.60876 0.00000 0.79335
v 0.60876 0.29457 0.79335
v 0.60876 0.58915 0.79335
v 0.60876 0.88372 0.79335
v 0.55557 0.00000 0.83147
v 0.55557 0.18144 0.83147
v 0.55557 0.36288 0.83147
v 0.55557 0.54431 0.83147
v 0.50000 0.00000 0.86603
v 0.50000 0.15000 0.86603
v 0.50000 0.30000 0.86603
v 0.50000 0.45000 0.86603
v 0.44229 0.00000 0.89687
v 0.44229 0.18144 0.89687
v 0.44229 0.36288 0.89687
v 0.44229 0.54431 0.89687
v 0.38268 0.00000 0.92388
v 0.38268 0.29457 0.92388
v 0.38268 0.58915 0.92388
v 0.38268 0.88372 0.92388
v 0.32144 0.00000 0.94693
v 0.32144 0.32297 0.94693
v 0.32144 0.64593 0.94693
v 0.32144 0.96890 0.94693
v 0.25882 0.00000 0.96593
v 0.25882 0.21482 0.96593
v 0.25882 0.42964 0.96593
v 0.25882 0.64445 0.96593
v 0.19509 0.00000 0.98079
v 0.19509 0.15136 0.98079
v 0.19509 0.30272 0.98079
v 0.19509 0.45408 0.98079
v 0.13053 0.00000 0.99144
v 0.13053 0.16027 0.99144
v 0.13053 0.32055 0.99144
v 0.13053 0.48082 0.99144
v 0.06540 0.00000 0.99786
v 0.06540 0.25539 0.99786
v 0.06540 0.51077 0.99786
v 0.06540 0.76616 0.99786
v 0.00000 0.00000 1.00000
v 0.00000 0.33333 1.00000
v 0.00000 0.66667 1.00000
v 0.00000 1.00000 1.00000
v -0.06540 0.00000 0.99786
v -0.06540 0.25539 0.99786
v -0.06540 0.51077 0.99786
v -0.06540 0.76616 0.99786
v -0.13053 0.00000 0.99144
v -0.13053 0.16027 0.99144
v -0.13053 0.32055 0.99144
v -0.13053 0.48082 0.99144
v -0.19509 0.00000 0.98079
v -0.19509 0.15136 0.98079
v -0.19509 0.30272 0.98079
v -0.19509 0.45408 0.98079
v -0.25882 0.00000 0.96593
v -0.25882 0.21482 0.96593
v -0.25882 0.42964 0.96593
v -0.25882 0.64445 0.96593
v -0.32144 0.00000 0.94693
v -0.32144 0.32297 0.94693
v -0.32144 0.64593 0.94693
v -0.32144 0.96890 0.94693
v -0.38268 0.00000 0.92388
v -0.38268 0.29457 0.92388
v -0.38268 0.58915 0.92388
v -0.38268 0.88372 0.92388
v -0.44229 0.00000 0.89687
v -0.44229 0.18144 0.89687
v -0.44229 0.36288 0.89687
v -0.44229 0.54431 0.89687
v -0.50000 0.00000 0.86603
v -0.50000 0.15000 0.86603
v -0.50000 0.30000 0.86603
v -0.50000 0.45000 0.86603
v -0.55557 0.00000 0.83147
v -0.55557 0.18144 0.83147
v -0.55557 0.36288 0.83147
v -0.55557 0.54431 0.83147
v -0.60876 0.00000 0.79335
v -0.60876 0.29457 0.79335
v -0.60876 0.58915 0.79335
v -0.60876 0.88372 0.79335
v -0.65935 0.00000 0.75184
v -0.65935 0.32297 0.75184
v -0.65935 0.64593 0.75184
v -0.65935 0.96890 0.75184
v -0.70711 0.00000 0.70711
v -0.70711 0.21482 0.70711
v -0.70711 0.42964 0.70711
v -0.70711 0.64445 0.70711
v -0.75184 0.00000 0.65935
v -0.75184 0.15136 0.65935
v -0.75184 0.30272 0.65935
v -0.75184 0.45408 0.65935
v -0.79335 0.00000 0.60876
v -0.79335 0.16027 0.60876
v -0.79335 0.32055 0.60876
v -0.79335 0.48082 0.60876
v -0.83147 0.00000 0.55557
v -0.83147 0.25539 0.55557
v -0.83147 0.51077 0.55557
v -0.83147 0.76616 0.55557
v -0.86603 0.00000 0.50000
v -0.86603 0.33333 0.50000
v -0.86603 0.66667 0.50000
v -0.86603 1.00000 0.50000
v -0.89687 0.00000 0.44229
v -0.89687 0.25539 0.44229
v -0.89687 0.51077 0.44229
v -0.89687 0.76616 0.44229
v -0.92388 0.00000 0.38268
v -0.92388 0.16027 0.38268
v -0.92388 0.32055 0.38268
v -0.92388 0.48082 0.38268
v -0.94693 0.00000 0.32144
v -0.94693 0.15136 0.32144
v -0.94693 0.30272 0.32144
v -0.94693 0.45408 0.32144
v -0.96593 0.00000 0.25882
v -0.96593 0.21482 0.25882
v -0.96593 0.42964 0.25882
v -0.96593 0.64445 0.25882
v -0.98079 0.00000 0.19509
v -0.98079 0.32297 0.19509
v -0.98079 0.64593 0.19509
v -0.98079 0.96890 0.19509
v -0.99144 0.00000 0.13053
v -0.99144 0.29457 0.13053
v -0.99144 0.58915 0.13053
v -0.99144 0.88372 0.13053
v -0.99786 0.00000 0.06540
v -0.99786 0.18144 0.06540
v -0.99786 0.36288 0.06540
v -0.99786 0.54431 0.06540
v -1.00000 0.00000 0.00000
v -1.00000 0.15000 0.00000
v -1.00000 0.30000 0.00000
v -1.00000 0.45000 0.00000
v -0.99786 0.00000 -0.06540
v -0.99786 0.18144 -0.06540
v -0.99786 0.36288 -0.06540
v -0.99786 0.54431 -0.06540
v -0.99144 0.00000 -0.13053
v -0.99144 0.29457 -0.13053
v -0.99144 0.58915 -0.13053
v -0.99144 0.88372 -0.13053
v -0.98079 0.00000 -0.19509
v -0.98079 0.32297 -0.19509
v -0.98079 0.64593 -0.19509
v -0.98079 0.96890 -0.19509
v -0.96593 0.00000 -0.25882
v -0.96593 0.21482 -0.25882
v -0.96593 0.42964 -0.25882
v -0.96593 0.64445 -0.25882
v -0.94693 0.00000 -0.32144
v -0.94693 0.15136 -0.32144
v -0.94693 0.30272 -0.32144
v -0.94693 0.45408 -0.32144
v -0.92388 0.00000 -0.38268
v -0.92388 0.16027 -0.38268
v -0.92388 0.32055 -0.38268
v -0.92388 0.48082 -0.38268
v -0.89687 0.00000 -0.44229
v -0.89687 0.25539 -0.44229
v -0.89687 0.51077 -0.44229
v -0.89687 0.76616 -0.44229
v -0.86603 0.00000 -0.50000
v -0.86603 0.33333 -0.50000
v -0.86603 0.66667 -0.50000
v -0.86603 1.00000 -0.50000
v -0.83147 0.00000 -0.55557
v -0.83147 0.25539 -0.55557
v -0.83147 0.51077 -0.55557
v -0.83147 0.76616 -0.55557
v -0.79335 0.00000 -0.60876
v -0.79335 0.16027 -0.60876
v -0.79335 0.32055 -0.60876
v -0.79335 0.48082 -0.60876
v -0.75184 0.00000 -0.65935
v -0.75184 0.15136 -0.65935
v -0.75184 0.30272 -0.65935
v -0.75184 0.45408 -0.65935
v -0.70711 0.00000 -0.70711
v -0.70711 0.21482 -0.70711
v -0.70711 0.42964 -0.70711
v -0.70711 0.64445 -0.70711
v -0.65935 0.00000 -0.75184
v -0.65935 0.32297 -0.75184
v -0.65935 0.64593 -0.75184
v -0.65935 0.96890 -0.75184
v -0.60876 0.00000 -0.79335
v -0.60876 0.29457 -0.79335
v -0.60876 0.58915 -0.79335
v -0.60876 0.88372 -0.79335
v -0.55557 0.00000 -0.83147
v -0.55557 0.18144 -0.83147
v -0.55557 0.36288 -0.83147
v -0.55557 0.54431 -0.83147
v -0.50000 0.00000 -0.86603
v -0.50000 0.15000 -0.86603
v -0.50000 0.30000 -0.86603
v -0.50000 0.45000 -0.86603
v -0.44229 0.00000 -0.89687
v -0.44229 0.18144 -0.89687
v -0.44229 0.36288 -0.89687
v -0.44229 0.54431 -0.89687
v -0.38268 0.00000 -0.92388
v -0.38268 0.29457 -0.92388
v -0.38268 0.58915 -0.92388
v -0.38268 0.88372 -0.92388
v -0.32144 0.00000 -0.94693
v -0.32144 0.32297 -0.94693
v -0.32144 0.64593 -0.94693
v -0.32144 0.96890 -0.94693
v -0.25882 0.00000 -0.96593
v -0.25882 0.21482 -0.96593
v -0.25882 0.42964 -0.96593
v -0.25882 0.64445 -0.96593
v -0.19509 0.00000 -0.98079
v -0.19509 0.15136 -0.98079
v -0.19509 0.30272 -0.98079
v -0.19509 0.45408 -0.98079
v -0.13053 0.00000 -0.99144
v -0.13053 0.16027 -0.99144
v -0.13053 0.32055 -0.99144
v -0.13053 0.48082 -0.99144
v -0.06540 0.00000 -0.99786
v -0.06540 0.25539 -0.99786
v -0.06540 0.51077 -0.99786
v -0.06540 0.76616 -0.99786
v -0.00000 0.00000 -1.00000
v -0.00000 0.33333 -1.00000
v -0.00000 0.66667 -1.00000
v -0.00000 1.00000 -1.00000
v 0.06540 0.00000 -0.99786
v 0.06540 0.25539 -0.99786
v 0.06540 0.51077 -0.99786
v 0.06540 0.76616 -0.99786
v 0.13053 0.00000 -0.99144
v 0.13053 0.16027 -0.99144
v 0.13053 0.32055 -0.99144
v 0.13053 0.48082 -0.99144
v 0.19509 0.00000 -0.98079
v 0.19509 0.15136 -0.98079
v 0.19509 0.30272 -0.98079
v 0.19509 0.45408 -0.98079
v 0.25882 0.00000 -0.96593
v 0.25882 0.21482 -0.96593
v 0.25882 0.42964 -0.96593
v 0.25882 0.64445 -0.96593
v 0.32144 0.00000 -0.94693
v 0.32144 0.32297 -0.94693
v 0.32144 0.64593 -0.94693
v 0.32144 0.96890 -0.94693
v 0.38268 0.00000 -0.92388
v 0.38268 0.29457 -0.92388
v 0.38268 0.58915 -0.92388
v 0.38268 0.88372 -0.92388
v 0.44229 0.00000 -0.89687
v 0.44229 0.18144 -0.89687
v 0.44229 0.36288 -0.89687
v 0.44229 0.54431 -0.89687
v 0.50000 0.00000 -0.86603
v 0.50000 0.15000 -0.86603
v 0.50000 0.30000 -0.86603
v 0.50000 0.45000 -0.86603
v 0.55557 0.00000 -0.83147
v 0.55557 0.18144 -0.83147
v 0.55557 0.36288 -0.83147
v 0.55557 0.54431 -0.83147
v 0.60876 0.00000 -0.79335
v 0.60876 0.29457 -0.79335
v 0.60876 0.58915 -0.79335
v 0.60876 0.88372 -0.79335
v 0.65935 0.00000 -0.75184
v 0.65935 0.32297 -0.75184
v 0.65935 0.64593 -0.75184
v 0.65935 0.96890 -0.75184
v 0.70711 0.00000 -0.70711
v 0.70711 0.21482 -0.70711
v 0.70711 0.42964 -0.70711
v 0.70711 0.64445 -0.70711
v 0.75184 0.00000 -0.65935
v 0.75184 0.15136 -0.65935
v 0.75184 0.30272 -0.65935
v 0.75184 0.45408 -0.65935
v 0.79335 0.00000 -0.60876
v 0.79335 0.16027 -0.60876
v 0.79335 0.32055 -0.60876
v 0.79335 0.48082 -0.60876
v 0.83147 0.00000 -0.55557
v 0.83147 0.25539 -0.55557
v 0.83147 0.51077 -0.55557
v 0.83147 0.76616 -0.55557
v 0.86603 0.00000 -0.50000
v 0.86603 0.33333 -0.50000
v 0.86603 0.66667 -0.50000
v 0.86603 1.00000 -0.50000
v 0.89687 0.00000 -0.44229
v 0.89687 0.25539 -0.44229
v 0.89687 0.51077 -0.44229
v 0.89687 0.76616 -0.44229
v 0.92388 0.00000 -0.38268
v 0.92388 0.16027 -0.38268
v 0.92388 0.32055 -0.38268
v 0.92388 0.48082 -0.38268
v 0.94693 0.00000 -0.32144
v 0.94693 0.15136 -0.32144
v 0.94693 0.30272 -0.32144
v 0.94693 0.45408 -0.32144
v 0.96593 0.00000 -0.25882
v 0.96593 0.21482 -0.25882
v 0.96593 0.42964 -0.25882
v 0.96593 0.64445 -0.25882
v 0.98079 0.00000 -0.19509
v 0.98079 0.32297 -0.19509
v 0.98079 0.64593 -0.19509
v 0.98079 0.96890 -0.19509
v 0.99144 0.00000 -0.13053
v 0.99144 0.29457 -0.13053
v 0.99144 0.58915 -0.13053
v 0.99144 0.88372 -0.13053
v 0.99786 0.00000 -0.06540
v 0.99786 0.18144 -0.06540
v 0.99786 0.36288 -0.06540
v 0.99786 0.54431 -0.06540
v 1.00000 0.00000 -0.00000
v 1.00000 0.15000 -0.00000
v 1.00000 0.30000 -0.00000
v 1.00000 0.45000 -0.00000
vt 0.00000 0.00000
vt 0.00000 0.33333
vt 0.00000 0.66667
vt 0.00000 1.00000
vt 0.01042 0.00000
vt 0.01042 0.33333
vt 0.01042 0.66667
vt 0.01042 1.00000
vt 0.02083 0.00000
vt 0.02083 0.33333
vt 0.02083 0.66667
vt 0.02083 1.00000
vt 0.03125 0.00000
vt 0.03125 0.33333
vt 0.03125 0.66667
vt 0.03125 1.00000
vt 0.04167 0.00000
vt 0.04167 0.33333
vt 0.04167 0.66667
vt 0.04167 1.00000
vt 0.05208 0.00000
vt 0.05208 0.33333
vt 0.05208 0.66667
vt 0.05208 1.00000
vt 0.06250 0.00000
vt 0.06250 0.33333
vt 0.06250 0.66667
vt 0.06250 1.00000
vt 0.07292 0.00000
vt 0.07292 0.33333
vt 0.07292 0.66667
vt 0.07292 1.00000
vt 0.08333 0.00000
vt 0.08333 0.33333
vt 0.08333 0.66667
vt 0.08333 1.00000
vt 0.09375 0.00000
vt 0.09375 0.33333
vt 0.09375 0.66667
vt 0.09375 1.00000
vt 0.10417 0.00000
vt 0.10417 0.33333
vt 0.10417 0.66667
vt 0.10417 1.00000
vt 0.11458 0.00000
vt 0.11458 0.33333
vt 0.11458 0.66667
vt 0.11458 1.00000
vt 0.12500 0.00000
vt 0.12500 0.33333
vt 0.12500 0.66667
vt 0.12500 1.00000
vt 0.13542 0.00000
vt 0.13542 0.33333
vt 0.13542 0.66667
vt 0.13542 1.00000
vt 0.14583 0.00000
vt 0.14583 0.33333
vt 0.14583 0.66667
vt 0.14583 1.00000
vt 0.15625 0.00000
vt 0.15625 0.33333
vt 0.15625 0.66667
vt 0.15625 1.00000
vt 0.16667 0.00000
vt 0.16667 0.33333
vt 0.16667 0.66667
vt 0.16667 1.00000
vt 0.17708 0.00000
vt 0.17708 0.33333
vt 0.17708 0.66667
vt 0.17708 1.00000
vt 0.18750 0.00000
vt 0.18750 0.33333
vt 0.18750 0.66667
vt 0.18750 1.00000
vt 0.19792 0.00000
vt 0.19792 0.33333
vt 0.19792 0.66667
vt 0.19792 1.00000
vt 0.20833 0.00000
vt 0.20833 0.33333
vt 0.20833 0.66667
vt 0.20833 1.00000
vt 0.21875 0.00000
vt 0.21875 0.33333
vt 0.21875 0.66667
vt 0.21875 1.00000
vt 0.22917 0.00000
vt 0.22917 0.33333
vt 0.22917 0.66667
vt 0.22917 1.00000
vt 0.23958 0.00000
vt 0.23958 0.33333
vt 0.23958 0.66667
vt 0.23958 1.00000
vt 0.25000 0.00000
vt 0.25000 0.33333
vt 0.25000 0.66667
vt 0.25000 1.00000
vt 0.26042 0.00000
vt 0.26042 0.33333
vt 0.26042 0.66667
vt 0.26042 1.00000
vt 0.27083 0.00000
vt 0.27083 0.33333
vt 0.27083 0.66667
vt 0.27083 1.00000
vt 0.28125 0.00000
vt 0.28125 0.33333
vt 0.28125 0.66667
vt 0.28125 1.00000
vt 0.29167 0.00000
vt 0.29167 0.33333
vt 0.29167 0.66667
vt 0.29167 1.00000
vt 0.30208 0.00000
vt 0.30208 0.33333
vt 0.30208 0.66667
vt 0.30208 1.00000
vt 0.31250 0.00000
vt 0.31250 0.33333
vt 0.31250 0.66667
vt 0.31250 1.00000
vt 0.32292 0.00000
vt 0.32292 0.33333
vt 0.32292 0.66667
vt 0.32292 1.00000
vt 0.33333 0.00000
vt 0.33333 0.33333
vt 0.33333 0.66667
vt 0.33333 1.00000
vt 0.34375 0.00000
vt 0.34375 0.33333
vt 0.34375 0.66667
vt 0.34375 1.00000
vt 0.35417 0.00000
vt 0.35417 0.33333
vt 0.35417 0.66667
vt 0.35417 1.00000
vt 0.36458 0.00000
vt 0.36458 0.33333
vt 0.36458 0.66667
vt 0.36458 1.00000
vt 0.37500 0.00000
vt 0.37500 0.33333
vt 0.37500 0.66667
vt 0.37500 1.00000
vt 0.38542 0.00000
vt 0.38542 0.33333
vt 0.38542 0.66667
vt 0.38542 1.00000
vt 0.39583 0.00000
vt 0.39583 0.33333
vt 0.39583 0.66667
vt 0.39583 1.00000
vt 0.40625 0.00000
vt 0.40625 0.33333
vt 0.40625 0.66667
vt 0.40625 1.00000
vt 0.41667 0.00000
vt 0.41667 0.33333
vt 0.41667 0.66667
vt 0.41667 1.00000
vt 0.42708 0.00000
vt 0.42708 0.33333
vt 0.42708 0.66667
vt 0.42708 1.00000
vt 0.43750 0.00000
vt 0.43750 0.33333
vt 0.43750 0.66667
vt 0.43750 1.00000
vt 0.44792 0.00000
vt 0.44792 0.33333
vt 0.44792 0.66667
vt 0.44792 1.00000
vt 0.45833 0.00000
vt 0.45833 0.33333
vt 0.45833 0.66667
vt 0.45833 1.00000
vt 0.46875 0.00000
vt 0.46875 0.33333
vt 0.46875 0.66667
vt 0.46875 1.00000
vt 0.47917 0.00000
vt 0.47917 0.33333
vt 0.47917 0.66667
vt 0.47917 1.00000
vt 0.48958 0.00000
vt 0.48958 0.33333
vt 0.48958 0.66667
vt 0.48958 1.00000
vt 0.50000 0.00000
vt 0.50000 0.33333
vt 0.50000 0.66667
vt 0.50000 1.00000
vt 0.51042 0.00000
vt 0.51042 0.33333
vt 0.51042 0.66667
vt 0.51042 1.00000
vt 0.52083 0.00000
vt 0.52083 0.33333
vt 0.52083 0.66667
vt 0.52083 1.00000
vt 0.53125 0.00000
vt 0.53125 0.33333
vt 0.53125 0.66667
vt 0.53125 1.00000
vt 0.54167 0.00000
vt 0.54167 0.33333
vt 0.54167 0.66667
vt 0.54167 1.00000
vt 0.55208 0.00000
vt 0.55208 0.33333
vt 0.55208 0.66667
vt 0.55208 1.00000
vt 0.56250 0.00000
vt 0.56250 0.33333
vt 0.56250 0.66667
vt 0.56250 1.00000
vt 0.57292 0.00000
vt 0.57292 0.33333
vt 0.57292 0.66667
vt 0.57292 1.00000
vt 0.58333 0.00000
vt 0.58333 0.33333
vt 0.58333 0.66667
vt 0.58333 1.00000
vt 0.59375 0.00000
vt 0.59375 0.33333
vt 0.59375 0.66667
vt 0.59375 1.00000
vt 0.60417 0.00000
vt 0.60417 0.33333
vt 0.60417 0.66667
vt 0.60417 1.00000
vt 0.61458 0.00000
vt 0.61458 0.33333
vt 0.61458 0.66667
vt 0.61458 1.00000
vt 0.62500 0.00000
vt 0.62500 0.33333
vt 0.62500 0.66667
vt 0.62500 1.00000
vt 0.63542 0.00000
vt 0.63542 0.33333
vt 0.63542 0.66667
vt 0.63542 1.00000
vt 0.64583 0.00000
vt 0.64583 0.33333
vt 0.64583 0.66667
vt 0.64583 1.00000
vt 0.65625 0.00000
vt 0.65625 0.33333
vt 0.65625 0.66667
vt 0.65625 1.00000
vt 0.66667 0.00000
vt 0.66667 0.33333
vt 0.66667 0.66667
vt 0.66667 1.00000
vt 0.67708 0.00000
vt 0.67708 0.33333
vt 0.67708 0.66667
vt 0.67708 1.00000
vt 0.68750 0.00000
vt 0.68750 0.33333
vt 0.68750 0.66667
vt 0.68750 1.00000
vt 0.69792 0.00000
vt 0.69792 0.33333
vt 0.69792 0.66667
vt 0.69792 1.00000
vt 0.70833 0.00000
vt 0.70833 0.33333
vt 0.70833 0.66667
vt 0.70833 1.00000
vt 0.71875 0.00000
vt 0.71875 0.33333
vt 0.71875 0.66667
vt 0.71875 1.00000
vt 0.72917 0.00000
vt 0.72917 0.33333
vt 0.72917 0.66667
vt 0.72917 1.00000
vt 0.73958 0.00000
vt 0.73958 0.33333
vt 0.73958 0.66667
vt 0.73958 1.00000
vt 0.75000 0.00000
vt 0.75000 0.33333
vt 0.75000 0.66667
vt 0.75000 1.00000
vt 0.76042 0.00000
vt 0.76042 0.33333
vt 0.76042 0.66667
vt 0.76042 1.00000
vt 0.77083 0.00000
vt 0.77083 0.33333
vt 0.77083 0.66667
vt 0.77083 1.00000
vt 0.78125 0.00000
vt 0.78125 0.33333
vt 0.78125 0.66667
vt 0.78125 1.00000
vt 0.79167 0.00000
vt 0.79167 0.33333
vt 0.79167 0.66667
vt 0.79167 1.00000
vt 0.80208 0.00000
vt 0.80208 0.33333
vt 0.80208 0.66667
vt 0.80208 1.00000
vt 0.81250 0.00000
vt 0.81250 0.33333
vt 0.81250 0.66667
vt 0.81250 1.00000
vt 0.82292 0.00000
vt 0.82292 0.33333
vt 0.82292 0.66667
vt 0.82292 1.00000
vt 0.83333 0.00000
vt 0.83333 0.33333
vt 0.83333 0.66667
vt 0.83333 1.00000
vt 0.84375 0.00000
vt 0.84375 0.33333
vt 0.84375 0.66667
vt 0.84375 1.00000
vt 0.85417 0.00000
vt 0.85417 0.33333
vt 0.85417 0.66667
vt 0.85417 1.00000
vt 0.86458 0.00000
vt 0.86458 0.33333
vt 0.86458 0.66667
vt 0.86458 1.00000
vt 0.87500 0.00000
vt 0.87500 0.33333
vt 0.87500 0.66667
vt 0.87500 1.00000
vt 0.88542 0.00000
vt 0.88542 0.33333
vt 0.88542 0.66667
vt 0.88542 1.00000
vt 0.89583 0.00000
vt 0.89583 0.33333
vt 0.89583 0.66667
vt 0.89583 1.00000
vt 0.90625 0.00000
vt 0.90625 0.33333
vt 0.90625 0.66667
vt 0.90625 1.00000
vt 0.91667 0.00000
vt 0.91667 0.33333
vt 0.91667 0.66667
vt 0.91667 1.00000
vt 0.92708 0.00000
vt 0.92708 0.33333
vt 0.92708 0.66667
vt 0.92708 1.00000
vt 0.93750 0.00000
vt 0.93750 0.33333
vt 0.93750 0.66667
vt 0.93750 1.00000
vt 0.94792 0.00000
vt 0.94792 0.33333
vt 0.94792 0.66667
vt 0.94792 1.00000
vt 0.95833 0.00000
vt 0.95833 0.33333
vt 0.95833 0.66667
vt 0.95833 1.00000
vt 0.96875 0.00000
vt 0.96875 0.33333
vt 0.96875 0.66667
vt 0.96875 1.00000
vt 0.97917 0.00000
vt 0.97917 0.33333
vt 0.97917 0.66667
vt 0.97917 1.00000
vt 0.98958 0.00000
vt 0.98958 0.33333
vt 0.98958 0.66667
vt 0.98958 1.00000
vt 1.00000 0.00000
vt 1.00000 0.33333
vt 1.00000 0.66667
vt 1.00000 1.00000
vn -0.99946 0.00000 -0.03272
vn -0.99946 0.00000 -0.03272
vn -0.99946 0.00000 -0.03272
vn -0.99946 0.00000 -0.03272
vn -0.99786 0.00000 -0.06540
vn -0.99786 0.00000 -0.06540
vn -0.99786 0.00000 -0.06540
vn -0.99786 0.00000 -0.06540
vn -0.99144 0.00000 -0.13053
vn -0.99144 0.00000 -0.13053
vn -0.99144 0.00000 -0.13053
vn -0.99144 0.00000 -0.13053
vn -0.98079 0.00000 -0.19509
vn -0.98079 0.00000 -0.19509
vn -0.98079 0.00000 -0.19509
vn -0.98079 0.00000 -0.19509
vn -0.96593 0.00000 -0.25882
vn -0.96593 0.00000 -0.25882
vn -0.96593 0.00000 -0.25882
vn -0.96593 0.00000 -0.25882
vn -0.94693 0.00000 -0.32144
vn -0.94693 0.00000 -0.32144
vn -0.94693 0.00000 -0.32144
vn -0.94693 0.00000 -0.32144
vn -0.92388 0.00000 -0.38268
vn -0.92388 0.00000 -0.38268
vn -0.92388 0.00000 -0.38268
vn -0.92388 0.00000 -0.38268
vn -0.89687 0.00000 -0.44229
vn -0.89687 0.00000 -0.44229
vn -0.89687 0.00000 -0.44229
vn -0.89687 0.00000 -0.44229
vn -0.86603 0.00000 -0.50000
vn -0.86603 0.00000 -0.50000
vn -0.86603 0.00000 -0.50000
vn -0.86603 0.00000 -0.50000
vn -0.83147 0.00000 -0.55557
vn -0.83147 0.00000 -0.55557
vn -0.83147 0.00000 -0.55557
vn -0.83147 0.00000 -0.55557
vn -0.79335 0.00000 -0.60876
vn -0.79335 0.00000 -0.60876
vn -0.79335 0.00000 -0.60876
vn -0.79335 0.00000 -0.60876
vn -0.75184 0.00000 -0.65935
vn -0.75184 0.00000 -0.65935
vn -0.75184 0.00000 -0.65935
vn -0.75184 0.00000 -0.65935
vn -0.70711 0.00000 -0.70711
vn -0.70711 0.00000 -0.70711
vn -0.70711 0.00000 -0.70711
vn -0.70711 0.00000 -0.70711
vn -0.65935 0.00000 -0.75184
vn -0.65935 0.00000 -0.75184
vn -0.65935 0.00000 -0.75184
vn -0.65935 0.00000 -0.75184
vn -0.60876 0.00000 -0.79335
vn -0.60876 0.00000 -0.79335
vn -0.60876 0.00000 -0.79335
vn -0.60876 0.00000 -0.79335
vn -0.55557 0.00000 -0.83147
vn -0.55557 0.00000 -0.83147
vn -0.55557 0.00000 -0.83147
vn -0.55557 0.00000 -0.83147
vn -0.50000 0.00000 -0.86603
vn -0.50000 0.00000 -0.86603
vn -0.50000 0.00000 -0.86603
vn -0.50000 0.00000 -0.86603
vn -0.44229 0.00000 -0.89687
vn -0.44229 0.00000 -0.89687
vn -0.44229 0.00000 -0.89687
vn -0.44229 0.00000 -0.89687
vn -0.38268 0.00000 -0.92388
vn -0.38268 0.00000 -0.92388
vn -0.38268 0.00000 -0.92388
vn -0.38268 0.00000 -0.92388
vn -0.32144 0.00000 -0.94693
vn -0.32144 0.00000 -0.94693
vn -0.32144 0.00000 -0.94693
vn -0.32144 0.00000 -0.94693
vn -0.25882 0.00000 -0.96593
vn -0.25882 0.00000 -0.96593
vn -0.25882 0.00000 -0.96593
vn -0.25882 0.00000 -0.96593
vn -0.19509 0.00000 -0.98079
vn -0.19509 0.00000 -0.98079
vn -0.19509 0.00000 -0.98079
vn -0.19509 0.00000 -0.98079
vn -0.13053 0.00000 -0.99144
vn -0.13053 0.00000 -0.99144
vn -0.13053 0.00000 -0.99144
vn -0.13053 0.00000 -0.99144
vn -0.06540 0.00000 -0.99786
vn -0.06540 0.00000 -0.99786
vn -0.06540 0.00000 -0.99786
vn -0.06540 0.00000 -0.99786
vn 0.00000 0.00000 -1.00000
vn -0.00000 0.00000 -1.00000
vn -0.00000 0.00000 -1.00000
vn -0.00000 0.00000 -1.00000
vn 0.06540 0.00000 -0.99786
vn 0.06540 0.00000 -0.99786
vn 0.06540 0.00000 -0.99786
vn 0.06540 0.00000 -0.99786
vn 0.13053 0.00000 -0.99144
vn 0.13053 0.00000 -0.99144
vn 0.13053 0.00000 -0.99144
vn 0.13053 0.00000 -0.99144
vn 0.19509 0.00000 -0.98079
vn 0.19509 0.00000 -0.98079
vn 0.19509 0.00000 -0.98079
vn 0.19509 0.00000 -0.98079
vn 0.25882 0.00000 -0.96593
vn 0.25882 0.00000 -0.96593
vn 0.25882 0.00000 -0.96593
vn 0.25882 0.00000 -0.96593
vn 0.32144 0.00000 -0.94693
vn 0.32144 0.00000 -0.94693
vn 0.32144 0.00000 -0.94693
vn 0.32144 0.00000 -0.94693
vn 0.38268 0.00000 -0.92388
vn 0.38268 0.00000 -0.92388
vn 0.38268 0.00000 -0.92388
vn 0.38268 0.00000 -0.92388
vn 0.44229 0.00000 -0.89687
vn 0.44229 0.00000 -0.89687
vn 0.44229 0.00000 -0.89687
vn 0.44229 0.00000 -0.89687
vn 0.50000 0.00000 -0.86603
vn 0.50000 0.00000 -0.86603
vn 0.50000 0.00000 -0.86603
vn 0.50000 0.00000 -0.86603
vn 0.55557 0.00000 -0.83147
vn 0.55557 0.00000 -0.83147
vn 0.55557 0.00000 -0.83147
vn 0.55557 0.00000 -0.83147
vn 0.60876 0.00000 -0.79335
vn 0.60876 0.00000 -0.79335
vn 0.60876 0.00000 -0.79335
vn 0.60876 0.00000 -0.79335
vn 0.65935 0.00000 -0.75184
vn 0.65935 0.00000 -0.75184
vn 0.65935 0.00000 -0.75184
vn 0.65935 0.00000 -0.75184
vn 0.70711 0.00000 -0.70711
vn 0.70711 0.00000 -0.70711
vn 0.70711 0.00000 -0.70711
vn 0.70711 0.00000 -0.70711
vn 0.75184 0.00000 -0.65935
vn 0.75184 0.00000 -0.65935
vn 0.75184 0.00000 -0.65935
vn 0.75184 0.00000 -0.65935
vn 0.79335 0.00000 -0.60876
vn 0.79335 0.00000 -0.60876
vn 0.79335 0.00000 -0.60876
vn 0.79335 0.00000 -0.60876
vn 0.83147 0.00000 -0.55557
vn 0.83147 0.00000 -0.55557
vn 0.83147 0.00000 -0.55557
vn 0.83147 0.00000 -0.55557
vn 0.86603 0.00000 -0.50000
vn 0.86603 0.00000 -0.50000
vn 0.86603 0.00000 -0.50000
vn 0.86603 0.00000 -0.50000
vn 0.89687 0.00000 -0.44229
vn 0.89687 0.00000 -0.44229
vn 0.89687 0.00000 -0.44229
vn 0.89687 0.00000 -0.44229
vn 0.92388 0.00000 -0.38268
vn 0.92388 0.00000 -0.38268
vn 0.92388 0.00000 -0.38268
vn 0.92388 0.00000 -0.38268
vn 0.94693 0.00000 -0.32144
vn 0.94693 0.00000 -0.32144
vn 0.94693 0.00000 -0.32144
vn 0.94693 0.00000 -0.32144
vn 0.96593 0.00000 -0.25882
vn 0.96593 0.00000 -0.25882
vn 0.96593 0.00000 -0.25882
vn 0.96593 0.00000 -0.25882
vn 0.98079 0.00000 -0.19509
vn 0.98079 0.00000 -0.19509
vn 0.98079 0.00000 -0.19509
vn 0.98079 0.00000 -0.19509
vn 0.99144 0.00000 -0.13053
vn 0.99144 0.00000 -0.13053
vn 0.99144 0.00000 -0.13053
vn 0.99144 0.00000 -0.13053
vn 0.99786 0.00000 -0.06540
vn 0.99786 0.00000 -0.06540
vn 0.99786 0.00000 -0.06540
vn 0.99786 0.00000 -0.06540
vn 1.00000 -0.00000 0.00000
vn 1.00000 -0.00000 0.00000
vn 1.00000 -0.00000 0.00000
vn 1.00000 -0.00000 0.00000
vn 0.99786 -0.00000 0.06540
vn 0.99786 -0.00000 0.06540
vn 0.99786 -0.00000 0.06540
vn 0.99786 -0.00000 0.06540
vn 0.99144 -0.00000 0.13053
vn 0.99144 -0.00000 0.13053
vn 0.99144 -0.00000 0.13053
vn 0.99144 -0.00000 0.13053
vn 0.98079 -0.00000 0.19509
vn 0.98079 -0.00000 0.19509
vn 0.98079 -0.00000 0.19509
vn 0.98079 -0.00000 0.19509
vn 0.96593 -0.00000 0.25882
vn 0.96593 -0.00000 0.25882
vn 0.96593 -0.00000 0.25882
vn 0.96593 -0.00000 0.25882
vn 0.94693 -0.00000 0.32144
vn 0.94693 -0.00000 0.32144
vn 0.94693 -0.00000 0.32144
vn 0.94693 -0.00000 0.32144
vn 0.92388 -0.00000 0.38268
vn 0.92388 -0.00000 0.38268
vn 0.92388 -0.00000 0.38268
vn 0.92388 -0.00000 0.38268
vn 0.89687 -0.00000 0.44229
vn 0.89687 -0.00000 0.44229
vn 0.89687 -0.00000 0.44229
vn 0.89687 -0.00000 0.44229
vn 0.86603 -0.00000 0.50000
vn 0.86603 -0.00000 0.50000
vn 0.86603 -0.00000 0.50000
vn 0.86603 -0.00000 0.50000
vn 0.83147 -0.00000 0.55557
vn 0.83147 -0.00000 0.55557
vn 0.83147 -0.00000 0.55557
vn 0.83147 -0.00000 0.55557
vn 0.79335 -0.00000 0.60876
vn 0.79335 -0.00000 0.60876
vn 0.79335 -0.00000 0.60876
vn 0.79335 -0.00000 0.60876
vn 0.75184 -0.00000 0.65935
vn 0.75184 -0.00000 0.65935
vn 0.75184 -0.00000 0.65935
vn 0.75184 -0.00000 0.65935
vn 0.70711 -0.00000 0.70711
vn 0.70711 -0.00000 0.70711
vn 0.70711 -0.00000 0.70711
vn 0.70711 -0.00000 0.70711
vn 0.65935 -0.00000 0.75184
vn 0.65935 -0.00000 0.75184
vn 0.65935 -0.00000 0.75184
vn 0.65935 -0.00000 0.75184
vn 0.60876 -0.00000 0.79335
vn 0.60876 -0.00000 0.79335
vn 0.60876 -0.00000 0.79335
vn 0.60876 -0.00000 0.79335
vn 0.55557 -0.00000 0.83147
vn 0.55557 -0.00000 0.83147
vn 0.55557 -0.00000 0.83147
vn 0.55557 -0.00000 0.83147
vn 0.50000 -0.00000 0.86603
vn 0.50000 -0.00000 0.86603
vn 0.50000 -0.00000 0.86603
vn 0.50000 -0.00000 0.86603
vn 0.44229 -0.00000 0.89687
vn 0.44229 -0.00000 0.89687
vn 0.44229 -0.00000 0.89687
vn 0.44229 -0.00000 0.89687
vn 0.38268 -0.00000 0.92388
vn 0.38268 -0.00000 0.92388
vn 0.38268 -0.00000 0.92388
vn 0.38268 -0.00000 0.92388
vn 0.32144 -0.00000 0.94693
vn 0.32144 -0.00000 0.94693
vn 0.32144 -0.00000 0.94693
vn 0.32144 -0.00000 0.94693
vn 0.25882 -0.00000 0.96593
vn 0.25882 -0.00000 0.96593
vn 0.25882 -0.00000 0.96593
vn 0.25882 -0.00000 0.96593
vn 0.19509 -0.00000 0.98079
vn 0.19509 -0.00000 0.98079
vn 0.19509 -0.00000 0.98079
vn 0.19509 -0.00000 0.98079
vn 0.13053 -0.00000 0.99144
vn 0.13053 -0.00000 0.99144
vn 0.13053 -0.00000 0.99144
vn 0.13053 -0.00000 0.99144
vn 0.06540 -0.00000 0.99786
vn 0.06540 -0.00000 0.99786
vn 0.06540 -0.00000 0.99786
vn 0.06540 -0.00000 0.99786
vn 0.00000 -0.00000 1.00000
vn 0.00000 -0.00000 1.00000
vn 0.00000 -0.00000 1.00000
vn 0.00000 -0.00000 1.00000
vn -0.06540 0.00000 0.99786
vn -0.06540 0.00000 0.99786
vn -0.06540 0.00000 0.99786
vn -0.06540 0.00000 0.99786
vn -0.13053 0.00000 0.99144
vn -0.13053 0.00000 0.99144
vn -0.13053 0.00000 0.99144
vn -0.13053 0.00000 0.99144
vn -0.19509 0.00000 0.98079
vn -0.19509 0.00000 0.98079
vn -0.19509 0.00000 0.98079
vn -0.19509 0.00000 0.98079
vn -0.25882 0.00000 0.96593
vn -0.25882 0.00000 0.96593
vn -0.25882 0.00000 0.96593
vn -0.25882 0.00000 0.96593
vn -0.32144 0.00000 0.94693
vn -0.32144 0.00000 0.94693
vn -0.32144 0.00000 0.94693
vn -0.32144 0.00000 0.94693
vn -0.38268 0.00000 0.92388
vn -0.38268 0.00000 0.92388
vn -0.38268 0.00000 0.92388
vn -0.38268 0.00000 0.92388
vn -0.44229 0.00000 0.89687
vn -0.44229 0.00000 0.89687
vn -0.44229 0.00000 0.89687
vn -0.44229 0.00000 0.89687
vn -0.50000 0.00000 0.86603
vn -0.50000 0.00000 0.86603
vn -0.50000 0.00000 0.86603
vn -0.50000 0.00000 0.86603
vn -0.55557 0.00000 0.83147
vn -0.55557 0.00000 0.83147
vn -0.55557 0.00000 0.83147
vn -0.55557 0.00000 0.83147
vn -0.60876 0.00000 0.79335
vn -0.60876 0.00000 0.79335
vn -0.60876 0.00000 0.79335
vn -0.60876 0.00000 0.79335
vn -0.65935 0.00000 0.75184
vn -0.65935 0.00000 0.75184
vn -0.65935 0.00000 0.75184
vn -0.65935 0.00000 0.75184
vn -0.70711 0.00000 0.70711
vn -0.70711 0.00000 0.70711
vn -0.70711 0.00000 0.70711
vn -0.70711 0.00000 0.70711
vn -0.75184 0.00000 0.65935
vn -0.75184 0.00000 0.65935
vn -0.75184 0.00000 0.65935
vn -0.75184 0.00000 0.65935
vn -0.79335 0.00000 0.60876
vn -0.79335 0.00000 0.60876
vn -0.79335 0.00000 0.60876
vn -0.79335 0.00000 0.60876
vn -0.83147 0.00000 0.55557
vn -0.83147 0.00000 0.55557
vn -0.83147 0.00000 0.55557
vn -0.83147 0.00000 0.55557
vn -0.86603 0.00000 0.50000
vn -0.86603 0.00000 0.50000
vn -0.86603 0.00000 0.50000
vn -0.86603 0.00000 0.50000
vn -0.89687 0.00000 0.44229
vn -0.89687 0.00000 0.44229
vn -0.89687 0.00000 0.44229
vn -0.89687 0.00000 0.44229
vn -0.92388 0.00000 0.38268
vn -0.92388 0.00000 0.38268
vn -0.92388 0.00000 0.38268
vn -0.92388 0.00000 0.38268
vn -0.94693 0.00000 0.32144
vn -0.94693 0.00000 0.32144
vn -0.94693 0.00000 0.32144
vn -0.94693 0.00000 0.32144
vn -0.96593 0.00000 0.25882
vn -0.96593 0.00000 0.25882
vn -0.96593 0.00000 0.25882
vn -0.96593 0.00000 0.25882
vn -0.98079 0.00000 0.19509
vn -0.98079 0.00000 0.19509
vn -0.98079 0.00000 0.19509
vn -0.98079 0.00000 0.19509
vn -0.99144 0.00000 0.13053
vn -0.99144 0.00000 0.13053
vn -0.99144 0.00000 0.13053
vn -0.99144 0.00000 0.13053
vn -0.99786 0.00000 0.06540
vn -0.99786 0.00000 0.06540
vn -0.99786 0.00000 0.06540
vn -0.99786 0.00000 0.06540
vn -0.99946 0.00000 0.03272
vn -0.99946 0.00000 0.03272
vn -0.99946 0.00000 0.03272
vn -0.99946 0.00000 0.03272
f 1/1/1 5/5/5 2/2/2
f 5/5/5 6/6/6 2/2/2
f 2/2/2 6/6/6 3/3/3
f 6/6/6 7/7/7 3/3/3
f 3/3/3 7/7/7 4/4/4
f 7/7/7 8/8/8 4/4/4
f 5/5/5 9/9/9 6/6/6
f 9/9/9 10/10/10 6/6/6
f 6/6/6 10/10/10 7/7/7
f 10/10/10 11/11/11 7/7/7
f 7/7/7 11/11/11 8/8/8
f 11/11/11 12/12/12 8/8/8
f 9/9/9 13/13/13 10/10/10
f 13/13/13 14/14/14 10/10/10
f 10/10/10 14/14/14 11/11/11
f 14/14/14 15/15/15 11/11/11
f 11/11/11 15/15/15 12/12/12
f 15/15/15 16/16/16 12/12/12
f 13/13/13 17/17/17 14/14/14
f 17/17/17 18/18/18 14/14/14
f 14/14/14 18/18/18 15/15/15
f 18/18/18 19/19/19 15/15/15
f 15/15/15 19/19/19 16/16/16
f 19/19/19 20/20/20 16/16/16
f 17/17/17 21/21/21 18/18/18
f 21/21/21 22/22/22 18/18/18
f 18/18/18 22/22/22 19/19/19
f 22/22/22 23/23/23 19/19/19
f 19/19/19 23/23/23 20/20/20
f 23/23/23 24/24/24 20/20/20
f 21/21/21 25/25/25 22/22/22
f 25/25/25 26/26/26 22/22/22
f 22/22/22 26/26/26 23/23/23
f 26/26/26 27/27/27 23/23/23
f 23/23/23 27/27/27 24/24/24
f 27/27/27 28/28/28 24/24/24
f 25/25/25 29/29/29 26/26/26
f 29/29/29 30/30/30 26/26/26
f 26/26/26 30/30/30 27/27/27
f 30/30/30 31/31/31 27/27/27
f 27/27/27 31/31/31 28/28/28
f 31/31/31 32/32/32 28/28/28
f 29/29/29 33/33/33 30/30/30
f 33/33/33 34/34/34 30/30/30
f 30/30/30 34/34/34 31/31/31
f 34/34/34 35/35/35 31/31/31
f 31/31/31 35/35/35 32/32/32
f 35/35/35 36/36/36 32/32/32
f 33/33/33 37/37/37 34/34/34
f 37/37/37 38/38/38 34/34/34
f 34/34/34 38/38/38 35/35/35
f 38/38/38 39/39/39 35/35/35
f 35/35/35 39/39/39 36/36/36
f 39/39/39 40/40/40 36/36/36
f 37/37/37 41/41/41 38/38/38
f 41/41/41 42/42/42 38/38/38
f 38/38/38 42/42/42 39/39/39
f 42/42/42 43/43/43 39/39/39
f 39/39/39 43/43/43 40/40/40
f 43/43/43 44/44/44 40/40/40
f 41/41/41 45/45/45 42/42/42
f 45/45/45 46/46/46 42/42/42
f 42/42/42 46/46/46 43/43/43
f 46/46/46 47/47/47 43/43/43
f 43/43/43 47/47/47 44/44/44
f 47/47/47 48/48/48 44/44/44
f 45/45/45 49/49/49 46/46/46
f 49/49/49 50/50/50 46/46/46
f 46/46/46 50/50/50 47/47/47
f 50/50/50 51/51/51 47/47/47
f 47/47/47 51/51/51 48/48/48
f 51/51/51 52/52/52 48/48/48
f 49/49/49 53/53/53 50/50/50
f 53/53/53 54/54/54 50/50/50
f 50/50/50 54/54/54 51/51/51
f 54/54/54 55/55/55 51/51/51
f 51/51/51 55/55/55 52/52/52
f 55/55/55 56/56/56 52/52/52
f 53/53/53 57/57/57 54/54/54
f 57/57/57 58/58/58 54/54/54
f 54/54/54 58/58/58 55/55/55
f 58/58/58 59/59/59 55/55/55
f 55/55/55 59/59/59 56/56/56
f 59/59/59 60/60/60 56/56/56
f 57/57/57 61/61/61 58/58/58
f 61/61/61 62/62/62 58/58/58
f 58/58/58 62/62/62 59/59/59
f 62/62/62 63/63/63 59/59/59
f 59/59/59 63/63/63 60/60/60
f 63/63/63 64/64/64 60/60/60
f 61/61/61 65/65/65 62/62/62
f 65/65/65 66/66/66 62/62/62
f 62/62/62 66/66/66 63/63/63
f 66/66/66 67/67/67 63/63/63
f 63/63/63 67/67/67 64/64/64
f 67/67/67 68/68/68 64/64/64
f 65/65/65 69/69/69 66/66/66
f 69/69/69 70/70/70 66/66/66
f 66/66/66 70/70/70 67/67/67
f 70/70/70 71/71/71 67/67/67
f 67/67/67 71/71/71 68/68/68
f 71/71/71 72/72/72 68/68/68
f 69/69/69 73/73/73 70/70/70
f 73/73/73 74/74/74 70/70/70
f 70/70/70 74/74/74 71/71/71
f 74/74/74 75/75/75 71/71/71
f 71/71/71 75/75/75 72/72/72
f 75/75/75 76/76/76 72/72/72
f 73/73/73 77/77/77 74/74/74
f 77/77/77 78/78/78 74/74/74
f 74/74/74 78/78/78 75/75/75
f 78/78/78 79/79/79 75/75/75
f 75/75/75 79/79/79 76/76/76
f 79/79/79 80/80/80 76/76/76
f 77/77/77 81/81/81 78/78/78
f 81/81/81 82/82/82 78/78/78
f 78/78/78 82/82/82 79/79/79
f 82/82/82 83/83/83 79/79/79
f 79/79/79 83/83/83 80/80/80
f 83/83/83 84/84/84 80/80/80
f 81/81/81 85/85/85 82/82/82
f 85/85/85 86/86/86 82/82/82
f 82/82/82 86/86/86 83/83/83
f 86/86/86 87/87/87 83/83/83
f 83/83/83 87/87/87 84/84/84
f 87/87/87 88/88/88 84/84/84
f 85/85/85 89/89/89 86/86/86
f 89/89/89 90/90/90 86/86/86
f 86/86/86 90/90/90 87/87/87
f 90/90/90 91/91/91 87/87/87
f 87/87/87 91/91/91 88/88/88
f 91/91/91 92/92/92 88/88/88
f 89/89/89 93/93/93 90/90/90
f 93/93/93 94/94/94 90/90/90
f 90/90/90 94/94/94 91/91/91
f 94/94/94 95/95/95 91/91/91
f 91/91/91 95/95/95 92/92/92
f 95/95/95 96/96/96 92/92/92
f 93/93/93 97/97/97 94/94/94
f 97/97/97 98/98/98 94/94/94
f 94/94/94 98/98/98 95/95/95
f 98/98/98 99/99/99 95/95/95
f 95/95/95 99/99/99 96/96/96
f 99/99/99 100/100/100 96/96/96
f 97/97/97 101/101/101 98/98/98
f 101/101/101 102/102/102 98/98/98
f 98/98/98 102/102/102 99/99/99
f 102/102/102 103/103/103 99/99/99
f 99/99/99 103/103/103 100/100/100
f 103/103/103 104/104/104 100/100/100
f 101/101/101 105/105/105 102/102/102
f 105/105/105 106/106/106 102/102/102
f 102/102/102 106/106/106 103/103/103
f 106/106/106 107/107/107 103/103/103
f 103/103/103 107/107/107 104/104/104
f 107/107/107 108/108/108 104/104/104
f 105/105/105 109/109/109 106/106/106
f 109/109/109 110/110/110 106/106/106
f 106/106/106 110/110/110 107/107/107
f 110/110/110 111/111/111 107/107/107
f 107/107/107 111/111/111 108/108/108
f 111/111/111 112/112/112 108/108/108
f 109/109/109 113/113/113 110/110/110
f 113/113/113 114/114/114 110/110/110
f 110/110/110 114/114/114 111/111/111
f 114/114/114 115/115/115 111/111/111
f 111/111/111 115/115/115 112/112/112
f 115/115/115 116/116/116 112/112/112
f 113/113/113 117/117/117 114/114/114
f 117/117/117 118/118/118 114/114/114
f 114/114/114 118/118/118 115/115/115
f 118/118/118 119/119/119 115/115/115
f 115/115/115 119/119/119 116/116/116
f 119/119/119 120/120/120 116/116/116
f 117/117/117 121/121/121 118/118/118
f 121/121/121 122/122/122 118/118/118
f 118/118/118 122/122/122 119/119/119
f 122/122/122 123/123/123 119/119/119
f 119/119/119 123/123/123 120/120/120
f 123/123/123 124/124/124 120/120/120
f 121/121/121 125/125/125 122/122/122
f 125/125/125 126/126/126 122/122/122
f 122/122/122 126/126/126 123/123/123
f 126/126/126 127/127/127 123/123/123
f 123/123/123 127/127/127 124/124/124
f 127/127/127 128/128/128 124/124/124
f 125/125/125 129/129/129 126/126/126
f 129/129/129 130/130/130 126/126/126
f 126/126/126 130/130/130 127/127/127
f 130/130/130 131/131/131 127/127/127
f 127/127/127 131/131/131 128/128/128
f 131/131/131 132/132/132 128/128/128
f 129/129/129 133/133/133 130/130/130
f 133/133/133 134/134/134 130/130/130
f 130/130/130 134/134/134 131/131/131
f 134/134/134 135/135/135 131/131/131
f 131/131/131 135/135/135 132/132/132
f 135/135/135 136/136/136 132/132/132
f 133/133/133 137/137/137 134/134/134
f 137/137/137 138/138/138 134/134/134
f 134/134/134 138/138/138 135/135/135
f 138/138/138 139/139/139 135/135/135
f 135/135/135 139/139/139 136/136/136
f 139/139/139 140/140/140 136/136/136
f 137/137/137 141/141/141 138/138/138
f 141/141/141 142/142/142 138/138/138
f 138/138/138 142/142/142 139/139/139
f 142/142/142 143/143/143 139/139/139
f 139/139/139 143/143/143 140/140/140
f 143/143/143 144/144/144 140/140/140
f 141/141/141 145/145/145 142/142/142
f 145/145/145 146/146/146 142/142/142
f 142/142/142 146/146/146 143/143/143
f 146/146/146 147/147/147 143/143/143
f 143/143/143 147/147/147 144/144/144
f 147/147/147 148/148/148 144/144/144
f 145/145/145 149/149/149 146/146/146
f 149/149/149 150/150/150 146/146/146
f 146/146/146 150/150/150 147/147/147
f 150/150/150 151/151/151 147/147/147
f 147/147/147 151/151/151 148/148/148
f 151/151/151 152/152/152 148/148/148
f 149/149/149 153/153/153 150/150/150
f 153/153/153 154/154/154 150/150/150
f 150/150/150 154/154/154 151/151/151
f 154/154/154 155/155/155 151/151/151
f 151/151/151 155/155/155 152/152/152
f 155/155/155 156/156/156 152/152/152
f 153/153/153 157/157/157 154/154/154
f 157/157/157 158/158/158 154/154/154
f 154/154/154 158/158/158 155/155/155
f 158/158/158 159/159/159 155/155/155
f 155/155/155 159/159/159 156/156/156
f 159/159/159 160/160/160 156/156/156
f 157/157/157 161/161/161 158/158/158
f 161/161/161 162/162/162 158/158/158
f 158/158/158 162/162/162 159/159/159
f 162/162/162 163/163/163 159/159/159
f 159/159/159 163/163/163 160/160/160
f 163/163/163 164/164/164 160/160/160
f 161/161/161 165/165/165 162/162/162
f 165/165/165 166/166/166 162/162/162
f 162/162/162 166/166/166 163/163/163
f 166/166/166 167/167/167 163/163/163
f 163/163/163 167/167/167 164/164/164
f 167/167/167 168/168/168 164/164/164
f 165/165/165 169/169/169 166/166/166
f 169/169/169 170/170/170 166/166/166
f 166/166/166 170/170/170 167/167/167
f 170/170/170 171/171/171 167/167/167
f 167/167/167 171/171/171 168/168/168
f 171/171/171 172/172/172 168/168/168
f 169/169/169 173/173/173 170/170/170
f 173/173/173 174/174/174 170/170/170
f 170/170/170 174/174/174 171/171/171
f 174/174/174 175/175/175 171/171/171
f 171/171/171 175/175/175 172/172/172
f 175/175/175 176/176/176 172/172/172
f 173/173/173 177/177/177 174/174/174
f 177/177/177 178/178/178 174/174/174
f 174/174/174 178/178/178 175/175/175
f 178/178/178 179/179/179 175/175/175
f 175/175/175 179/179/179 176/176/176
f 179/179/179 180/180/180 176/176/176
f 177/177/177 181/181/181 178/178/178
f 181/181/181 182/182/182 178/178/178
f 178/178/178 182/182/182 179/179/179
f 182/182/182 183/183/183 179/179/179
f 179/179/179 183/183/183 180/180/180
f 183/183/183 184/184/184 180/180/180
f 181/181/181 185/185/185 182/182/182
f 185/185/185 186/186/186 182/182/182
f 182/182/182 186/186/186 183/183/183
f 186/186/186 187/187/187 183/183/183
f 183/183/183 187/187/187 184/184/184
f 187/187/187 188/188/188 184/184/184
f 185/185/185 189/189/189 186/186/186
f 189/189/189 190/190/190 186/186/186
f 186/186/186 190/190/190 187/187/187
f 190/190/190 191/191/191 187/187/187
f 187/187/187 191/191/191 188/188/188
f 191/191/191 192/192/192 188/188/188
f 189/189/189 193/193/193 190/190/190
f 193/193/193 194/194/194 190/190/190
f 190/190/190 194/194/194 191/191/191
f 194/194/194 195/195/195 191/191/191
f 191/191/191 195/195/195 192/192/192
f 195/195/195 196/196/196 192/192/192
f 193/193/193 197/197/197 194/194/194
f 197/197/197 198/198/198 194/194/194
f 194/194/194 198/198/198 195/195/195
f 198/198/198 199/199/199 195/195/195
f 195/195/195 199/199/199 196/196/196
f 199/199/199 200/200/200 196/196/196
f 197/197/197 201/201/201 198/198/198
f 201/201/201 202/202/202 198/198/198
f 198/198/198 202/202/202 199/199/199
f 202/202/202 203/203/203 199/199/199
f 199/199/199 203/203/203 200/200/200
f 203/203/203 204/204/204 200/200/200
f 201/201/201 205/205/205 202/202/202
f 205/205/205 206/206/206 202/202/202
f 202/202/202 206/206/206 203/203/203
f 206/206/206 207/207/207 203/203/203
f 203/203/203 207/207/207 204/204/204
f 207/207/207 208/208/208 204/204/204
f 205/205/205 209/209/209 206/206/206
f 209/209/209 210/210/210 206/206/206
f 206/206/206 210/210/210 207/207/207
f 210/210/210 211/211/211 207/207/207
f 207/207/207 211/211/211 208/208/208
f 211/211/211 212/212/212 208/208/208
f 209/209/209 213/213/213 210/210/210
f 213/213/213 214/214/214 210/210/210
f 210/210/210 214/214/214 211/211/211
f 214/214/214 215/215/215 211/211/211
f 211/211/211 215/215/215 212/212/212
f 215/215/215 216/216/216 212/212/212
f 213/213/213 217/217/217 214/214/214
f 217/217/217 218/218/218 214/214/214
f 214/214/214 218/218/218 215/215/215
f 218/218/218 219/219/219 215/215/215
f 215/215/215 219/219/219 216/216/216
f 219/219/219 220/220/220 216/216/216
f 217/217/217 221/221/221 218/218/218
f 221/221/221 222/222/222 218/218/218
f 218/218/218 222/222/222 219/219/219
f 222/222/222 223/223/223 219/219/219
f 219/219/219 223/223/223 220/220/220
f 223/223/223 224/224/224 220/220/220
f 221/221/221 225/225/225 222/222/222
f 225/225/225 226/226/226 222/222/222
f 222/222/222 226/226/226 223/223/223
f 226/226/226 227/227/227 223/223/223
f 223/223/223 227/227/227 224/224/224
f 227/227/227 228/228/228 224/224/224
f 225/225/225 229/229/229 226/226/226
f 229/229/229 230/230/230 226/226/226
f 226/226/226 230/230/230 227/227/227
f 230/230/230 231/231/231 227/227/227
f 227/227/227 231/231/231 228/228/228
f 231/231/231 232/232/232 228/228/228
f 229/229/229 233/233/233 230/230/230
f 233/233/233 234/234/234 230/230/230
f 230/230/230 234/234/234 231/231/231
f 234/234/234 235/235/235 231/231/231
f 231/231/231 235/235/235 232/232/232
f 235/235/235 236/236/236 232/232/232
f 233/233/233 237/237/237 234/234/234
f 237/237/237 238/238/238 234/234/234
f 234/234/234 238/238/238 235/235/235
f 238/238/238 239/239/239 235/235/235
f 235/235/235 239/239/239 236/236/236
f 239/239/239 240/240/240 236/236/236
f 237/237/237 241/241/241 238/238/238
f 241/241/241 242/242/242 238/238/238
f 238/238/238 242/242/242 239/239/239
f 242/242/242 243/243/243 239/239/239
f 239/239/239 243/243/243 240/240/240
f 243/243/243 244/244/244 240/240/240
f 241/241/241 245/245/245 242/242/242
f 245/245/245 246/246/246 242/242/242
f 242/242/242 246/246/246 243/243/243
f 246/246/246 247/247/247 243/243/243
f 243/243/243 247/247/247 244/244/244
f 247/247/247 248/248/248 244/244/244
f 245/245/245 249/249/249 246/246/246
f 249/249/249 250/250/250 246/246/246
f 246/246/246 250/250/250 247/247/247
f 250/250/250 251/251/251 247/247/247
f 247/247/247 251/251/251 248/248/248
f 251/251/251 252/252/252 248/248/248
f 249/249/249 253/253/253 250/250/250
f 253/253/253 254/254/254 250/250/250
f 250/250/250 254/254/254 251/251/251
f 254/254/254 255/255/255 251/251/251
f 251/251/251 255/255/255 252/252/252
f 255/255/255 256/256/256 252/252/252
f 253/253/253 257/257/257 254/254/254
f 257/257/257 258/258/258 254/254/254
f 254/254/254 258/258/258 255/255/255
f 258/258/258 259/259/259 255/255/255
f 255/255/255 259/259/259 256/256/256
f 259/259/259 260/260/260 256/256/256
f 257/257/257 261/261/261 258/258/258
f 261/261/261 262/262/262 258/258/258
f 258/258/258 262/262/262 259/259/259
f 262/262/262 263/263/263 259/259/259
f 259/259/259 263/263/263 260/260/260
f 263/263/263 264/264/264 260/260/260
f 261/261/261 265/265/265 262/262/262
f 265/265/265 266/266/266 262/262/262
f 262/262/262 266/266/266 263/263/263
f 266/266/266 267/267/267 263/263/263
f 263/263/263 267/267/267 264/264/264
f 267/267/267 268/268/268 264/264/264
f 265/265/265 269/269/269 266/266/266
f 269/269/269 270/270/270 266/266/266
f 266/266/266 270/270/270 267/267/267
f 270/270/270 271/271/271 267/267/267
f 267/267/267 271/271/271 268/268/268
f 271/271/271 272/272/272 268/268/268
f 269/269/269 273/273/273 270/270/270
f 273/273/273 274/274/274 270/270/270
f 270/270/270 274/274/274 271/271/271
f 274/274/274 275/275/275 271/271/271
f 271/271/271 275/275/275 272/272/272
f 275/275/275 276/276/276 272/272/272
f 273/273/273 277/277/277 274/274/274
f 277/277/277 278/278/278 274/274/274
f 274/274/274 278/278/278 275/275/275
f 278/278/278 279/279/279 275/275/275
f 275/275/275 279/279/279 276/276/276
f 279/279/279 280/280/280 276/276/276
f 277/277/277 281/281/281 278/278/278
f 281/281/281 282/282/282 278/278/278
f 278/278/278 282/282/282 279/279/279
f 282/282/282 283/283/283 279/279/279
f 279/279/279 283/283/283 280/280/280
f 283/283/283 284/284/284 280/280/280
f 281/281/281 285/285/285 282/282/282
f 285/285/285 286/286/286 282/282/282
f 282/282/282 286/286/286 283/283/283
f 286/286/286 287/287/287 283/283/283
f 283/283/283 287/287/287 284/284/284
f 287/287/287 288/288/288 284/284/284
f 285/285/285 289/289/289 286/286/286
f 289/289/289 290/290/290 286/286/286
f 286/286/286 290/290/290 287/287/287
f 290/290/290 291/291/291 287/287/287
f 287/287/287 291/291/291 288/288/288
f 291/291/291 292/292/292 288/288/288
f 289/289/289 293/293/293 290/290/290
f 293/293/293 294/294/294 290/290/290
f 290/290/290 294/294/294 291/291/291
f 294/294/294 295/295/295 291/291/291
f 291/291/291 295/295/295 292/292/292
f 295/295/295 296/296/296 292/292/292
f 293/293/293 297/297/297 294/294/294
f 297/297/297 298/298/298 294/294/294
f 294/294/294 298/298/298 295/295/295
f 298/298/298 299/299/299 295/295/295
f 295/295/295 299/299/299 296/296/296
f 299/299/299 300/300/300 296/296/296
f 297/297/297 301/301/301 298/298/298
f 301/301/301 302/302/302 298/298/298
f 298/298/298 302/302/302 299/299/299
f 302/302/302 303/303/303 299/299/299
f 299/299/299 303/303/303 300/300/300
f 303/303/303 304/304/304 300/300/300
f 301/301/301 305/305/305 302/302/302
f 305/305/305 306/306/306 302/302/302
f 302/302/302 306/306/306 303/303/303
f 306/306/306 307/307/307 303/303/303
f 303/303/303 307/307/307 304/304/304
f 307/307/307 308/308/308 304/304/304
f 305/305/305 309/309/309 306/306/306
f 309/309/309 310/310/310 306/306/306
f 306/306/306 310/310/310 307/307/307
f 310/310/310 311/311/311 307/307/307
f 307/307/307 311/311/311 308/308/308
f 311/311/311 312/312/312 308/308/308
f 309/309/309 313/313/313 310/310/310
f 313/313/313 314/314/314 310/310/310
f 310/310/310 314/314/314 311/311/311
f 314/314/314 315/315/315 311/311/311
f 311/311/311 315/315/315 312/312/312
f 315/315/315 316/316/316 312/312/312
f 313/313/313 317/317/317 314/314/314
f 317/317/317 318/318/318 314/314/314
f 314/314/314 318/318/318 315/315/315
f 318/318/318 319/319/319 315/315/315
f 315/315/315 319/319/319 316/316/316
f 319/319/319 320/320/320 316/316/316
f 317/317/317 321/321/321 318/318/318
f 321/321/321 322/322/322 318/318/318
f 318/318/318 322/322/322 319/319/319
f 322/322/322 323/323/323 319/319/319
f 319/319/319 323/323/323 320/320/320
f 323/323/323 324/324/324 320/320/320
f 321/321/321 325/325/325 322/322/322
f 325/325/325 326/326/326 322/322/322
f 322/322/322 326/326/326 323/323/323
f 326/326/326 327/327/327 323/323/323
f 323/323/323 327/327/327 324/324/324
f 327/327/327 328/328/328 324/324/324
f 325/325/325 329/329/329 326/326/326
f 329/329/329 330/330/330 326/326/326
f 326/326/326 330/330/330 327/327/327
f 330/330/330 331/331/331 327/327/327
f 327/327/327 331/331/331 328/328/328
f 331/331/331 332/332/332 328/328/328
f 329/329/329 333/333/333 330/330/330
f 333/333/333 334/334/334 330/330/330
f 330/330/330 334/334/334 331/331/331
f 334/334/334 335/335/335 331/331/331
f 331/331/331 335/335/335 332/332/332
f 335/335/335 336/336/336 332/332/332
f 333/333/333 337/337/337 334/334/334
f 337/337/337 338/338/338 334/334/334
f 334/334/334 338/338/338 335/335/335
f 338/338/338 339/339/339 335/335/335
f 335/335/335 339/339/339 336/336/336
f 339/339/339 340/340/340 336/336/336
f 337/337/337 341/341/341 338/338/338
f 341/341/341 342/342/342 338/338/338
f 338/338/338 342/342/342 339/339/339
f 342/342/342 343/343/343 339/339/339
f 339/339/339 343/343/343 340/340/340
f 343/343/343 344/344/344 340/340/340
f 341/341/341 345/345/345 342/342/342
f 345/345/345 346/346/346 342/342/342
f 342/342/342 346/346/346 343/343/343
f 346/346/346 347/347/347 343/343/343
f 343/343/343 347/347/347 344/344/344
f 347/347/347 348/348/348 344/344/344
f 345/345/345 349/349/349 346/346/346
f 349/349/349 350/350/350 346/346/346
f 346/346/346 350/350/350 347/347/347
f 350/350/350 351/351/351 347/347/347
f 347/347/347 351/351/351 348/348/348
f 351/351/351 352/352/352 348/348/348
f 349/349/349 353/353/353 350/350/350
f 353/353/353 354/354/354 350/350/350
f 350/350/350 354/354/354 351/351/351
f 354/354/354 355/355/355 351/351/351
f 351/351/351 355/355/355 352/352/352
f 355/355/355 356/356/356 352/352/352
f 353/353/353 357/357/357 354/354/354
f 357/357/357 358/358/358 354/354/354
f 354/354/354 358/358/358 355/355/355
f 358/358/358 359/359/359 355/355/355
f 355/355/355 359/359/359 356/356/356
f 359/359/359 360/360/360 356/356/356
f 357/357/357 361/361/361 358/358/358
f 361/361/361 362/362/362 358/358/358
f 358/358/358 362/362/362 359/359/359
f 362/362/362 363/363/363 359/359/359
f 359/359/359 363/363/363 360/360/360
f 363/363/363 364/364/364 360/360/360
f 361/361/361 365/365/365 362/362/362
f 365/365/365 366/366/366 362/362/362
f 362/362/362 366/366/366 363/363/363
f 366/366/366 367/367/367 363/363/363
f 363/363/363 367/367/367 364/364/364
f 367/367/367 368/368/368 364/364/364
f 365/365/365 369/369/369 366/366/366
f 369/369/369 370/370/370 366/366/366
f 366/366/366 370/370/370 367/367/367
f 370/370/370 371/371/371 367/367/367
f 367/367/367 371/371/371 368/368/368
f 371/371/371 372/372/372 368/368/368
f 369/369/369 373/373/373 370/370/370
f 373/373/373 374/374/374 370/370/370
f 370/370/370 374/374/374 371/371/371
f 374/374/374 375/375/375 371/371/371
f 371/371/371 375/375/375 372/372/372
f 375/375/375 376/376/376 372/372/372
f 373/373/373 377/377/377 374/374/374
f 377/377/377 378/378/378 374/374/374
f 374/374/374 378/378/378 375/375/375
f 378/378/378 379/379/379 375/375/375
f 375/375/375 379/379/379 376/376/376
f 379/379/379 380/380/380 376/376/376
f 377/377/377 381/381/381 378/378/378
f 381/381/381 382/382/382 378/378/378
f 378/378/378 382/382/382 379/379/379
f 382/382/382 383/383/383 379/379/379
f 379/379/379 383/383/383 380/380/380
f 383/383/383 384/384/384 380/380/380
f 381/381/381 385/385/385 382/382/382
f 385/385/385 386/386/386 382/382/382
f 382/382/382 386/386/386 383/383/383
f 386/386/386 387/387/387 383/383/383
f 383/383/383 387/387/387 384/384/384
f 387/387/387 388/388/388 384/384/384
